<?xml version="1.0" encoding="UTF-8" standalone="no"?>
<!-- Created with Inkscape (http://www.inkscape.org/) -->

<svg
   width="30.132736mm"
   height="39.282326mm"
   viewBox="0 0 30.132736 39.282326"
   version="1.1"
   id="svg1"
   xml:space="preserve"
   xmlns="http://www.w3.org/2000/svg"
   xmlns:svg="http://www.w3.org/2000/svg"><defs
     id="defs1" /><g
     id="layer1"
     transform="translate(-75.353308,-80.317341)"><path
       style="fill:#000000;fill-opacity:0;stroke-width:0"
       d="m 75.901212,115.15233 -0.44875,-0.47923 v -8.59687 -8.596869 l 1.03382,-1.162854 c 0.56859,-0.63957 1.57567,-1.723781 2.23794,-2.409358 l 1.20413,-1.246502 h 1.32682 c 1.3263,0 1.32731,4.23e-4 2.55617,1.096922 l 1.22934,1.096922 h -1.97874 -1.97873 l -0.7664,0.847621 -0.76639,0.847622 4.88157,0.112871 c 5.50567,0.127299 16.748278,-0.0094 16.748278,-0.2037 0,-0.07006 -0.34034,-0.459713 -0.75631,-0.865896 -0.719988,-0.703049 -0.820508,-0.738518 -2.093078,-0.738518 h -1.33677 l 0.84658,-1.096162 c 0.84488,-1.093961 0.84879,-1.096164 1.94885,-1.096922 1.099748,-7.68e-4 1.105238,0.0023 2.402718,1.345462 0.71524,0.740423 1.7225,1.813557 2.23835,2.38474 l 0.93791,1.038518 -0.003,8.634343 c -0.002,4.74888 -0.0783,8.75301 -0.17026,8.89806 -0.26639,0.42014 -1.55072,0.62388 -3.96507,0.629 l -2.243708,0.005 v -3.70275 c 0,-2.15818 -0.0857,-3.86282 -0.20535,-4.08647 -0.24319,-0.45441 -1.20253,-0.98615 -1.77915,-0.98615 -0.36895,0 -0.40878,-0.12279 -0.40878,-1.26017 0,-2.4865 -1.07807,-4.45122 -3.08913,-5.629783 -3.21396,-1.883503 -7.64586,-0.240178 -8.84566,3.279923 -0.12709,0.37287 -0.23107,1.32592 -0.23107,2.11789 v 1.43995 l -0.72669,0.11787 c -0.39965,0.0649 -0.93814,0.31662 -1.19664,0.55947 -0.45888,0.43109 -0.47007,0.52449 -0.47306,3.94684 -0.002,1.92792 -0.0881,3.63992 -0.19202,3.80446 -0.1487,0.23542 -0.75365,0.31355 -2.83897,0.36666 -2.58205,0.0658 -2.66151,0.0552 -3.09874,-0.41174 z"
       id="path35-1" /><path
       style="fill:#000000;fill-opacity:0;stroke-width:0"
       d="m 75.901212,115.15233 -0.44875,-0.47923 v -8.59687 -8.596869 l 1.03382,-1.162854 c 0.56859,-0.63957 1.57567,-1.723781 2.23794,-2.409358 l 1.20413,-1.246502 h 1.32682 c 1.3263,0 1.32731,4.23e-4 2.55617,1.096922 l 1.22934,1.096922 h -1.97874 -1.97873 l -0.7664,0.847621 -0.76639,0.847622 4.88157,0.112871 c 5.50567,0.127299 16.748278,-0.0094 16.748278,-0.2037 0,-0.07006 -0.34034,-0.459713 -0.75631,-0.865896 -0.719988,-0.703049 -0.820508,-0.738518 -2.093078,-0.738518 h -1.33677 l 0.84658,-1.096162 c 0.84488,-1.093961 0.84879,-1.096164 1.94885,-1.096922 1.099748,-7.68e-4 1.105238,0.0023 2.402718,1.345462 0.71524,0.740423 1.7225,1.813557 2.23835,2.38474 l 0.93791,1.038518 -0.003,8.634343 c -0.002,4.74888 -0.0783,8.75301 -0.17026,8.89806 -0.26639,0.42014 -1.55072,0.62388 -3.96507,0.629 l -2.243708,0.005 v -3.70275 c 0,-2.15818 -0.0857,-3.86282 -0.20535,-4.08647 -0.24319,-0.45441 -1.20253,-0.98615 -1.77915,-0.98615 -0.36895,0 -0.40878,-0.12279 -0.40878,-1.26017 0,-2.4865 -1.07807,-4.45122 -3.08913,-5.629783 -3.21396,-1.883503 -7.64586,-0.240178 -8.84566,3.279923 -0.12709,0.37287 -0.23107,1.32592 -0.23107,2.11789 v 1.43995 l -0.72669,0.11787 c -0.39965,0.0649 -0.93814,0.31662 -1.19664,0.55947 -0.45888,0.43109 -0.47007,0.52449 -0.47306,3.94684 -0.002,1.92792 -0.0881,3.63992 -0.19202,3.80446 -0.1487,0.23542 -0.75365,0.31355 -2.83897,0.36666 -2.58205,0.0658 -2.66151,0.0552 -3.09874,-0.41174 z"
       id="path36-7" /><path
       style="fill:#000000;fill-opacity:0;stroke-width:0"
       d="m 75.855452,115.28257 c -0.55443,-0.61368 -0.50689,0.26824 -0.49661,-9.21178 l 0.009,-8.467175 0.19488,-0.311666 c 0.28198,-0.450975 1.03819,-1.291707 2.83311,-3.149805 l 1.58369,-1.639423 1.28114,1.72e-4 1.28113,1.72e-4 1.31965,1.174018 c 0.7258,0.645711 1.30301,1.200921 1.28269,1.233803 -0.0203,0.03288 -0.93626,0.05978 -2.03543,0.05978 h -1.99849 l -0.51038,0.546476 c -0.64089,0.686207 -0.87713,0.994476 -0.81201,1.059611 0.0714,0.0714 20.934708,0.102386 21.208288,0.0315 l 0.22332,-0.05787 -0.7631,-0.789855 -0.763098,-0.789858 h -1.40859 c -1.17586,0 -1.40234,-0.01625 -1.37084,-0.09835 0.0207,-0.05409 0.41985,-0.588838 0.88686,-1.188326 l 0.84912,-1.089978 0.47805,-0.04515 c 0.26294,-0.02483 0.7532,-0.04537 1.089468,-0.04565 l 0.61141,-5.03e-4 1.79667,1.850962 c 1.75942,1.812587 2.41874,2.527142 2.64443,2.865984 0.1731,0.259865 0.23442,3.446221 0.20982,10.901641 l -0.0212,6.41667 -0.17628,0.35138 c -0.32448,0.64678 -0.24882,0.63239 -3.46145,0.65839 l -2.791578,0.0226 -0.0466,-1.2855 c -0.0256,-0.70702 -0.048,-2.1768 -0.0497,-3.26618 -0.002,-1.08938 -0.0301,-2.21398 -0.0631,-2.49912 -0.0785,-0.67739 -0.31079,-1.01446 -0.91849,-1.33252 -0.369,-0.19313 -0.51322,-0.22917 -0.91717,-0.22917 h -0.47932 l -0.0346,-1.42788 c -0.0287,-1.18314 -0.0606,-1.51647 -0.18617,-1.94465 -0.5196,-1.77206 -1.97431,-3.34795 -3.68236,-3.989117 -1.29476,-0.486029 -2.85814,-0.529487 -4.09815,-0.113916 -1.57358,0.527353 -2.86597,1.659893 -3.58208,3.139023 -0.41602,0.85929 -0.49721,1.28994 -0.54061,2.86749 -0.043,1.56175 -0.002,1.46601 -0.62852,1.46809 -0.3482,0.001 -0.81313,0.15544 -1.0647,0.35333 -0.23036,0.1812 -0.54636,0.61544 -0.6159,0.84635 -0.0292,0.097 -0.0735,1.77194 -0.0985,3.72218 -0.039,3.04138 -0.0605,3.55542 -0.15121,3.61271 -0.062,0.0391 -1.27753,0.0672 -2.93571,0.0679 l -2.82993,0.001 z"
       id="path40-1" /><path
       style="fill:#000000;fill-opacity:0;stroke-width:0"
       d="m 75.855452,115.28257 c -0.55443,-0.61368 -0.50689,0.26824 -0.49661,-9.21178 l 0.009,-8.467175 0.19488,-0.311666 c 0.28198,-0.450975 1.03819,-1.291707 2.83311,-3.149805 l 1.58369,-1.639423 1.28114,1.72e-4 1.28113,1.72e-4 1.31965,1.174018 c 0.7258,0.645711 1.30301,1.200921 1.28269,1.233803 -0.0203,0.03288 -0.93626,0.05978 -2.03543,0.05978 h -1.99849 l -0.51038,0.546476 c -0.64089,0.686207 -0.87713,0.994476 -0.81201,1.059611 0.0714,0.0714 20.934708,0.102386 21.208288,0.0315 l 0.22332,-0.05787 -0.7631,-0.789855 -0.763098,-0.789858 h -1.40859 c -1.17586,0 -1.40234,-0.01625 -1.37084,-0.09835 0.0207,-0.05409 0.41985,-0.588838 0.88686,-1.188326 l 0.84912,-1.089978 0.47805,-0.04515 c 0.26294,-0.02483 0.7532,-0.04537 1.089468,-0.04565 l 0.61141,-5.03e-4 1.79667,1.850962 c 1.75942,1.812587 2.41874,2.527142 2.64443,2.865984 0.1731,0.259865 0.23442,3.446221 0.20982,10.901641 l -0.0212,6.41667 -0.17628,0.35138 c -0.32448,0.64678 -0.24882,0.63239 -3.46145,0.65839 l -2.791578,0.0226 -0.0466,-1.2855 c -0.0256,-0.70702 -0.048,-2.1768 -0.0497,-3.26618 -0.002,-1.08938 -0.0301,-2.21398 -0.0631,-2.49912 -0.0785,-0.67739 -0.31079,-1.01446 -0.91849,-1.33252 -0.369,-0.19313 -0.51322,-0.22917 -0.91717,-0.22917 h -0.47932 l -0.0346,-1.42788 c -0.0287,-1.18314 -0.0606,-1.51647 -0.18617,-1.94465 -0.5196,-1.77206 -1.97431,-3.34795 -3.68236,-3.989117 -1.29476,-0.486029 -2.85814,-0.529487 -4.09815,-0.113916 -1.57358,0.527353 -2.86597,1.659893 -3.58208,3.139023 -0.41602,0.85929 -0.49721,1.28994 -0.54061,2.86749 -0.043,1.56175 -0.002,1.46601 -0.62852,1.46809 -0.3482,0.001 -0.81313,0.15544 -1.0647,0.35333 -0.23036,0.1812 -0.54636,0.61544 -0.6159,0.84635 -0.0292,0.097 -0.0735,1.77194 -0.0985,3.72218 -0.039,3.04138 -0.0605,3.55542 -0.15121,3.61271 -0.062,0.0391 -1.27753,0.0672 -2.93571,0.0679 l -2.82993,0.001 z"
       id="path41-1" /><path
       style="fill:#000000;fill-opacity:0;stroke-width:0"
       d="m 75.855452,115.28257 c -0.55443,-0.61368 -0.50689,0.26824 -0.49661,-9.21178 l 0.009,-8.467175 0.19488,-0.311666 c 0.28198,-0.450975 1.03819,-1.291707 2.83311,-3.149805 l 1.58369,-1.639423 1.28114,1.72e-4 1.28113,1.72e-4 1.31965,1.174018 c 0.7258,0.645711 1.30301,1.200921 1.28269,1.233803 -0.0203,0.03288 -0.93626,0.05978 -2.03543,0.05978 h -1.99849 l -0.51038,0.546476 c -0.64089,0.686207 -0.87713,0.994476 -0.81201,1.059611 0.0714,0.0714 20.934708,0.102386 21.208288,0.0315 l 0.22332,-0.05787 -0.7631,-0.789855 -0.763098,-0.789858 h -1.40859 c -1.17586,0 -1.40234,-0.01625 -1.37084,-0.09835 0.0207,-0.05409 0.41985,-0.588838 0.88686,-1.188326 l 0.84912,-1.089978 0.47805,-0.04515 c 0.26294,-0.02483 0.7532,-0.04537 1.089468,-0.04565 l 0.61141,-5.03e-4 1.79667,1.850962 c 1.75942,1.812587 2.41874,2.527142 2.64443,2.865984 0.1731,0.259865 0.23442,3.446221 0.20982,10.901641 l -0.0212,6.41667 -0.17628,0.35138 c -0.32448,0.64678 -0.24882,0.63239 -3.46145,0.65839 l -2.791578,0.0226 -0.0466,-1.2855 c -0.0256,-0.70702 -0.048,-2.1768 -0.0497,-3.26618 -0.002,-1.08938 -0.0301,-2.21398 -0.0631,-2.49912 -0.0785,-0.67739 -0.31079,-1.01446 -0.91849,-1.33252 -0.369,-0.19313 -0.51322,-0.22917 -0.91717,-0.22917 h -0.47932 l -0.0346,-1.42788 c -0.0287,-1.18314 -0.0606,-1.51647 -0.18617,-1.94465 -0.5196,-1.77206 -1.97431,-3.34795 -3.68236,-3.989117 -1.29476,-0.486029 -2.85814,-0.529487 -4.09815,-0.113916 -1.57358,0.527353 -2.86597,1.659893 -3.58208,3.139023 -0.41602,0.85929 -0.49721,1.28994 -0.54061,2.86749 -0.043,1.56175 -0.002,1.46601 -0.62852,1.46809 -0.3482,0.001 -0.81313,0.15544 -1.0647,0.35333 -0.23036,0.1812 -0.54636,0.61544 -0.6159,0.84635 -0.0292,0.097 -0.0735,1.77194 -0.0985,3.72218 -0.039,3.04138 -0.0605,3.55542 -0.15121,3.61271 -0.062,0.0391 -1.27753,0.0672 -2.93571,0.0679 l -2.82993,0.001 z"
       id="path42-5" /><path
       style="fill:#002255;fill-opacity:0;stroke-width:0"
       d="m 75.855452,115.28257 c -0.55443,-0.61368 -0.50689,0.26824 -0.49661,-9.21178 l 0.009,-8.467175 0.19488,-0.311666 c 0.28198,-0.450975 1.03819,-1.291707 2.83311,-3.149805 l 1.58369,-1.639423 1.28114,1.72e-4 1.28113,1.72e-4 1.31965,1.174018 c 0.7258,0.645711 1.30301,1.200921 1.28269,1.233803 -0.0203,0.03288 -0.93626,0.05978 -2.03543,0.05978 h -1.99849 l -0.51038,0.546476 c -0.64089,0.686207 -0.87713,0.994476 -0.81201,1.059611 0.0714,0.0714 20.934708,0.102386 21.208288,0.0315 l 0.22332,-0.05787 -0.7631,-0.789855 -0.763098,-0.789858 h -1.40859 c -1.17586,0 -1.40234,-0.01625 -1.37084,-0.09835 0.0207,-0.05409 0.41985,-0.588838 0.88686,-1.188326 l 0.84912,-1.089978 0.47805,-0.04515 c 0.26294,-0.02483 0.7532,-0.04537 1.089468,-0.04565 l 0.61141,-5.03e-4 1.79667,1.850962 c 1.75942,1.812587 2.41874,2.527142 2.64443,2.865984 0.1731,0.259865 0.23442,3.446221 0.20982,10.901641 l -0.0212,6.41667 -0.17628,0.35138 c -0.32448,0.64678 -0.24882,0.63239 -3.46145,0.65839 l -2.791578,0.0226 -0.0466,-1.2855 c -0.0256,-0.70702 -0.048,-2.1768 -0.0497,-3.26618 -0.002,-1.08938 -0.0301,-2.21398 -0.0631,-2.49912 -0.0785,-0.67739 -0.31079,-1.01446 -0.91849,-1.33252 -0.369,-0.19313 -0.51322,-0.22917 -0.91717,-0.22917 h -0.47932 l -0.0346,-1.42788 c -0.0287,-1.18314 -0.0606,-1.51647 -0.18617,-1.94465 -0.5196,-1.77206 -1.97431,-3.34795 -3.68236,-3.989117 -1.29476,-0.486029 -2.85814,-0.529487 -4.09815,-0.113916 -1.57358,0.527353 -2.86597,1.659893 -3.58208,3.139023 -0.41602,0.85929 -0.49721,1.28994 -0.54061,2.86749 -0.043,1.56175 -0.002,1.46601 -0.62852,1.46809 -0.3482,0.001 -0.81313,0.15544 -1.0647,0.35333 -0.23036,0.1812 -0.54636,0.61544 -0.6159,0.84635 -0.0292,0.097 -0.0735,1.77194 -0.0985,3.72218 -0.039,3.04138 -0.0605,3.55542 -0.15121,3.61271 -0.062,0.0391 -1.27753,0.0672 -2.93571,0.0679 l -2.82993,0.001 z"
       id="path43-2" /><path
       style="fill:#000000;fill-opacity:0;stroke-width:0"
       d="m 75.855452,115.28257 c -0.55443,-0.61368 -0.50689,0.26824 -0.49661,-9.21178 l 0.009,-8.467175 0.19488,-0.311666 c 0.28198,-0.450975 1.03819,-1.291707 2.83311,-3.149805 l 1.58369,-1.639423 1.28114,1.72e-4 1.28113,1.72e-4 1.31965,1.174018 c 0.7258,0.645711 1.30301,1.200921 1.28269,1.233803 -0.0203,0.03288 -0.93626,0.05978 -2.03543,0.05978 h -1.99849 l -0.51038,0.546476 c -0.64089,0.686207 -0.87713,0.994476 -0.81201,1.059611 0.0714,0.0714 20.934708,0.102386 21.208288,0.0315 l 0.22332,-0.05787 -0.7631,-0.789855 -0.763098,-0.789858 h -1.40859 c -1.17586,0 -1.40234,-0.01625 -1.37084,-0.09835 0.0207,-0.05409 0.41985,-0.588838 0.88686,-1.188326 l 0.84912,-1.089978 0.47805,-0.04515 c 0.26294,-0.02483 0.7532,-0.04537 1.089468,-0.04565 l 0.61141,-5.03e-4 1.79667,1.850962 c 1.75942,1.812587 2.41874,2.527142 2.64443,2.865984 0.1731,0.259865 0.23442,3.446221 0.20982,10.901641 l -0.0212,6.41667 -0.17628,0.35138 c -0.32448,0.64678 -0.24882,0.63239 -3.46145,0.65839 l -2.791578,0.0226 -0.0466,-1.2855 c -0.0256,-0.70702 -0.048,-2.1768 -0.0497,-3.26618 -0.002,-1.08938 -0.0301,-2.21398 -0.0631,-2.49912 -0.0785,-0.67739 -0.31079,-1.01446 -0.91849,-1.33252 -0.369,-0.19313 -0.51322,-0.22917 -0.91717,-0.22917 h -0.47932 l -0.0346,-1.42788 c -0.0287,-1.18314 -0.0606,-1.51647 -0.18617,-1.94465 -0.5196,-1.77206 -1.97431,-3.34795 -3.68236,-3.989117 -1.29476,-0.486029 -2.85814,-0.529487 -4.09815,-0.113916 -1.57358,0.527353 -2.86597,1.659893 -3.58208,3.139023 -0.41602,0.85929 -0.49721,1.28994 -0.54061,2.86749 -0.043,1.56175 -0.002,1.46601 -0.62852,1.46809 -0.3482,0.001 -0.81313,0.15544 -1.0647,0.35333 -0.23036,0.1812 -0.54636,0.61544 -0.6159,0.84635 -0.0292,0.097 -0.0735,1.77194 -0.0985,3.72218 -0.039,3.04138 -0.0605,3.55542 -0.15121,3.61271 -0.062,0.0391 -1.27753,0.0672 -2.93571,0.0679 l -2.82993,0.001 z"
       id="path44-7" /><path
       style="fill:#000000;fill-opacity:0;stroke-width:0"
       d="m 86.173792,93.788102 c -1.79317,-1.395629 -2.18631,-1.754972 -2.18631,-1.998346 0,-0.300809 1.25591,-2.081596 4.79378,-6.797254 2.60827,-3.476579 3.51647,-4.612413 3.73127,-4.666499 0.10002,-0.02518 0.25946,0.0059 0.38967,0.07606 0.51334,0.276451 4.77027,3.45984 7.00355,5.237351 0.894848,0.712226 1.004808,0.823075 1.004808,1.012944 0,0.24659 -0.17412,0.496294 -2.997748,4.299079 -3.00586,4.048191 -2.9048,3.925321 -3.27011,3.976157 -0.17023,0.02369 -1.80437,0.04241 -3.63141,0.0416 l -3.32188,-0.0015 z"
       id="path45-6" /><path
       style="fill:#000000;fill-opacity:0;stroke-width:0"
       d="m 86.173792,93.788102 c -1.79317,-1.395629 -2.18631,-1.754972 -2.18631,-1.998346 0,-0.300809 1.25591,-2.081596 4.79378,-6.797254 2.60827,-3.476579 3.51647,-4.612413 3.73127,-4.666499 0.10002,-0.02518 0.25946,0.0059 0.38967,0.07606 0.51334,0.276451 4.77027,3.45984 7.00355,5.237351 0.894848,0.712226 1.004808,0.823075 1.004808,1.012944 0,0.24659 -0.17412,0.496294 -2.997748,4.299079 -3.00586,4.048191 -2.9048,3.925321 -3.27011,3.976157 -0.17023,0.02369 -1.80437,0.04241 -3.63141,0.0416 l -3.32188,-0.0015 z"
       id="path46-1" /><path
       style="fill:#004c86;fill-opacity:1;stroke-width:0"
       d="m 75.844602,115.27057 c -0.53621,-0.59353 -0.49605,0.17099 -0.48533,-9.23787 l 0.01,-8.434763 0.2479,-0.379339 c 0.31505,-0.482086 0.88719,-1.114589 2.81478,-3.111711 l 1.54831,-1.604166 1.28105,2.91e-4 1.28105,2.91e-4 1.31902,1.174921 c 0.72546,0.646207 1.30268,1.201369 1.2827,1.233694 -0.02,0.03232 -0.93474,0.05877 -2.03282,0.05877 h -1.99648 l -0.48556,0.511197 c -0.60835,0.640492 -0.9067,1.028983 -0.84083,1.094869 0.0714,0.0714 20.934708,0.102386 21.208288,0.0315 l 0.22332,-0.05787 -0.7631,-0.789855 -0.763098,-0.789858 h -1.40859 c -1.19986,0 -1.40278,-0.01511 -1.36945,-0.101982 0.0215,-0.05609 0.42238,-0.591003 0.89079,-1.188692 l 0.85164,-1.086709 0.47413,-0.04478 c 0.26078,-0.02463 0.74926,-0.04501 1.085518,-0.04528 l 0.61137,-5.03e-4 1.76049,1.815705 c 1.76339,1.81869 2.47436,2.587701 2.67982,2.898571 0.17104,0.258797 0.2365,3.658009 0.21133,10.974829 l -0.0218,6.34615 -0.17628,0.35257 c -0.12927,0.25854 -0.25149,0.39017 -0.45833,0.49358 -0.2651,0.13255 -0.44773,0.14235 -3.03838,0.16304 l -2.756328,0.022 -0.0464,-1.3265 c -0.0255,-0.72957 -0.0478,-2.19909 -0.0497,-3.2656 -0.005,-3.06165 -0.0721,-3.32165 -0.97569,-3.78939 -0.37352,-0.19336 -0.52007,-0.22984 -0.9233,-0.22984 h -0.47932 l -0.0346,-1.42788 c -0.0287,-1.18314 -0.0606,-1.51646 -0.18618,-1.94465 -0.5196,-1.77205 -1.97431,-3.34794 -3.68236,-3.989113 -1.29476,-0.486029 -2.85814,-0.529487 -4.09815,-0.113916 -1.58087,0.529799 -2.86844,1.658709 -3.5802,3.139019 -0.43303,0.90062 -0.49781,1.23907 -0.54214,2.83238 -0.0446,1.60157 -0.003,1.50113 -0.62887,1.5032 -0.3482,0.001 -0.81313,0.15545 -1.0647,0.35334 -0.23036,0.18119 -0.54636,0.61543 -0.6159,0.84634 -0.0292,0.097 -0.0735,1.77194 -0.0985,3.72219 -0.039,3.04137 -0.0605,3.55541 -0.15121,3.6127 -0.062,0.0391 -1.27753,0.0672 -2.93571,0.0679 l -2.82993,0.001 z"
       id="path58-4" /><path
       style="fill:#004c86;fill-opacity:1;stroke-width:0"
       d="m 86.716172,105.84727 c 0.0396,-1.37824 0.10387,-1.7713 0.37891,-2.31654 0.40358,-0.80008 1.23481,-1.5466 2.11035,-1.89527 0.40058,-0.15953 1.5963,-0.22501 2.10737,-0.11541 0.86798,0.18615 1.69271,0.75917 2.2645,1.57338 0.47815,0.68085 0.63219,1.12734 0.67355,1.95228 0.0187,0.37299 0.049,0.95581 0.0672,1.29515 l 0.0332,0.61699 h -3.83354 -3.83353 z"
       id="path59-2" /><path
       style="fill:#004c86;fill-opacity:1;stroke-width:0"
       d="m 86.243892,93.84303 c -1.82513,-1.421388 -2.25641,-1.813081 -2.25641,-2.04932 0,-0.305516 1.30422,-2.153039 4.90028,-6.94163 2.53006,-3.36908 3.41406,-4.472876 3.62477,-4.526012 0.10011,-0.02524 0.25938,0.0058 0.38974,0.07604 0.50557,0.272268 4.80387,3.486603 7.00348,5.237312 0.894848,0.712226 1.004808,0.823075 1.004808,1.012944 0,0.248409 -0.19562,0.528369 -3.028878,4.33473 -3.08339,4.142409 -2.87725,3.891574 -3.23895,3.941151 -0.17025,0.02334 -1.8044,0.042 -3.63144,0.04148 l -3.32188,-9.53e-4 z"
       id="path60-3" /><path
       style="fill:#00b0b3;fill-opacity:1;stroke-width:0"
       d="m 86.208642,119.57965 -1.33975,-0.0353 -0.53793,-0.2569 c -0.29587,-0.14129 -0.66875,-0.37507 -0.82863,-0.51951 -0.35063,-0.31678 -0.88618,-1.10516 -1.03255,-1.52003 -0.13633,-0.38639 -0.26628,-4.2362 -0.23309,-6.90549 0.022,-1.76755 0.0318,-1.88591 0.18112,-2.18895 0.2431,-0.49326 0.55763,-0.75815 0.99979,-0.84201 0.23957,-0.0454 2.90645,-0.0715 7.29585,-0.0712 l 6.91826,2.7e-4 0.35257,0.265 c 0.65894,0.49528 0.63158,0.3094 0.65584,4.45588 0.0246,4.19947 -0.0216,5.03905 -0.30915,5.62684 -0.27075,0.5534 -1.12359,1.38887 -1.75961,1.72377 l -0.49624,0.26131 -4.26337,0.0207 c -2.34485,0.0114 -4.86625,0.005 -5.60311,-0.0145 z m 5.03733,-2.66187 c 0.22269,-0.1804 0.28282,-0.55701 0.2847,-1.78314 l 0.002,-1.09565 0.31087,-0.25985 c 0.1878,-0.15698 0.39716,-0.43255 0.52884,-0.69606 0.50312,-1.00683 0.11294,-2.10237 -0.94548,-2.65475 -0.29195,-0.15236 -0.44955,-0.18453 -0.91667,-0.18711 -0.71138,-0.004 -1.03132,0.10846 -1.46589,0.51495 -0.50935,0.47644 -0.64151,0.7745 -0.64511,1.45488 -0.004,0.68998 0.10695,1.02564 0.46637,1.41556 0.1517,0.16457 0.30615,0.40502 0.34324,0.53432 0.0371,0.1293 0.0676,0.67953 0.0678,1.22273 5.3e-4,1.10975 0.0671,1.45946 0.29967,1.57163 0.0871,0.042 0.46413,0.0785 0.83795,0.0811 0.54722,0.004 0.70938,-0.0193 0.83201,-0.11862 z"
       id="path61-2" /><path
       style="fill:#00b0b3;fill-opacity:1;stroke-width:0"
       d="m 85.503512,119.51686 c -0.61133,-0.0373 -0.76802,-0.0745 -1.17784,-0.28023 -0.25998,-0.13048 -0.59959,-0.34585 -0.75467,-0.4786 -0.34492,-0.29523 -0.9616,-1.20182 -1.06103,-1.55982 -0.13357,-0.48092 -0.22463,-3.19078 -0.20195,-6.00959 0.0217,-2.69457 0.0274,-2.79444 0.1742,-3.06731 0.0835,-0.15513 0.22671,-0.35193 0.31827,-0.43734 0.40166,-0.37466 0.13271,-0.36022 7.71337,-0.41418 l 7.04734,-0.0502 0.36856,0.29254 c 0.66322,0.5264 0.61862,0.16478 0.61862,5.01619 0,4.84072 0.0126,4.71784 -0.56369,5.48451 -0.35548,0.47289 -1.00488,1.03292 -1.54494,1.33232 l -0.35932,0.1992 -4.9359,0.008 c -2.71474,0.004 -5.2532,-0.0116 -5.64102,-0.0353 z m 5.80672,-2.62159 c 0.1923,-0.20641 0.22212,-0.432 0.22212,-1.68041 v -1.10356 l 0.34892,-0.33849 c 0.50554,-0.49041 0.70878,-0.93822 0.70878,-1.56176 0,-0.81428 -0.38304,-1.4177 -1.1478,-1.80821 -0.37098,-0.18943 -1.10549,-0.25005 -1.59805,-0.13189 -0.45792,0.10986 -0.98813,0.52031 -1.25201,0.96923 -0.18132,0.30846 -0.19754,0.39455 -0.19624,1.04138 0.002,0.76915 0.0188,0.82023 0.48606,1.43977 l 0.28816,0.38207 0.0735,1.33649 c 0.0917,1.66738 0.0436,1.60129 1.16557,1.60129 0.68282,0 0.7797,-0.0157 0.90102,-0.14591 z"
       id="path67-2" /></g></svg>
