<?xml version="1.0" encoding="UTF-8" standalone="no"?>
<!-- Created with Inkscape (http://www.inkscape.org/) -->

<svg
   width="44.246258mm"
   height="62.345524mm"
   viewBox="0 0 44.246258 62.345524"
   version="1.1"
   id="svg1"
   xml:space="preserve"
   xmlns="http://www.w3.org/2000/svg"
   xmlns:svg="http://www.w3.org/2000/svg"><defs
     id="defs1" /><g
     id="layer1"
     transform="translate(-73.977684,-59.974431)"><path
       style="fill:#000000;fill-opacity:0;stroke-width:0"
       d="m 82.083864,94.80941 -0.44875,-0.479228 v -8.59687 -8.596869 l 1.03382,-1.162854 c 0.56859,-0.63957 1.57567,-1.723781 2.23794,-2.409358 l 1.20413,-1.246502 h 1.32682 c 1.3263,0 1.32731,4.23e-4 2.55617,1.096922 l 1.22934,1.096922 h -1.97874 -1.97873 l -0.7664,0.847621 -0.76639,0.847622 4.88157,0.112871 c 5.50567,0.127299 16.748276,-0.0094 16.748276,-0.2037 0,-0.07006 -0.34034,-0.459713 -0.75631,-0.865896 -0.71999,-0.703049 -0.82051,-0.738518 -2.09308,-0.738518 h -1.33677 l 0.84658,-1.096162 c 0.84488,-1.093961 0.84879,-1.096164 1.94885,-1.096922 1.09975,-7.68e-4 1.10524,0.0023 2.40272,1.345462 0.71524,0.740423 1.7225,1.813557 2.23835,2.38474 l 0.93791,1.038518 -0.003,8.634343 c -0.002,4.74888 -0.0783,8.753008 -0.17026,8.898058 -0.26639,0.42014 -1.55072,0.62388 -3.96507,0.629 l -2.24371,0.005 v -3.702748 c 0,-2.15818 -0.0857,-3.86282 -0.20535,-4.08647 -0.24319,-0.45441 -1.20253,-0.98615 -1.77915,-0.98615 -0.36895,0 -0.40878,-0.12279 -0.40878,-1.26017 0,-2.4865 -1.07807,-4.45122 -3.089126,-5.629783 -3.21396,-1.883503 -7.64586,-0.240178 -8.84566,3.279923 -0.12709,0.37287 -0.23107,1.32592 -0.23107,2.11789 v 1.43995 l -0.72669,0.11787 c -0.39965,0.0649 -0.93814,0.31662 -1.19664,0.55947 -0.45888,0.43109 -0.47007,0.52449 -0.47306,3.94684 -0.002,1.92792 -0.0881,3.639918 -0.19202,3.804458 -0.1487,0.23542 -0.75365,0.31355 -2.83897,0.36666 -2.58205,0.0658 -2.66151,0.0552 -3.09874,-0.41174 z"
       id="path35-1" /><path
       style="fill:#000000;fill-opacity:0;stroke-width:0"
       d="m 82.083864,94.80941 -0.44875,-0.479228 v -8.59687 -8.596869 l 1.03382,-1.162854 c 0.56859,-0.63957 1.57567,-1.723781 2.23794,-2.409358 l 1.20413,-1.246502 h 1.32682 c 1.3263,0 1.32731,4.23e-4 2.55617,1.096922 l 1.22934,1.096922 h -1.97874 -1.97873 l -0.7664,0.847621 -0.76639,0.847622 4.88157,0.112871 c 5.50567,0.127299 16.748276,-0.0094 16.748276,-0.2037 0,-0.07006 -0.34034,-0.459713 -0.75631,-0.865896 -0.71999,-0.703049 -0.82051,-0.738518 -2.09308,-0.738518 h -1.33677 l 0.84658,-1.096162 c 0.84488,-1.093961 0.84879,-1.096164 1.94885,-1.096922 1.09975,-7.68e-4 1.10524,0.0023 2.40272,1.345462 0.71524,0.740423 1.7225,1.813557 2.23835,2.38474 l 0.93791,1.038518 -0.003,8.634343 c -0.002,4.74888 -0.0783,8.753008 -0.17026,8.898058 -0.26639,0.42014 -1.55072,0.62388 -3.96507,0.629 l -2.24371,0.005 v -3.702748 c 0,-2.15818 -0.0857,-3.86282 -0.20535,-4.08647 -0.24319,-0.45441 -1.20253,-0.98615 -1.77915,-0.98615 -0.36895,0 -0.40878,-0.12279 -0.40878,-1.26017 0,-2.4865 -1.07807,-4.45122 -3.089126,-5.629783 -3.21396,-1.883503 -7.64586,-0.240178 -8.84566,3.279923 -0.12709,0.37287 -0.23107,1.32592 -0.23107,2.11789 v 1.43995 l -0.72669,0.11787 c -0.39965,0.0649 -0.93814,0.31662 -1.19664,0.55947 -0.45888,0.43109 -0.47007,0.52449 -0.47306,3.94684 -0.002,1.92792 -0.0881,3.639918 -0.19202,3.804458 -0.1487,0.23542 -0.75365,0.31355 -2.83897,0.36666 -2.58205,0.0658 -2.66151,0.0552 -3.09874,-0.41174 z"
       id="path36-7" /><path
       style="fill:#000000;fill-opacity:0;stroke-width:0"
       d="m 82.038104,94.93965 c -0.55443,-0.613678 -0.50689,0.26824 -0.49661,-9.211778 l 0.009,-8.467175 0.19488,-0.311666 c 0.28198,-0.450975 1.03819,-1.291707 2.83311,-3.149805 l 1.58369,-1.639423 1.28114,1.72e-4 1.28113,1.72e-4 1.31965,1.174018 c 0.7258,0.645711 1.30301,1.200921 1.28269,1.233803 -0.0203,0.03288 -0.93626,0.05978 -2.03543,0.05978 h -1.99849 l -0.51038,0.546476 c -0.64089,0.686207 -0.87713,0.994476 -0.81201,1.059611 0.0714,0.0714 20.934706,0.102386 21.208286,0.0315 l 0.22332,-0.05787 -0.7631,-0.789855 -0.7631,-0.789858 h -1.40859 c -1.17586,0 -1.40234,-0.01625 -1.37084,-0.09835 0.0207,-0.05409 0.41985,-0.588838 0.88686,-1.188326 l 0.84912,-1.089978 0.47805,-0.04515 c 0.26294,-0.02483 0.7532,-0.04537 1.08947,-0.04565 l 0.61141,-5.03e-4 1.79667,1.850962 c 1.75942,1.812587 2.41874,2.527142 2.64443,2.865984 0.1731,0.259865 0.23442,3.446221 0.20982,10.901641 l -0.0212,6.41667 -0.17628,0.351378 c -0.32448,0.64678 -0.24882,0.63239 -3.46145,0.65839 l -2.79158,0.0226 -0.0466,-1.285498 c -0.0256,-0.70702 -0.048,-2.1768 -0.0497,-3.26618 -0.002,-1.08938 -0.0301,-2.21398 -0.0631,-2.49912 -0.0785,-0.67739 -0.31079,-1.01446 -0.91849,-1.33252 -0.369,-0.19313 -0.51322,-0.22917 -0.91717,-0.22917 h -0.47932 l -0.0346,-1.42788 c -0.0287,-1.18314 -0.0606,-1.51647 -0.18617,-1.94465 -0.5196,-1.77206 -1.97431,-3.34795 -3.682356,-3.989117 -1.29476,-0.486029 -2.85814,-0.529487 -4.09815,-0.113916 -1.57358,0.527353 -2.86597,1.659893 -3.58208,3.139023 -0.41602,0.85929 -0.49721,1.28994 -0.54061,2.86749 -0.043,1.56175 -0.002,1.46601 -0.62852,1.46809 -0.3482,10e-4 -0.81313,0.15544 -1.0647,0.35333 -0.23036,0.1812 -0.54636,0.61544 -0.6159,0.84635 -0.0292,0.097 -0.0735,1.77194 -0.0985,3.72218 -0.039,3.041378 -0.0605,3.555418 -0.15121,3.612708 -0.062,0.0391 -1.27753,0.0672 -2.93571,0.0679 l -2.82993,10e-4 z"
       id="path40-1" /><path
       style="fill:#000000;fill-opacity:0;stroke-width:0"
       d="m 82.038104,94.93965 c -0.55443,-0.613678 -0.50689,0.26824 -0.49661,-9.211778 l 0.009,-8.467175 0.19488,-0.311666 c 0.28198,-0.450975 1.03819,-1.291707 2.83311,-3.149805 l 1.58369,-1.639423 1.28114,1.72e-4 1.28113,1.72e-4 1.31965,1.174018 c 0.7258,0.645711 1.30301,1.200921 1.28269,1.233803 -0.0203,0.03288 -0.93626,0.05978 -2.03543,0.05978 h -1.99849 l -0.51038,0.546476 c -0.64089,0.686207 -0.87713,0.994476 -0.81201,1.059611 0.0714,0.0714 20.934706,0.102386 21.208286,0.0315 l 0.22332,-0.05787 -0.7631,-0.789855 -0.7631,-0.789858 h -1.40859 c -1.17586,0 -1.40234,-0.01625 -1.37084,-0.09835 0.0207,-0.05409 0.41985,-0.588838 0.88686,-1.188326 l 0.84912,-1.089978 0.47805,-0.04515 c 0.26294,-0.02483 0.7532,-0.04537 1.08947,-0.04565 l 0.61141,-5.03e-4 1.79667,1.850962 c 1.75942,1.812587 2.41874,2.527142 2.64443,2.865984 0.1731,0.259865 0.23442,3.446221 0.20982,10.901641 l -0.0212,6.41667 -0.17628,0.351378 c -0.32448,0.64678 -0.24882,0.63239 -3.46145,0.65839 l -2.79158,0.0226 -0.0466,-1.285498 c -0.0256,-0.70702 -0.048,-2.1768 -0.0497,-3.26618 -0.002,-1.08938 -0.0301,-2.21398 -0.0631,-2.49912 -0.0785,-0.67739 -0.31079,-1.01446 -0.91849,-1.33252 -0.369,-0.19313 -0.51322,-0.22917 -0.91717,-0.22917 h -0.47932 l -0.0346,-1.42788 c -0.0287,-1.18314 -0.0606,-1.51647 -0.18617,-1.94465 -0.5196,-1.77206 -1.97431,-3.34795 -3.682356,-3.989117 -1.29476,-0.486029 -2.85814,-0.529487 -4.09815,-0.113916 -1.57358,0.527353 -2.86597,1.659893 -3.58208,3.139023 -0.41602,0.85929 -0.49721,1.28994 -0.54061,2.86749 -0.043,1.56175 -0.002,1.46601 -0.62852,1.46809 -0.3482,10e-4 -0.81313,0.15544 -1.0647,0.35333 -0.23036,0.1812 -0.54636,0.61544 -0.6159,0.84635 -0.0292,0.097 -0.0735,1.77194 -0.0985,3.72218 -0.039,3.041378 -0.0605,3.555418 -0.15121,3.612708 -0.062,0.0391 -1.27753,0.0672 -2.93571,0.0679 l -2.82993,10e-4 z"
       id="path41-1" /><path
       style="fill:#000000;fill-opacity:0;stroke-width:0"
       d="m 82.038104,94.93965 c -0.55443,-0.613678 -0.50689,0.26824 -0.49661,-9.211778 l 0.009,-8.467175 0.19488,-0.311666 c 0.28198,-0.450975 1.03819,-1.291707 2.83311,-3.149805 l 1.58369,-1.639423 1.28114,1.72e-4 1.28113,1.72e-4 1.31965,1.174018 c 0.7258,0.645711 1.30301,1.200921 1.28269,1.233803 -0.0203,0.03288 -0.93626,0.05978 -2.03543,0.05978 h -1.99849 l -0.51038,0.546476 c -0.64089,0.686207 -0.87713,0.994476 -0.81201,1.059611 0.0714,0.0714 20.934706,0.102386 21.208286,0.0315 l 0.22332,-0.05787 -0.7631,-0.789855 -0.7631,-0.789858 h -1.40859 c -1.17586,0 -1.40234,-0.01625 -1.37084,-0.09835 0.0207,-0.05409 0.41985,-0.588838 0.88686,-1.188326 l 0.84912,-1.089978 0.47805,-0.04515 c 0.26294,-0.02483 0.7532,-0.04537 1.08947,-0.04565 l 0.61141,-5.03e-4 1.79667,1.850962 c 1.75942,1.812587 2.41874,2.527142 2.64443,2.865984 0.1731,0.259865 0.23442,3.446221 0.20982,10.901641 l -0.0212,6.41667 -0.17628,0.351378 c -0.32448,0.64678 -0.24882,0.63239 -3.46145,0.65839 l -2.79158,0.0226 -0.0466,-1.285498 c -0.0256,-0.70702 -0.048,-2.1768 -0.0497,-3.26618 -0.002,-1.08938 -0.0301,-2.21398 -0.0631,-2.49912 -0.0785,-0.67739 -0.31079,-1.01446 -0.91849,-1.33252 -0.369,-0.19313 -0.51322,-0.22917 -0.91717,-0.22917 h -0.47932 l -0.0346,-1.42788 c -0.0287,-1.18314 -0.0606,-1.51647 -0.18617,-1.94465 -0.5196,-1.77206 -1.97431,-3.34795 -3.682356,-3.989117 -1.29476,-0.486029 -2.85814,-0.529487 -4.09815,-0.113916 -1.57358,0.527353 -2.86597,1.659893 -3.58208,3.139023 -0.41602,0.85929 -0.49721,1.28994 -0.54061,2.86749 -0.043,1.56175 -0.002,1.46601 -0.62852,1.46809 -0.3482,10e-4 -0.81313,0.15544 -1.0647,0.35333 -0.23036,0.1812 -0.54636,0.61544 -0.6159,0.84635 -0.0292,0.097 -0.0735,1.77194 -0.0985,3.72218 -0.039,3.041378 -0.0605,3.555418 -0.15121,3.612708 -0.062,0.0391 -1.27753,0.0672 -2.93571,0.0679 l -2.82993,10e-4 z"
       id="path42-5" /><path
       style="fill:#002255;fill-opacity:0;stroke-width:0"
       d="m 82.038104,94.93965 c -0.55443,-0.613678 -0.50689,0.26824 -0.49661,-9.211778 l 0.009,-8.467175 0.19488,-0.311666 c 0.28198,-0.450975 1.03819,-1.291707 2.83311,-3.149805 l 1.58369,-1.639423 1.28114,1.72e-4 1.28113,1.72e-4 1.31965,1.174018 c 0.7258,0.645711 1.30301,1.200921 1.28269,1.233803 -0.0203,0.03288 -0.93626,0.05978 -2.03543,0.05978 h -1.99849 l -0.51038,0.546476 c -0.64089,0.686207 -0.87713,0.994476 -0.81201,1.059611 0.0714,0.0714 20.934706,0.102386 21.208286,0.0315 l 0.22332,-0.05787 -0.7631,-0.789855 -0.7631,-0.789858 h -1.40859 c -1.17586,0 -1.40234,-0.01625 -1.37084,-0.09835 0.0207,-0.05409 0.41985,-0.588838 0.88686,-1.188326 l 0.84912,-1.089978 0.47805,-0.04515 c 0.26294,-0.02483 0.7532,-0.04537 1.08947,-0.04565 l 0.61141,-5.03e-4 1.79667,1.850962 c 1.75942,1.812587 2.41874,2.527142 2.64443,2.865984 0.1731,0.259865 0.23442,3.446221 0.20982,10.901641 l -0.0212,6.41667 -0.17628,0.351378 c -0.32448,0.64678 -0.24882,0.63239 -3.46145,0.65839 l -2.79158,0.0226 -0.0466,-1.285498 c -0.0256,-0.70702 -0.048,-2.1768 -0.0497,-3.26618 -0.002,-1.08938 -0.0301,-2.21398 -0.0631,-2.49912 -0.0785,-0.67739 -0.31079,-1.01446 -0.91849,-1.33252 -0.369,-0.19313 -0.51322,-0.22917 -0.91717,-0.22917 h -0.47932 l -0.0346,-1.42788 c -0.0287,-1.18314 -0.0606,-1.51647 -0.18617,-1.94465 -0.5196,-1.77206 -1.97431,-3.34795 -3.682356,-3.989117 -1.29476,-0.486029 -2.85814,-0.529487 -4.09815,-0.113916 -1.57358,0.527353 -2.86597,1.659893 -3.58208,3.139023 -0.41602,0.85929 -0.49721,1.28994 -0.54061,2.86749 -0.043,1.56175 -0.002,1.46601 -0.62852,1.46809 -0.3482,10e-4 -0.81313,0.15544 -1.0647,0.35333 -0.23036,0.1812 -0.54636,0.61544 -0.6159,0.84635 -0.0292,0.097 -0.0735,1.77194 -0.0985,3.72218 -0.039,3.041378 -0.0605,3.555418 -0.15121,3.612708 -0.062,0.0391 -1.27753,0.0672 -2.93571,0.0679 l -2.82993,10e-4 z"
       id="path43-2" /><path
       style="fill:#000000;fill-opacity:0;stroke-width:0"
       d="m 82.038104,94.93965 c -0.55443,-0.613678 -0.50689,0.26824 -0.49661,-9.211778 l 0.009,-8.467175 0.19488,-0.311666 c 0.28198,-0.450975 1.03819,-1.291707 2.83311,-3.149805 l 1.58369,-1.639423 1.28114,1.72e-4 1.28113,1.72e-4 1.31965,1.174018 c 0.7258,0.645711 1.30301,1.200921 1.28269,1.233803 -0.0203,0.03288 -0.93626,0.05978 -2.03543,0.05978 h -1.99849 l -0.51038,0.546476 c -0.64089,0.686207 -0.87713,0.994476 -0.81201,1.059611 0.0714,0.0714 20.934706,0.102386 21.208286,0.0315 l 0.22332,-0.05787 -0.7631,-0.789855 -0.7631,-0.789858 h -1.40859 c -1.17586,0 -1.40234,-0.01625 -1.37084,-0.09835 0.0207,-0.05409 0.41985,-0.588838 0.88686,-1.188326 l 0.84912,-1.089978 0.47805,-0.04515 c 0.26294,-0.02483 0.7532,-0.04537 1.08947,-0.04565 l 0.61141,-5.03e-4 1.79667,1.850962 c 1.75942,1.812587 2.41874,2.527142 2.64443,2.865984 0.1731,0.259865 0.23442,3.446221 0.20982,10.901641 l -0.0212,6.41667 -0.17628,0.351378 c -0.32448,0.64678 -0.24882,0.63239 -3.46145,0.65839 l -2.79158,0.0226 -0.0466,-1.285498 c -0.0256,-0.70702 -0.048,-2.1768 -0.0497,-3.26618 -0.002,-1.08938 -0.0301,-2.21398 -0.0631,-2.49912 -0.0785,-0.67739 -0.31079,-1.01446 -0.91849,-1.33252 -0.369,-0.19313 -0.51322,-0.22917 -0.91717,-0.22917 h -0.47932 l -0.0346,-1.42788 c -0.0287,-1.18314 -0.0606,-1.51647 -0.18617,-1.94465 -0.5196,-1.77206 -1.97431,-3.34795 -3.682356,-3.989117 -1.29476,-0.486029 -2.85814,-0.529487 -4.09815,-0.113916 -1.57358,0.527353 -2.86597,1.659893 -3.58208,3.139023 -0.41602,0.85929 -0.49721,1.28994 -0.54061,2.86749 -0.043,1.56175 -0.002,1.46601 -0.62852,1.46809 -0.3482,10e-4 -0.81313,0.15544 -1.0647,0.35333 -0.23036,0.1812 -0.54636,0.61544 -0.6159,0.84635 -0.0292,0.097 -0.0735,1.77194 -0.0985,3.72218 -0.039,3.041378 -0.0605,3.555418 -0.15121,3.612708 -0.062,0.0391 -1.27753,0.0672 -2.93571,0.0679 l -2.82993,10e-4 z"
       id="path44-7" /><path
       style="fill:#000000;fill-opacity:0;stroke-width:0"
       d="m 92.356444,73.445184 c -1.79317,-1.395629 -2.18631,-1.754972 -2.18631,-1.998346 0,-0.300809 1.25591,-2.081596 4.79378,-6.797254 2.60827,-3.476579 3.51647,-4.612413 3.73127,-4.666499 0.10002,-0.02518 0.25946,0.0059 0.38967,0.07606 0.51334,0.276451 4.770266,3.45984 7.003546,5.237351 0.89485,0.712226 1.00481,0.823075 1.00481,1.012944 0,0.24659 -0.17412,0.496294 -2.99775,4.299079 -3.00586,4.048191 -2.9048,3.925321 -3.27011,3.976157 -0.17023,0.02369 -1.804366,0.04241 -3.631406,0.0416 l -3.32188,-0.0015 z"
       id="path45-6" /><path
       style="fill:#000000;fill-opacity:0;stroke-width:0"
       d="m 92.356444,73.445184 c -1.79317,-1.395629 -2.18631,-1.754972 -2.18631,-1.998346 0,-0.300809 1.25591,-2.081596 4.79378,-6.797254 2.60827,-3.476579 3.51647,-4.612413 3.73127,-4.666499 0.10002,-0.02518 0.25946,0.0059 0.38967,0.07606 0.51334,0.276451 4.770266,3.45984 7.003546,5.237351 0.89485,0.712226 1.00481,0.823075 1.00481,1.012944 0,0.24659 -0.17412,0.496294 -2.99775,4.299079 -3.00586,4.048191 -2.9048,3.925321 -3.27011,3.976157 -0.17023,0.02369 -1.804366,0.04241 -3.631406,0.0416 l -3.32188,-0.0015 z"
       id="path46-1" /><path
       style="fill:#004c86;fill-opacity:1;stroke-width:0"
       d="m 82.027254,94.92765 c -0.53621,-0.593528 -0.49605,0.17099 -0.48533,-9.237868 l 0.01,-8.434763 0.2479,-0.379339 c 0.31505,-0.482086 0.88719,-1.114589 2.81478,-3.111711 l 1.54831,-1.604166 1.28105,2.91e-4 1.28105,2.91e-4 1.31902,1.174921 c 0.72546,0.646207 1.30268,1.201369 1.2827,1.233694 -0.02,0.03232 -0.93474,0.05877 -2.03282,0.05877 h -1.99648 l -0.48556,0.511197 c -0.60835,0.640492 -0.9067,1.028983 -0.84083,1.094869 0.0714,0.0714 20.934706,0.102386 21.208286,0.0315 l 0.22332,-0.05787 -0.7631,-0.789855 -0.7631,-0.789858 h -1.40859 c -1.19986,0 -1.40278,-0.01511 -1.36945,-0.101982 0.0215,-0.05609 0.42238,-0.591003 0.89079,-1.188692 l 0.85164,-1.086709 0.47413,-0.04478 c 0.26078,-0.02463 0.74926,-0.04501 1.08552,-0.04528 l 0.61137,-5.03e-4 1.76049,1.815705 c 1.76339,1.81869 2.47436,2.587701 2.67982,2.898571 0.17104,0.258797 0.2365,3.658009 0.21133,10.974829 l -0.0218,6.34615 -0.17628,0.352568 c -0.12927,0.25854 -0.25149,0.39017 -0.45833,0.49358 -0.2651,0.13255 -0.44773,0.14235 -3.03838,0.16304 l -2.75633,0.022 -0.0464,-1.326498 c -0.0255,-0.72957 -0.0478,-2.19909 -0.0497,-3.2656 -0.005,-3.06165 -0.0721,-3.32165 -0.97569,-3.78939 -0.37352,-0.19336 -0.52007,-0.22984 -0.9233,-0.22984 h -0.47932 l -0.0346,-1.42788 c -0.0287,-1.18314 -0.0606,-1.51646 -0.18618,-1.94465 -0.5196,-1.77205 -1.97431,-3.34794 -3.682356,-3.989113 -1.29476,-0.486029 -2.85814,-0.529487 -4.09815,-0.113916 -1.58087,0.529799 -2.86844,1.658709 -3.5802,3.139019 -0.43303,0.90062 -0.49781,1.23907 -0.54214,2.83238 -0.0446,1.60157 -0.003,1.50113 -0.62887,1.5032 -0.3482,0.001 -0.81313,0.15545 -1.0647,0.35334 -0.23036,0.18119 -0.54636,0.61543 -0.6159,0.84634 -0.0292,0.097 -0.0735,1.77194 -0.0985,3.72219 -0.039,3.041368 -0.0605,3.555408 -0.15121,3.612698 -0.062,0.0391 -1.27753,0.0672 -2.93571,0.0679 l -2.82993,10e-4 z"
       id="path58-4" /><path
       style="fill:#004c86;fill-opacity:1;stroke-width:0"
       d="m 92.898824,85.504352 c 0.0396,-1.37824 0.10387,-1.7713 0.37891,-2.31654 0.40358,-0.80008 1.23481,-1.5466 2.11035,-1.89527 0.40058,-0.15953 1.5963,-0.22501 2.10737,-0.11541 0.86798,0.18615 1.69271,0.75917 2.2645,1.57338 0.478146,0.68085 0.632186,1.12734 0.673546,1.95228 0.0187,0.37299 0.049,0.95581 0.0672,1.29515 l 0.0332,0.61699 h -3.833536 -3.83353 z"
       id="path59-2" /><path
       style="fill:#004c86;fill-opacity:1;stroke-width:0"
       d="m 92.426544,73.500112 c -1.82513,-1.421388 -2.25641,-1.813081 -2.25641,-2.04932 0,-0.305516 1.30422,-2.153039 4.90028,-6.94163 2.53006,-3.36908 3.41406,-4.472876 3.62477,-4.526012 0.10011,-0.02524 0.25938,0.0058 0.38974,0.07604 0.50557,0.272268 4.803866,3.486603 7.003476,5.237312 0.89485,0.712226 1.00481,0.823075 1.00481,1.012944 0,0.248409 -0.19562,0.528369 -3.02888,4.33473 -3.08339,4.142409 -2.87725,3.891574 -3.23895,3.941151 -0.17025,0.02334 -1.804396,0.042 -3.631436,0.04148 l -3.32188,-9.53e-4 z"
       id="path60-3" /><path
       style="fill:#00b0b3;fill-opacity:1;stroke-width:0"
       d="m 92.391294,99.23673 -1.33975,-0.0353 -0.53793,-0.2569 c -0.29587,-0.14129 -0.66875,-0.37507 -0.82863,-0.51951 -0.35063,-0.31678 -0.88618,-1.10516 -1.03255,-1.52003 -0.13633,-0.38639 -0.26628,-4.236198 -0.23309,-6.905488 0.022,-1.76755 0.0318,-1.88591 0.18112,-2.18895 0.2431,-0.49326 0.55763,-0.75815 0.99979,-0.84201 0.23957,-0.0454 2.90645,-0.0715 7.29585,-0.0712 l 6.918256,2.7e-4 0.35257,0.265 c 0.65894,0.49528 0.63158,0.3094 0.65584,4.45588 0.0246,4.199468 -0.0216,5.039048 -0.30915,5.626838 -0.27075,0.5534 -1.12359,1.38887 -1.75961,1.72377 l -0.49624,0.26131 -4.263366,0.0207 c -2.34485,0.0114 -4.86625,0.005 -5.60311,-0.0145 z m 5.03733,-2.66187 c 0.22269,-0.1804 0.28282,-0.55701 0.2847,-1.78314 l 0.002,-1.095648 0.31087,-0.25985 c 0.1878,-0.15698 0.39716,-0.43255 0.52884,-0.69606 0.50312,-1.00683 0.11294,-2.10237 -0.94548,-2.65475 -0.29195,-0.15236 -0.44955,-0.18453 -0.91667,-0.18711 -0.71138,-0.004 -1.03132,0.10846 -1.46589,0.51495 -0.50935,0.47644 -0.64151,0.7745 -0.64511,1.45488 -0.004,0.68998 0.10695,1.02564 0.46637,1.41556 0.1517,0.16457 0.30615,0.40502 0.34324,0.53432 0.0371,0.1293 0.0676,0.679528 0.0678,1.222728 5.3e-4,1.10975 0.0671,1.45946 0.29967,1.57163 0.0871,0.042 0.46413,0.0785 0.83795,0.0811 0.54722,0.004 0.70938,-0.0193 0.83201,-0.11862 z"
       id="path61-2" /><path
       style="fill:#00b0b3;fill-opacity:1;stroke-width:0"
       d="m 91.686164,99.17394 c -0.61133,-0.0373 -0.76802,-0.0745 -1.17784,-0.28023 -0.25998,-0.13048 -0.59959,-0.34585 -0.75467,-0.4786 -0.34492,-0.29523 -0.9616,-1.20182 -1.06103,-1.55982 -0.13357,-0.48092 -0.22463,-3.190778 -0.20195,-6.009588 0.0217,-2.69457 0.0274,-2.79444 0.1742,-3.06731 0.0835,-0.15513 0.22671,-0.35193 0.31827,-0.43734 0.40166,-0.37466 0.13271,-0.36022 7.71337,-0.41418 l 7.047336,-0.0502 0.36856,0.29254 c 0.66322,0.5264 0.61862,0.16478 0.61862,5.01619 0,4.840718 0.0126,4.717838 -0.56369,5.484508 -0.35548,0.47289 -1.00488,1.03292 -1.54494,1.33232 l -0.35932,0.1992 -4.935896,0.008 c -2.71474,0.004 -5.2532,-0.0116 -5.64102,-0.0353 z m 5.80672,-2.62159 c 0.1923,-0.20641 0.22212,-0.432 0.22212,-1.68041 v -1.103558 l 0.34892,-0.33849 c 0.50554,-0.49041 0.70878,-0.93822 0.70878,-1.56176 0,-0.81428 -0.38304,-1.4177 -1.1478,-1.80821 -0.37098,-0.18943 -1.10549,-0.25005 -1.59805,-0.13189 -0.45792,0.10986 -0.98813,0.52031 -1.25201,0.96923 -0.18132,0.30846 -0.19754,0.39455 -0.19624,1.04138 0.002,0.76915 0.0188,0.82023 0.48606,1.43977 l 0.28816,0.38207 0.0735,1.336488 c 0.0917,1.66738 0.0436,1.60129 1.16557,1.60129 0.68282,0 0.7797,-0.0157 0.90102,-0.14591 z"
       id="path67-2" /><path
       style="fill:#00b0b3;fill-opacity:1;stroke-width:0"
       d="m 77.651166,122.23151 c -0.73459,-0.10311 -1.48617,-0.41981 -2.093603,-0.88228 -0.550484,-0.41912 -0.941194,-0.94263 -1.260818,-1.68939 -0.284294,-0.66421 -0.337911,-1.04844 -0.313987,-2.25013 0.01935,-0.97168 0.03014,-1.07188 0.152069,-1.40987 0.492988,-1.36671 1.350312,-2.2497 2.701276,-2.78221 0.686399,-0.27055 1.783758,-0.3383 2.546306,-0.15718 1.088996,0.25863 2.000805,0.92715 2.462234,1.80524 0.197998,0.3768 0.295374,0.82594 0.192806,0.88933 -0.08919,0.0552 -1.048774,0.23085 -1.260588,0.23085 -0.17776,0 -0.208356,-0.0228 -0.40177,-0.29845 -0.563287,-0.80303 -1.486341,-1.21059 -2.430191,-1.07303 -0.558434,0.0815 -0.907874,0.26281 -1.329468,0.69022 -0.61459,0.62304 -0.850121,1.25142 -0.850121,2.26806 0,0.98898 0.236977,1.6502 0.793068,2.21282 0.631847,0.63929 1.004526,0.80577 1.794983,0.80187 0.40596,-0.001 0.596262,-0.0272 0.818525,-0.10806 0.397673,-0.14474 0.809801,-0.42875 1.061262,-0.73133 0.401014,-0.48257 0.468523,-0.53817 0.653387,-0.53817 0.210186,0 0.622908,0.0751 0.980465,0.17832 0.255553,0.0738 0.264468,0.0825 0.264468,0.25667 0,0.42026 -0.587517,1.30255 -1.171785,1.75971 -0.412198,0.32253 -1.0306,0.63432 -1.490776,0.75166 -0.383683,0.0979 -1.36685,0.13861 -1.817742,0.0753 z"
       id="path38-5" /><path
       style="fill:#00b0b3;fill-opacity:1;stroke-width:0"
       d="m 77.651166,122.23151 c -0.73459,-0.10311 -1.48617,-0.41981 -2.093603,-0.88228 -0.550484,-0.41912 -0.941194,-0.94263 -1.260818,-1.68939 -0.284294,-0.66421 -0.337911,-1.04844 -0.313987,-2.25013 0.01935,-0.97168 0.03014,-1.07188 0.152069,-1.40987 0.492988,-1.36671 1.350312,-2.2497 2.701276,-2.78221 0.686399,-0.27055 1.783758,-0.3383 2.546306,-0.15718 1.088996,0.25863 2.000805,0.92715 2.462234,1.80524 0.197998,0.3768 0.295374,0.82594 0.192806,0.88933 -0.08919,0.0552 -1.048774,0.23085 -1.260588,0.23085 -0.17776,0 -0.208356,-0.0228 -0.40177,-0.29845 -0.563287,-0.80303 -1.486341,-1.21059 -2.430191,-1.07303 -0.558434,0.0815 -0.907874,0.26281 -1.329468,0.69022 -0.61459,0.62304 -0.850121,1.25142 -0.850121,2.26806 0,0.98898 0.236977,1.6502 0.793068,2.21282 0.631847,0.63929 1.004526,0.80577 1.794983,0.80187 0.40596,-0.001 0.596262,-0.0272 0.818525,-0.10806 0.397673,-0.14474 0.809801,-0.42875 1.061262,-0.73133 0.401014,-0.48257 0.468523,-0.53817 0.653387,-0.53817 0.210186,0 0.622908,0.0751 0.980465,0.17832 0.255553,0.0738 0.264468,0.0825 0.264468,0.25667 0,0.42026 -0.587517,1.30255 -1.171785,1.75971 -0.412198,0.32253 -1.0306,0.63432 -1.490776,0.75166 -0.383683,0.0979 -1.36685,0.13861 -1.817742,0.0753 z"
       id="path39-7" /><path
       style="fill:#000000;fill-opacity:0;stroke-width:0"
       d="m 76.615432,110.09195 c -0.712176,-0.10707 -1.251366,-0.37661 -1.800081,-0.8997 -0.425622,-0.40575 -0.606053,-0.70894 -0.699189,-1.17487 -0.113548,-0.56806 -0.03198,-0.62452 0.952992,-0.65967 l 0.619837,-0.0221 0.118513,0.23219 c 0.376469,0.73759 0.682069,0.9202 1.595458,0.95335 0.696494,0.0253 1.002857,-0.053 1.317581,-0.33708 0.351177,-0.31687 0.434325,-0.73274 0.230633,-1.1535 -0.198347,-0.40974 -0.523456,-0.57087 -2.058681,-1.02037 -1.18403,-0.34667 -1.607991,-0.55375 -2.007081,-0.98039 -0.170791,-0.18257 -0.367287,-0.44395 -0.436658,-0.58085 -0.261653,-0.51636 -0.290735,-1.57735 -0.05721,-2.08742 0.150774,-0.32934 0.691231,-0.90708 1.047763,-1.12006 0.626613,-0.37431 1.614084,-0.56467 2.442401,-0.47084 0.939629,0.10645 1.654212,0.42405 2.210157,0.98233 0.430682,0.43249 0.600089,0.75185 0.602317,1.13548 0.0016,0.27244 -0.0017,0.27866 -0.194044,0.37259 -0.207719,0.10142 -1.015354,0.17318 -1.259476,0.11188 -0.0826,-0.0208 -0.190922,-0.12857 -0.299315,-0.29803 -0.362172,-0.56616 -0.65126,-0.70879 -1.444353,-0.71261 -0.536064,-0.003 -0.600841,0.008 -0.867749,0.13885 -0.339338,0.16663 -0.496418,0.36379 -0.530459,0.66581 -0.08286,0.73513 0.283291,1.0045 2.05308,1.51044 1.253263,0.35829 1.726784,0.5823 2.170721,1.02692 0.381742,0.38233 0.524055,0.69154 0.602298,1.30866 0.05366,0.42329 5.67e-4,1.00376 -0.123689,1.35428 -0.292042,0.82325 -1.361752,1.56895 -2.473022,1.72397 -0.403608,0.0563 -1.340621,0.0567 -1.712742,7.8e-4 z"
       id="path47-6" /><path
       style="fill:#000000;fill-opacity:0;stroke-width:0"
       d="m 82.686803,110.19165 c -0.281708,-0.0662 -0.33971,-0.18381 -0.378272,-0.76665 -0.04778,-0.72213 -0.0081,-8.3553 0.04404,-8.4648 0.02344,-0.0493 0.09096,-0.11618 0.150033,-0.14873 0.148388,-0.0817 1.404687,-0.11638 1.642054,-0.0453 0.320833,0.0961 0.327392,0.1339 0.344375,1.9837 l 0.01513,1.64976 h 1.91169 1.911687 l 7.8e-5,-1.62457 c 7e-5,-1.44662 0.0098,-1.64366 0.08816,-1.79869 0.06392,-0.12633 0.136447,-0.18647 0.26439,-0.21919 0.238289,-0.061 1.459145,-0.0198 1.592495,0.0537 0.0669,0.0369 0.118159,0.12955 0.137975,0.24949 0.04387,0.26549 0.03494,5.56547 -0.01245,7.36959 -0.0396,1.50832 -0.06096,1.66107 -0.243172,1.73865 -0.162894,0.0693 -1.235982,0.0888 -1.46608,0.0267 -0.354628,-0.0959 -0.361406,-0.13465 -0.361406,-2.06633 v -1.66399 h -1.932244 -1.932257 l -0.02569,1.64978 c -0.02952,1.89639 -0.0451,1.98258 -0.375042,2.07419 -0.222364,0.0618 -1.116921,0.0635 -1.375524,0.003 z m 0.792189,-0.084 c -0.04849,-0.0127 -0.127834,-0.0127 -0.176311,0 -0.04849,0.0127 -0.0088,0.023 0.08816,0.023 0.09697,0 0.136646,-0.01 0.08816,-0.023 z m 6.523531,-0.0468 c 0.07619,-0.015 0.138526,-0.0461 0.138526,-0.0692 0,-0.0231 -0.06233,-0.0218 -0.138526,0.003 -0.07619,0.0247 -0.274543,0.0668 -0.440779,0.0935 l -0.302248,0.0486 0.302248,-0.0245 c 0.166236,-0.0141 0.364586,-0.0366 0.440779,-0.0516 z m -7.06506,-0.0163 c -0.09697,-0.0197 -0.227314,-0.0526 -0.289654,-0.0731 -0.06233,-0.0205 -0.113336,-0.0238 -0.113336,-0.007 0,0.0553 0.224334,0.12136 0.402997,0.11867 l 0.176313,-0.003 z m 1.177013,-0.057 c 0.073,-0.0574 0.132727,-0.12941 0.132727,-0.15989 0,-0.0306 -0.05519,-0.004 -0.122643,0.0597 -0.06745,0.0634 -0.197798,0.13295 -0.289652,0.15474 l -0.167012,0.0395 0.156927,0.006 c 0.08915,0.003 0.214247,-0.0399 0.289653,-0.0993 z m 4.981301,0.0689 c -0.06233,-0.0113 -0.164348,-0.0113 -0.226686,0 -0.06235,0.0113 -0.01132,0.0218 0.113336,0.0218 0.12468,0 0.175682,-0.01 0.113336,-0.0218 z m -0.450665,-0.0751 c -0.06991,-0.0338 -0.117933,-0.11131 -0.130465,-0.21069 -0.01897,-0.15033 -0.02018,-0.14913 -0.02789,0.0274 -0.0079,0.18164 0.03573,0.23492 0.193438,0.2361 0.04461,3.8e-4 0.03025,-0.0214 -0.03508,-0.0529 z m -6.212294,-2.68514 -0.02608,-2.61949 -0.01174,2.5985 c -0.0064,1.42917 0.0034,2.6136 0.0219,2.63207 0.01847,0.0185 0.03547,0.0279 0.03778,0.0209 0.0023,-0.007 -0.0075,-1.19136 -0.0219,-2.63207 z m 7.742961,2.35501 c -0.01273,-0.0485 -0.02304,-0.008 -0.02304,0.0881 0,0.097 0.01032,0.13663 0.02304,0.0881 0.01273,-0.0485 0.01273,-0.12786 0,-0.17631 z m -3.81287,-3.28695 h 2.063987 l 0.014,1.59939 0.014,1.59941 0.01188,-1.6246 0.01188,-1.62458 h -2.11574 -2.115741 l 0.01188,1.72535 0.01188,1.72533 0.014,-1.70016 0.014,-1.70014 z m 3.866005,2.02988 c -0.0095,-0.21598 -0.01727,-0.0526 -0.01733,0.36292 -7.2e-5,0.41558 0.0076,0.59231 0.0172,0.39271 0.0095,-0.19961 0.0096,-0.53963 1.28e-4,-0.75563 z m 0.05059,-2.9744 c -0.0083,-0.46408 -0.01512,-0.0844 -0.01512,0.84377 0,0.92815 0.0068,1.30786 0.01512,0.84378 0.0083,-0.46408 0.0083,-1.22349 0,-1.68755 z m -7.861745,-0.87842 c -0.01608,-0.0402 -0.02802,-0.0283 -0.03044,0.0304 -0.0023,0.053 0.0098,0.0829 0.02646,0.0662 0.01673,-0.0167 0.01853,-0.0602 0.004,-0.0966 z m 5.040845,-0.0283 c -0.547197,-0.008 -1.442608,-0.008 -1.989803,0 -0.547196,0.009 -0.09949,0.0149 0.994901,0.0149 1.094391,0 1.542098,-0.007 0.994902,-0.0149 z m -3.12335,-2.19131 c -0.0085,-0.39481 -0.01547,-0.0718 -0.01547,0.71784 0,0.78964 0.0069,1.11266 0.01547,0.71784 0.0085,-0.3948 0.0085,-1.04086 0,-1.43568 z m 5.994591,-0.20464 c -0.0083,-0.42079 -0.01529,-0.0623 -0.01528,0.79655 2.2e-5,0.85889 0.0069,1.20317 0.0153,0.76507 0.0083,-0.43811 0.0083,-1.14083 -4e-5,-1.56162 z m -7.908879,0.68594 c -0.0089,-0.29934 -0.01625,-0.0682 -0.01629,0.51361 -4.1e-5,0.58183 0.0072,0.82675 0.01622,0.54426 0.0089,-0.28248 0.0091,-0.75853 7.6e-5,-1.05787 z m 0.137451,-1.80363 c 0.03467,-0.0847 0.03001,-0.0903 -0.02914,-0.0354 -0.05091,0.0473 -0.07222,0.21458 -0.077,0.60449 l -0.0066,0.53913 0.03576,-0.50375 c 0.01966,-0.27706 0.05431,-0.54908 0.077,-0.60449 z m 1.725298,0.16462 c -0.01117,-0.0905 -0.02062,-0.0286 -0.02089,0.13763 -3.79e-4,0.16624 0.0089,0.24032 0.02038,0.16462 0.01146,-0.0757 0.01174,-0.2117 5.67e-4,-0.30225 z m 5.966077,-0.20197 c -0.07919,-0.0792 -0.452591,-0.13505 -0.864361,-0.12931 -0.372135,0.005 -0.370228,0.006 0.126957,0.0411 0.669888,0.0476 0.727593,0.0685 0.736961,0.26746 l 0.0075,0.16033 0.02157,-0.14467 c 0.01188,-0.0796 -9.29e-4,-0.16729 -0.02868,-0.19493 z m -1.668934,0.0625 c 0.05987,-0.1152 0.0583,-0.12004 -0.01836,-0.0568 -0.0461,0.038 -0.08382,0.10414 -0.08382,0.14693 0,0.0915 0.0144,0.0787 0.102176,-0.0901 z m -4.36303,-0.0999 c -0.02724,-0.0272 -0.320801,-0.0599 -0.652356,-0.0727 l -0.602822,-0.0231 0.554122,0.0464 c 0.304768,0.0255 0.588125,0.0556 0.629683,0.0668 0.04156,0.0112 0.08577,0.023 0.09823,0.0262 0.01245,0.003 3.79e-4,-0.0165 -0.02686,-0.0437 z m -1.367563,-0.0339 c -0.0341,-0.0139 -0.10212,-0.0146 -0.151124,-0.002 -0.04902,0.0127 -0.02112,0.0241 0.06201,0.0251 0.08312,0.001 0.123223,-0.01 0.08912,-0.0232 z m 6.0692,-0.002 c -0.04849,-0.0127 -0.12782,-0.0127 -0.176313,0 -0.04848,0.0127 -0.0088,0.023 0.08816,0.023 0.09697,0 0.136646,-0.0103 0.08816,-0.023 z"
       id="path48-1" /><path
       style="fill:#002255;fill-opacity:0;stroke-width:0"
       d="m 82.921711,110.03945 c -0.133336,-0.0224 -0.299722,-0.0782 -0.369736,-0.12418 l -0.127296,-0.0834 0.01737,-4.29033 c 0.01495,-3.69284 0.02791,-4.31137 0.09308,-4.44145 0.06697,-0.13367 0.111469,-0.15622 0.385257,-0.19526 0.453585,-0.0647 1.258851,0.004 1.305195,0.11152 0.01987,0.0461 0.04694,0.84688 0.06017,1.77961 0.02379,1.67769 0.02519,1.69618 0.131271,1.72465 0.05898,0.0158 0.996974,0.0291 2.08444,0.0294 l 1.977209,6.8e-4 v -1.62967 c 0,-1.76613 0.01924,-1.9224 0.244314,-1.98421 0.175427,-0.0482 1.204267,-0.0488 1.375126,-8.6e-4 0.123463,0.0347 0.136079,0.0643 0.169639,0.39845 0.07194,0.71634 -0.06307,8.34763 -0.151556,8.56667 -0.01917,0.0474 -0.08375,0.1024 -0.143528,0.12206 -0.174426,0.0574 -1.051701,0.0392 -1.249166,-0.026 -0.169913,-0.056 -0.182717,-0.0755 -0.212384,-0.32248 -0.01737,-0.14456 -0.03177,-0.95987 -0.03201,-1.81184 l -3.79e-4,-1.54903 h -2.115718 -2.11574 v 1.70993 c 0,1.70077 -5.67e-4,1.71065 -0.113336,1.84133 -0.179307,0.20785 -0.628169,0.27237 -1.212154,0.17428 z"
       id="path49-8" /><path
       style="fill:#002255;fill-opacity:0;stroke-width:0"
       d="m 82.921711,110.03945 c -0.133336,-0.0224 -0.299722,-0.0782 -0.369736,-0.12418 l -0.127296,-0.0834 0.01737,-4.29033 c 0.01495,-3.69284 0.02791,-4.31137 0.09308,-4.44145 0.06697,-0.13367 0.111469,-0.15622 0.385257,-0.19526 0.453585,-0.0647 1.258851,0.004 1.305195,0.11152 0.01987,0.0461 0.04694,0.84688 0.06017,1.77961 0.02379,1.67769 0.02519,1.69618 0.131271,1.72465 0.05898,0.0158 0.996974,0.0291 2.08444,0.0294 l 1.977209,6.8e-4 v -1.62967 c 0,-1.76613 0.01924,-1.9224 0.244314,-1.98421 0.175427,-0.0482 1.204267,-0.0488 1.375126,-8.6e-4 0.123463,0.0347 0.136079,0.0643 0.169639,0.39845 0.07194,0.71634 -0.06307,8.34763 -0.151556,8.56667 -0.01917,0.0474 -0.08375,0.1024 -0.143528,0.12206 -0.174426,0.0574 -1.051701,0.0392 -1.249166,-0.026 -0.169913,-0.056 -0.182717,-0.0755 -0.212384,-0.32248 -0.01737,-0.14456 -0.03177,-0.95987 -0.03201,-1.81184 l -3.79e-4,-1.54903 h -2.115718 -2.11574 v 1.70993 c 0,1.70077 -5.67e-4,1.71065 -0.113336,1.84133 -0.179307,0.20785 -0.628169,0.27237 -1.212154,0.17428 z"
       id="path50-9" /><path
       style="fill:#002255;fill-opacity:0;stroke-width:0"
       d="m 82.921711,110.03945 c -0.133336,-0.0224 -0.299722,-0.0782 -0.369736,-0.12418 l -0.127296,-0.0834 0.01737,-4.29033 c 0.01495,-3.69284 0.02791,-4.31137 0.09308,-4.44145 0.06697,-0.13367 0.111469,-0.15622 0.385257,-0.19526 0.453585,-0.0647 1.258851,0.004 1.305195,0.11152 0.01987,0.0461 0.04694,0.84688 0.06017,1.77961 0.02379,1.67769 0.02519,1.69618 0.131271,1.72465 0.05898,0.0158 0.996974,0.0291 2.08444,0.0294 l 1.977209,6.8e-4 v -1.62967 c 0,-1.76613 0.01924,-1.9224 0.244314,-1.98421 0.175427,-0.0482 1.204267,-0.0488 1.375126,-8.6e-4 0.123463,0.0347 0.136079,0.0643 0.169639,0.39845 0.07194,0.71634 -0.06307,8.34763 -0.151556,8.56667 -0.01917,0.0474 -0.08375,0.1024 -0.143528,0.12206 -0.174426,0.0574 -1.051701,0.0392 -1.249166,-0.026 -0.169913,-0.056 -0.182717,-0.0755 -0.212384,-0.32248 -0.01737,-0.14456 -0.03177,-0.95987 -0.03201,-1.81184 l -3.79e-4,-1.54903 h -2.115718 -2.11574 v 1.70993 c 0,1.70077 -5.67e-4,1.71065 -0.113336,1.84133 -0.179307,0.20785 -0.628169,0.27237 -1.212154,0.17428 z"
       id="path51-2" /><path
       style="fill:#002255;fill-opacity:0;stroke-width:0"
       d="m 82.921711,110.03945 c -0.133336,-0.0224 -0.299722,-0.0782 -0.369736,-0.12418 l -0.127296,-0.0834 0.01737,-4.29033 c 0.01495,-3.69284 0.02791,-4.31137 0.09308,-4.44145 0.06697,-0.13367 0.111469,-0.15622 0.385257,-0.19526 0.453585,-0.0647 1.258851,0.004 1.305195,0.11152 0.01987,0.0461 0.04694,0.84688 0.06017,1.77961 0.02379,1.67769 0.02519,1.69618 0.131271,1.72465 0.05898,0.0158 0.996974,0.0291 2.08444,0.0294 l 1.977209,6.8e-4 v -1.62967 c 0,-1.76613 0.01924,-1.9224 0.244314,-1.98421 0.175427,-0.0482 1.204267,-0.0488 1.375126,-8.6e-4 0.123463,0.0347 0.136079,0.0643 0.169639,0.39845 0.07194,0.71634 -0.06307,8.34763 -0.151556,8.56667 -0.01917,0.0474 -0.08375,0.1024 -0.143528,0.12206 -0.174426,0.0574 -1.051701,0.0392 -1.249166,-0.026 -0.169913,-0.056 -0.182717,-0.0755 -0.212384,-0.32248 -0.01737,-0.14456 -0.03177,-0.95987 -0.03201,-1.81184 l -3.79e-4,-1.54903 h -2.115718 -2.11574 v 1.70993 c 0,1.70077 -5.67e-4,1.71065 -0.113336,1.84133 -0.179307,0.20785 -0.628169,0.27237 -1.212154,0.17428 z"
       id="path52-7" /><path
       style="fill:#004c86;fill-opacity:1;stroke-width:0"
       d="m 82.921711,110.03945 c -0.133336,-0.0224 -0.299722,-0.0782 -0.369736,-0.12418 l -0.127296,-0.0834 0.01737,-4.29033 c 0.01495,-3.69284 0.02791,-4.31137 0.09308,-4.44145 0.06697,-0.13367 0.111469,-0.15622 0.385257,-0.19526 0.453585,-0.0647 1.258851,0.004 1.305195,0.11152 0.01987,0.0461 0.04694,0.84688 0.06017,1.77961 0.02379,1.67769 0.02519,1.69618 0.131271,1.72465 0.05898,0.0158 0.996974,0.0291 2.08444,0.0294 l 1.977209,6.8e-4 v -1.62967 c 0,-1.76613 0.01924,-1.9224 0.244314,-1.98421 0.175427,-0.0482 1.204267,-0.0488 1.375126,-8.6e-4 0.123463,0.0347 0.136079,0.0643 0.169639,0.39845 0.07194,0.71634 -0.06307,8.34763 -0.151556,8.56667 -0.01917,0.0474 -0.08375,0.1024 -0.143528,0.12206 -0.174426,0.0574 -1.051701,0.0392 -1.249166,-0.026 -0.169913,-0.056 -0.182717,-0.0755 -0.212384,-0.32248 -0.01737,-0.14456 -0.03177,-0.95987 -0.03201,-1.81184 l -3.79e-4,-1.54903 h -2.115718 -2.11574 v 1.70993 c 0,1.70077 -5.67e-4,1.71065 -0.113336,1.84133 -0.179307,0.20785 -0.628169,0.27237 -1.212154,0.17428 z"
       id="path53-9" /><path
       style="fill:#004c86;fill-opacity:1;stroke-width:0"
       d="m 76.464309,110.06231 c -0.634796,-0.11188 -1.170844,-0.40065 -1.666078,-0.89731 -0.435787,-0.43707 -0.591978,-0.70037 -0.682338,-1.15031 -0.113449,-0.56493 -0.03085,-0.62186 0.953261,-0.65698 l 0.619837,-0.0221 0.118513,0.23219 c 0.379491,0.74351 0.681503,0.92175 1.613927,0.95248 0.52529,0.0173 0.641834,0.006 0.88945,-0.0875 0.689441,-0.26008 0.950212,-0.95091 0.573712,-1.51984 -0.222237,-0.33582 -0.513718,-0.46801 -1.992098,-0.90345 -1.19225,-0.35116 -1.60989,-0.55499 -2.007081,-0.9796 -0.170791,-0.18257 -0.367287,-0.44395 -0.436658,-0.58085 -0.261151,-0.51537 -0.29072,-1.57738 -0.05806,-2.08556 0.153089,-0.33439 0.667017,-0.88498 1.034308,-1.1081 0.637084,-0.38701 1.615258,-0.57998 2.456713,-0.48466 0.939629,0.10645 1.654212,0.42405 2.210158,0.98232 0.430681,0.4325 0.600089,0.75186 0.602316,1.13549 0.0016,0.27066 -0.0027,0.27919 -0.187029,0.36924 -0.202667,0.099 -1.029792,0.17467 -1.264871,0.1157 -0.08445,-0.0212 -0.191478,-0.1273 -0.300936,-0.29844 -0.36217,-0.56617 -0.651259,-0.7088 -1.444353,-0.71262 -0.536064,-0.002 -0.600839,0.008 -0.867747,0.13886 -0.339338,0.16663 -0.49642,0.36379 -0.530461,0.66581 -0.08286,0.73512 0.283292,1.0045 2.053081,1.51044 1.133465,0.32403 1.688247,0.57235 2.081342,0.93163 0.511947,0.46788 0.705633,0.96093 0.703462,1.79072 -0.0023,0.83748 -0.205432,1.33662 -0.742174,1.82269 -0.50894,0.46092 -1.166626,0.76586 -1.87146,0.86774 -0.484592,0.07 -1.379487,0.0566 -1.858724,-0.0279 z"
       id="path54-5" /><path
       style="fill:#004c86;fill-opacity:1;stroke-width:0"
       d="m 92.213639,110.04089 c -0.525142,-0.1106 -0.533677,-0.0627 0.470745,-2.64391 0.269521,-0.69265 0.77233,-2.01877 1.117353,-2.94693 0.835618,-2.24792 1.20746,-3.17435 1.341394,-3.34205 0.136405,-0.17078 0.379848,-0.2323 0.916955,-0.2317 0.665566,7.1e-4 1.080212,0.0722 1.217815,0.20975 0.169127,0.16913 0.351104,0.61323 1.729376,4.22037 1.773003,4.64025 1.718623,4.47178 1.505663,4.66446 -0.0928,0.0839 -0.1858,0.0958 -0.743033,0.0942 -0.67462,-10e-4 -0.8033,-0.0355 -0.94128,-0.24616 -0.0427,-0.0652 -0.20002,-0.45216 -0.3496,-0.85997 -0.14958,-0.40782 -0.286523,-0.75607 -0.304319,-0.77389 -0.01781,-0.0178 -0.893381,-0.0324 -1.945744,-0.0324 h -1.913386 l -0.215125,0.62969 c -0.261293,0.76482 -0.457138,1.18708 -0.573052,1.23554 -0.137622,0.0576 -1.072135,0.074 -1.313762,0.0231 z m 5.293799,-3.517 c 0.07489,-0.0748 -0.05079,-0.51345 -0.46751,-1.6312 -0.426214,-1.14325 -0.711862,-1.80275 -0.78081,-1.80275 -0.15206,0 -1.41984,3.30441 -1.309991,3.41442 0.114171,0.11429 2.445699,0.13211 2.558311,0.0195 z"
       id="path55-4" /><path
       style="fill:#004c86;fill-opacity:1;stroke-width:0"
       d="m 104.12004,110.1883 c -0.40317,-0.0516 -1.01379,-0.25278 -1.28266,-0.42252 -0.55478,-0.35021 -1.05975,-1.12689 -1.10069,-1.69294 -0.0149,-0.20579 -1.7e-4,-0.32413 0.0474,-0.38154 0.12302,-0.14834 0.40871,-0.22895 0.9093,-0.25653 0.58986,-0.0325 0.69929,0.0166 0.79434,0.35602 0.22752,0.81262 1.2929,1.10156 1.97835,0.53655 0.10135,-0.0836 0.25229,-0.27076 0.3354,-0.41603 l 0.15112,-0.26412 0.0156,-3.27842 c 0.0125,-2.60557 0.0291,-3.29469 0.0814,-3.35765 0.1224,-0.14741 1.34653,-0.17589 1.57195,-0.0366 0.10598,0.0655 0.16817,3.00187 0.10934,5.16306 -0.0438,1.6105 -0.0576,1.79147 -0.15893,2.09056 -0.22357,0.65976 -0.66331,1.20714 -1.26021,1.56869 -0.54001,0.32709 -1.43977,0.48778 -2.19181,0.39145 z"
       id="path56-3" /><path
       style="fill:#004c86;fill-opacity:1;stroke-width:0"
       d="m 113.25745,110.13587 c -0.59961,-0.0477 -1.00052,-0.15718 -1.53082,-0.41839 -1.65728,-0.81634 -2.61045,-2.68816 -2.39376,-4.70083 0.13799,-1.28166 0.5633,-2.24999 1.31088,-2.98458 1.31921,-1.29631 3.38476,-1.66019 5.02173,-0.88465 1.00464,0.47595 1.70287,1.18366 2.18395,2.21359 0.33973,0.72734 0.37568,0.93097 0.37449,2.12173 -0.001,1.13439 -0.0357,1.359 -0.30914,2.00866 -0.78521,1.86559 -2.46372,2.81865 -4.65733,2.64447 z m 1.17434,-1.66209 c 0.85003,-0.18037 1.58686,-0.99038 1.85516,-2.03943 0.13601,-0.53183 0.13578,-1.37233 -5.6e-4,-1.9053 -0.37484,-1.4656 -1.52216,-2.30966 -2.85732,-2.10209 -0.96762,0.15043 -1.66501,0.78522 -2.05003,1.86604 -0.14655,0.41141 -0.15462,0.47364 -0.15422,1.18974 3.7e-4,0.72004 0.008,0.77764 0.16263,1.22351 0.28515,0.82254 0.67726,1.28804 1.38063,1.63908 0.35198,0.17566 0.39273,0.18419 0.88287,0.18463 0.28262,1.8e-4 0.63399,-0.025 0.78081,-0.0562 z"
       id="path57-1" /><path
       style="fill:#00b0b3;fill-opacity:1;stroke-width:0"
       d="m 84.439798,122.09915 c -0.257223,-0.0455 -0.261531,-0.0704 -0.30796,-1.77401 -0.04403,-1.61587 -0.01018,-6.81794 0.0461,-7.0721 l 0.03065,-0.13847 0.661593,7.8e-4 c 0.766192,7.9e-4 0.870285,0.0201 0.906001,0.16779 0.01444,0.0597 0.0423,0.82535 0.06191,1.70139 l 0.03564,1.59279 0.332766,0.0314 c 0.437269,0.0413 2.835642,0.0412 3.418719,-1.9e-4 l 0.456759,-0.0324 0.03393,-0.50911 c 0.01866,-0.28001 0.04899,-1.02668 0.0674,-1.65925 0.03081,-1.05844 0.04126,-1.15584 0.131172,-1.22158 0.07305,-0.0535 0.271226,-0.0714 0.785291,-0.0714 h 0.687582 l 0.03323,1.14156 c 0.04276,1.46916 0.04313,6.5393 5.67e-4,7.23548 -0.02581,0.42193 -0.04965,0.54112 -0.11335,0.56687 -0.135727,0.0549 -0.884701,0.0887 -1.134587,0.0512 -0.186919,-0.028 -0.245472,-0.061 -0.282658,-0.15871 -0.0258,-0.0679 -0.07054,-0.88669 -0.09942,-1.81965 -0.02888,-0.93295 -0.05762,-1.70017 -0.06387,-1.70492 -0.0062,-0.004 -0.945738,-0.0221 -2.087754,-0.0385 -1.474301,-0.0212 -2.086236,-0.0141 -2.110336,0.025 -0.03058,0.0495 -0.110295,2.16518 -0.117452,3.11709 -0.0041,0.54691 -0.01866,0.55916 -0.686356,0.5777 -0.302877,0.008 -0.611367,0.004 -0.685531,-0.008 z"
       id="path62-2" /><path
       style="fill:#00b1b4;fill-opacity:1;stroke-width:0"
       d="m 101.57611,122.1509 c -0.097,-0.0113 -0.27393,-0.0464 -0.39326,-0.0778 -0.1895,-0.0498 -0.23353,-0.0895 -0.34774,-0.31415 -0.0719,-0.14144 -0.23778,-0.54048 -0.36859,-0.88681 l -0.23784,-0.62969 h -1.973643 -1.973638 l -0.266093,0.70525 c -0.298593,0.79139 -0.389175,0.98333 -0.512242,1.08547 -0.06058,0.0502 -0.275702,0.076 -0.746348,0.0891 -0.691924,0.0192 -0.938306,-0.0259 -0.938306,-0.17199 0,-0.15379 0.341092,-1.10406 1.085172,-3.02326 0.406965,-1.04967 0.961871,-2.48655 1.233122,-3.19306 0.685288,-1.78492 0.941147,-2.37453 1.087511,-2.50614 0.12021,-0.10806 0.165449,-0.11329 0.977238,-0.11329 0.546044,0 0.897894,0.0214 0.981464,0.0594 0.0883,0.0403 0.18623,0.17727 0.3041,0.42565 0.19666,0.41442 2.576293,6.39487 2.943943,7.39863 0.31478,0.85943 0.33299,0.96099 0.18911,1.05466 -0.11636,0.0758 -0.73697,0.13409 -1.04396,0.0982 z m -2.032723,-3.56133 c 0.0447,-0.0448 -0.0745,-0.41119 -0.56495,-1.73598 -0.54108,-1.4616 -0.70588,-1.75834 -0.866573,-1.56037 -0.136702,0.16841 -1.119843,3.01946 -1.119843,3.24746 v 0.12404 l 1.255226,-0.0171 c 0.69038,-0.01 1.27364,-0.0355 1.29614,-0.0581 z"
       id="path63-3" /><path
       style="fill:#00b0b3;fill-opacity:1;stroke-width:0"
       d="m 105.16898,122.09981 c -0.24941,-0.056 -0.24179,0.0571 -0.26046,-3.86739 -0.01,-2.02522 -0.002,-3.96233 0.018,-4.30471 0.0475,-0.83346 0.0258,-0.81319 0.87329,-0.81319 0.55232,0 0.65873,0.0127 0.72673,0.0881 0.12207,0.13507 0.15885,2.34661 0.0921,5.5369 -0.0623,2.97843 -0.0799,3.26969 -0.20081,3.31877 -0.10211,0.0414 -1.10115,0.0747 -1.24882,0.0414 z"
       id="path64-3" /><path
       style="fill:#00b0b3;fill-opacity:1;stroke-width:0"
       d="m 109.46336,122.09096 c -0.10694,-0.0253 -0.15937,-0.0765 -0.19059,-0.18605 -0.0525,-0.1842 -0.0652,-8.11261 -0.0136,-8.45399 0.0293,-0.19365 0.0617,-0.2524 0.15971,-0.28966 0.13496,-0.0513 1.26991,-0.0649 1.39552,-0.0167 0.0431,0.0166 0.4685,0.55492 0.94533,1.19639 3.40547,4.58138 3.62221,4.85625 3.7199,4.71776 0.0364,-0.0516 0.0488,-0.98441 0.0392,-2.9381 -0.0137,-2.78394 -0.0115,-2.86451 0.0837,-2.93432 0.073,-0.0536 0.26639,-0.0718 0.76205,-0.0718 0.55672,0 0.67546,0.0141 0.7334,0.0833 0.0574,0.0692 0.0691,0.78779 0.0691,4.21888 0,2.27453 -0.0183,4.24266 -0.0407,4.37363 -0.0387,0.22619 -0.0512,0.24096 -0.25124,0.29482 -0.11997,0.0322 -0.44657,0.0487 -0.75911,0.0379 l -0.54856,-0.0188 -0.2444,-0.2658 c -0.13441,-0.14619 -0.89478,-1.13182 -1.68971,-2.19028 -1.7979,-2.39397 -2.59393,-3.41055 -2.67058,-3.41055 -0.0902,0 -0.11277,0.42644 -0.1427,2.69506 -0.0345,2.61521 -0.0597,3.08021 -0.16974,3.126 -0.11838,0.0492 -1.01233,0.0735 -1.187,0.0321 z"
       id="path65-4" /><path
       style="fill:#00b1b4;fill-opacity:1;stroke-width:0"
       d="m 94.100536,122.07231 c -0.127338,-0.0177 -0.231532,-0.0721 -0.231532,-0.12107 0,-0.0489 0.09167,-0.35948 0.203718,-0.69009 0.31009,-0.91496 2.710462,-7.10613 2.912252,-7.51144 0.303894,-0.61038 0.294656,-0.60567 1.187322,-0.60449 0.491571,5.7e-4 0.857381,0.0349 0.967531,0.0907 0.2194,0.11104 0.39875,0.52029 1.969413,4.49417 1.34395,3.40033 1.60177,4.11946 1.52271,4.24738 -0.0782,0.12659 -0.96847,0.17648 -1.34261,0.0753 -0.28575,-0.0774 -0.32437,-0.11725 -0.50761,-0.52443 -0.10907,-0.24241 -0.27073,-0.64111 -0.35924,-0.88601 l -0.16091,-0.44524 -2.003013,2e-5 -2.002999,2e-5 -0.309602,0.81439 c -0.170278,0.4479 -0.362629,0.8616 -0.427444,0.9193 -0.124609,0.11089 -1.004304,0.19874 -1.417986,0.14151 z m 4.928541,-3.41787 0.55093,-0.0465 -0.0462,-0.24645 c -0.0605,-0.32259 -0.91559,-2.594 -1.087,-2.88749 -0.22706,-0.38879 -0.337006,-0.33442 -0.575127,0.28447 -0.28473,0.74 -0.845097,2.42093 -0.903785,2.71107 l -0.04683,0.23154 h 0.77856 c 0.428206,0 1.026472,-0.0209 1.329482,-0.0465 z"
       id="path72-1" /><path
       style="fill:#00b1b4;fill-opacity:1;stroke-width:0"
       d="m 94.064916,122.07332 c -0.107749,-0.0184 -0.195912,-0.0734 -0.195912,-0.12221 0,-0.15723 0.389134,-1.24071 1.23123,-3.42818 1.746834,-4.53766 1.9284,-4.97686 2.172043,-5.254 0.09284,-0.10566 0.239187,-0.12461 0.95669,-0.12461 0.78363,0 0.85905,0.0113 1.00683,0.16029 0.16876,0.16934 0.6461,1.30318 2.091903,4.96904 1.09447,2.77508 1.37926,3.58259 1.30555,3.70185 -0.0795,0.12871 -0.96567,0.17967 -1.34391,0.0774 -0.28575,-0.0774 -0.32437,-0.11726 -0.50761,-0.52443 -0.10907,-0.24242 -0.27073,-0.64112 -0.35924,-0.88601 l -0.16091,-0.44526 -2.003013,3e-5 -2.002999,3e-5 -0.309602,0.81437 c -0.170278,0.44791 -0.362629,0.86198 -0.427444,0.92015 -0.123166,0.11061 -1.086302,0.20443 -1.453606,0.14168 z m 4.964161,-3.41888 0.55093,-0.0465 -0.0458,-0.24416 c -0.0537,-0.28602 -0.84767,-2.42782 -1.04183,-2.81027 -0.27323,-0.5382 -0.37996,-0.45411 -0.76373,0.6017 -0.30608,0.84208 -0.796294,2.36908 -0.796294,2.48044 0,0.0755 1.288344,0.0871 2.096724,0.0188 z"
       id="path73-1" /><path
       style="fill:#004c86;fill-opacity:1;stroke-width:0"
       d="m 93.940246,122.28805 c -0.164868,-0.0639 -0.284965,-0.24831 -0.284965,-0.43761 0,-0.14709 0.886532,-2.48528 2.817833,-7.43193 0.254143,-0.65093 0.518851,-1.2349 0.588239,-1.2977 0.295326,-0.26726 1.529704,-0.33298 2.141174,-0.114 0.19049,0.0682 0.27473,0.16485 0.40963,0.46988 0.24409,0.55193 0.2023,0.64118 -0.0528,0.11287 -0.14332,-0.29676 -0.26674,-0.45798 -0.37018,-0.48361 -0.0853,-0.0212 -0.57098,-0.0291 -1.079174,-0.0178 l -0.923992,0.0205 -0.157816,0.28158 c -0.168543,0.30071 -0.409181,0.90253 -1.881408,4.70526 -1.456187,3.76131 -1.518956,3.97972 -1.168948,4.06757 0.09902,0.0249 0.499259,0.0324 0.889421,0.0167 0.488738,-0.0197 0.686503,-0.006 0.635817,0.0453 -0.07898,0.0791 -1.385277,0.13182 -1.562789,0.0631 z"
       id="path74-3" /></g></svg>
