<?xml version="1.0" encoding="UTF-8" standalone="no"?>
<!-- Created with Inkscape (http://www.inkscape.org/) -->

<svg
   width="99.022186mm"
   height="39.859138mm"
   viewBox="0 0 99.022186 39.859138"
   version="1.1"
   id="svg1"
   xml:space="preserve"
   xmlns="http://www.w3.org/2000/svg"
   xmlns:svg="http://www.w3.org/2000/svg"><defs
     id="defs1" /><g
     id="layer1"
     transform="translate(-18.255196,-11.478221)"><g
       id="g81"><g
         id="g82"><path
           style="fill:#004c86;fill-opacity:1"
           d="m 27.600077,51.131267 c -0.313191,-0.1215 -0.815647,-0.44227 -1.116569,-0.71283 -0.589192,-0.52973 -1.217056,-1.62858 -1.217056,-2.13001 0,-0.1636 -0.03081,-0.45151 -0.06847,-0.6398 l -0.06847,-0.34234 -2.916757,-4.1e-4 c -2.732283,-3.9e-4 -2.939693,-0.0144 -3.279387,-0.2215 -0.700341,-0.42699 -0.678092,-0.11871 -0.678092,-9.395423 0,-7.436153 0.0205,-8.479492 0.17557,-8.934592 0.143028,-0.419766 0.553517,-0.905626 2.214675,-2.621318 1.121508,-1.158326 2.138616,-2.178571 2.26024,-2.267211 0.166156,-0.121094 0.563202,-0.161949 1.596994,-0.164324 l 1.37586,-0.0032 0.44174,0.383424 c 1.533001,1.330621 2.620854,2.347267 2.651426,2.477871 0.02924,0.12493 -0.353506,0.151319 -2.194734,0.151319 h -2.230154 l -0.595039,0.602522 -0.595038,0.602523 10.293919,-0.0033 10.29392,-0.0033 -0.652669,-0.599185 -0.652669,-0.599185 h -1.56571 c -0.861141,0 -1.565376,-0.03697 -1.564967,-0.08216 4.1e-4,-0.04519 0.49621,-0.710703 1.101779,-1.47892 l 1.101034,-1.396757 h 1.227153 1.227152 l 2.206611,2.218379 c 1.213635,1.220109 2.286261,2.37781 2.383612,2.57267 0.159326,0.318911 0.174076,1.23596 0.147704,9.183224 l -0.0293,8.828931 -0.409202,0.37498 -0.409202,0.37498 h -2.944232 -2.944233 l -0.05824,0.64233 c -0.03203,0.35329 -0.158638,0.86929 -0.281341,1.14668 -0.311552,0.70432 -1.13885,1.54878 -1.868193,1.90695 l -0.616166,0.3026 -5.587029,0.0237 c -5.371493,0.0228 -5.608997,0.0151 -6.156469,-0.19724 z m 12.251973,-0.34903 c 0.721065,-0.3541 1.439157,-1.08799 1.774441,-1.81346 0.227928,-0.49319 0.237854,-0.67099 0.26712,-4.784656 0.03396,-4.7739 0.0342,-4.772211 -0.731281,-5.283584 l -0.372237,-0.24867 -7.13191,4.09e-4 c -6.965665,4e-4 -7.140383,0.0056 -7.495399,0.222022 -0.224519,0.136884 -0.448872,0.414635 -0.586818,0.726484 -0.215023,0.486096 -0.221373,0.656089 -0.170739,4.570773 0.03388,2.619572 0.09754,4.209202 0.178957,4.468752 0.173948,0.55453 0.751319,1.37881 1.238416,1.76803 0.223232,0.17837 0.666908,0.41538 0.985946,0.52669 0.538096,0.18773 0.972456,0.2005 6.002775,0.17655 l 5.422704,-0.0258 z m -7.174021,-2.47124 c -0.147497,-0.16299 -0.181304,-0.4454 -0.181304,-1.5146 0,-1.27345 -0.0088,-1.32251 -0.284282,-1.57985 -0.428432,-0.400246 -0.5997,-0.811102 -0.607416,-1.457139 -0.0078,-0.649074 0.170132,-1.07258 0.635432,-1.512823 0.410908,-0.38878 0.805479,-0.52733 1.501771,-0.52733 1.072727,0 2.040983,0.93548 2.040983,1.971893 0,0.497542 -0.385203,1.26194 -0.776249,1.540389 l -0.319247,0.22732 v 1.34494 c 0,1.64387 -0.04156,1.70753 -1.11453,1.70753 -0.552444,0 -0.75485,-0.0453 -0.895158,-0.20033 z m 1.65913,-0.15023 c 0.08832,-0.0883 0.131459,-0.58388 0.131459,-1.51007 v -1.37862 l 0.319162,-0.18853 c 0.456356,-0.269575 0.820267,-1.067758 0.723877,-1.587713 -0.186626,-1.006715 -0.978476,-1.617219 -1.988919,-1.533425 -1.002875,0.08317 -1.68331,0.790713 -1.68331,1.75038 0,0.609429 0.197841,1.064609 0.600334,1.381208 0.268547,0.21124 0.276063,0.25415 0.276063,1.57623 0,0.911 0.04334,1.40243 0.131459,1.49054 0.0723,0.0723 0.407525,0.13146 0.744937,0.13146 0.337413,0 0.672635,-0.0592 0.744938,-0.13146 z m -9.243991,-1.14008 c 0.153204,-0.0588 0.173284,-0.48852 0.173284,-3.708482 0,-3.596538 0.0031,-3.64651 0.246487,-4.004155 0.395695,-0.581396 0.776962,-0.801298 1.477447,-0.852142 l 0.631383,-0.04583 0.0048,-1.275864 c 0.0026,-0.701726 0.07107,-1.547 0.152108,-1.878387 0.681678,-2.787461 3.356735,-4.756798 6.200772,-4.564916 1.719155,0.115988 3.316105,0.928612 4.355568,2.216371 1.033732,1.280661 1.388827,2.362826 1.390721,4.238275 l 0.0013,1.287208 h 0.505444 c 0.636785,0 1.284822,0.351339 1.608798,0.872224 0.234087,0.376362 0.242024,0.494755 0.273875,4.084895 l 0.0328,3.6973 h 2.782946 c 3.038879,0 3.205294,-0.0284 3.564048,-0.60891 0.212387,-0.34365 0.217571,-0.55858 0.213815,-8.864433 -0.0031,-6.957853 -0.03129,-8.577915 -0.154109,-8.871866 -0.08264,-0.197792 -1.129043,-1.352982 -2.325335,-2.56709 l -2.175076,-2.20747 -1.095495,0.0065 -1.095496,0.0065 -0.960633,1.228342 -0.960633,1.228343 1.453606,0.03054 1.453606,0.03054 0.73946,0.733366 c 0.406703,0.403352 0.739459,0.771662 0.739459,0.818467 0,0.0468 -4.806488,0.0851 -10.681085,0.0851 -6.342849,0 -10.681085,-0.04049 -10.681085,-0.09968 0,-0.05483 0.301682,-0.423533 0.670405,-0.81935 l 0.670405,-0.719667 2.127839,-0.02966 2.127839,-0.02966 -1.381842,-1.232433 -1.381841,-1.232433 -1.33424,-0.003 -1.334241,-0.003 -2.003805,2.057022 c -1.102093,1.131363 -2.137336,2.278861 -2.300541,2.549996 l -0.296736,0.492973 -0.03322,8.161444 c -0.01827,4.488795 -0.0015,8.380315 0.03722,8.647815 0.05019,0.34656 0.174676,0.59061 0.433076,0.84901 l 0.36264,0.36264 h 2.795509 c 1.537531,0 2.873488,-0.0299 2.968794,-0.0665 z M 29.648436,37.01623 v -1.416538 l 0.410811,-0.796195 c 0.485717,-0.941372 1.209099,-1.590353 2.18073,-1.956439 0.932623,-0.351389 2.35228,-0.280626 3.244994,0.161747 0.77715,0.385107 1.531832,1.172099 1.921761,2.004037 0.261262,0.557417 0.297574,0.780253 0.329692,2.023169 l 0.03609,1.396757 h 0.86769 0.867691 l -0.0016,-1.122883 c -0.0019,-1.337201 -0.206466,-2.290159 -0.683746,-3.185629 -1.222906,-2.294406 -3.830173,-3.589736 -6.224389,-3.092372 -1.106785,0.229919 -2.065016,0.724773 -2.874577,1.484503 -1.340632,1.258112 -1.827925,2.491538 -1.827925,4.626802 v 1.289579 h 0.876396 0.876397 z m 7.86909,0.06695 c -0.04089,-1.228132 -0.07412,-1.408016 -0.369261,-1.998819 -0.417161,-0.835056 -1.10473,-1.522644 -1.891273,-1.891329 -0.534774,-0.25067 -0.765098,-0.291918 -1.609996,-0.288327 -0.859315,0.0037 -1.065918,0.04417 -1.608604,0.315486 -0.798009,0.398962 -1.435682,1.033613 -1.815389,1.806784 -0.271454,0.552742 -0.304203,0.748098 -0.336786,2.009037 l -0.03609,1.396757 h 3.856166 3.856166 z m 21.818853,9.393848 c -1.0064,-0.26313 -2.18771,-0.92207 -2.864289,-1.597702 -0.743194,-0.742149 -1.445616,-2.084629 -1.682094,-3.214844 -0.206234,-0.985675 -0.206123,-2.766522 2.27e-4,-3.641702 0.708471,-3.004785 3.226386,-4.950807 6.412866,-4.956322 1.67026,-0.0029 3.08621,0.55179 4.16665,1.632234 0.94398,0.943981 1.50704,2.221087 1.17563,2.66653 -0.0906,0.121784 -0.45783,0.252309 -1.00169,0.356036 -1.10443,0.21064 -1.351,0.206195 -1.55032,-0.02795 -1.35455,-1.59124 -1.58151,-1.723523 -2.95896,-1.72462 -0.87848,-7e-4 -1.04167,0.03197 -1.49711,0.299703 -0.66893,0.393231 -1.23657,1.068553 -1.53572,1.827036 -0.35164,0.891565 -0.34356,2.54142 0.0169,3.458696 0.33929,0.863327 1.26171,1.80441 2.02207,2.062981 1.3956,0.474599 2.91365,-0.0309 3.70097,-1.232393 0.19813,-0.30236 0.42893,-0.576948 0.5129,-0.610197 0.084,-0.03325 0.59553,0.02094 1.13682,0.120413 1.49145,0.274091 1.60615,0.485668 0.97315,1.795154 -0.59027,1.221083 -2.11473,2.409046 -3.58178,2.791166 -0.80865,0.21062 -2.63311,0.20839 -3.44626,-0.004 z m 3.33671,-0.21488 c 0.95373,-0.24842 1.8999,-0.79012 2.57896,-1.476526 0.62703,-0.6338 1.20505,-1.650464 1.20505,-2.119517 0,-0.246909 -0.0702,-0.287952 -0.76109,-0.445095 -1.21691,-0.27678 -1.36661,-0.249795 -1.75629,0.316584 -0.88087,1.280296 -2.50195,1.81165 -3.98519,1.306256 -0.64625,-0.220199 -1.57596,-1.057253 -1.95345,-1.758768 -0.60167,-1.118136 -0.68836,-2.857499 -0.20522,-4.117533 0.3204,-0.835595 1.14443,-1.732204 1.88466,-2.050642 1.42807,-0.614337 3.27264,-0.108241 4.11089,1.127905 0.17037,0.251232 0.35919,0.494282 0.41962,0.54011 0.11287,0.08562 0.55445,0.04263 1.56139,-0.152011 0.55024,-0.106361 0.57508,-0.126243 0.57406,-0.459441 -0.002,-0.550038 -0.48897,-1.45564 -1.11859,-2.078885 -2.27225,-2.249239 -6.22971,-2.127983 -8.617221,0.26403 -0.589831,0.590943 -1.163824,1.548848 -1.448094,2.416646 -0.225678,0.688932 -0.262621,1.012395 -0.260585,2.281652 0.0027,1.677962 0.142876,2.301139 0.799887,3.555843 0.713104,1.361823 1.962743,2.319942 3.658003,2.804652 0.87177,0.24925 2.44639,0.27052 3.31321,0.0447 z m 20.13756,0.17066 c -0.2748,-0.11636 -0.41581,-0.52973 -0.31616,-0.92678 0.0368,-0.14661 0.54001,-1.465318 1.11825,-2.930454 0.57824,-1.465137 1.56715,-4.019562 2.19757,-5.676499 0.63043,-1.656938 1.21663,-3.121087 1.30269,-3.253665 0.20568,-0.316898 0.79208,-0.4698 1.80177,-0.4698 1.01253,0 1.5956,0.152881 1.80564,0.473438 0.29586,0.451546 4.76733,11.81347 4.76733,12.11372 0,0.55918 -0.21259,0.69668 -1.16136,0.75113 -0.48004,0.0276 -1.07256,-0.006 -1.33081,-0.0761 -0.53285,-0.14401 -0.66991,-0.35619 -1.19015,-1.84253 l -0.31624,-0.9035 -2.53482,-2.84e-4 -2.53482,-2.85e-4 -0.36767,1.068109 c -0.20225,0.58753 -0.49938,1.21598 -0.66039,1.39676 -0.28166,0.31624 -0.33131,0.32961 -1.31516,0.35421 -0.56235,0.0141 -1.1319,-0.0208 -1.26567,-0.0774 z m 12.3788,-0.37221 c 0.15537,-0.22571 -0.0199,-0.73415 -1.73998,-5.046428 -0.93882,-2.353681 -1.95451,-4.913662 -2.2571,-5.688848 -0.30258,-0.775185 -0.64304,-1.50232 -0.75658,-1.615856 -0.1789,-0.178903 -0.37897,-0.206429 -1.50037,-0.206429 -1.10927,0 -1.3251,0.02903 -1.51228,0.203422 -0.12009,0.111882 -0.65312,1.356639 -1.1845,2.766127 -0.53139,1.409488 -1.55509,4.0614 -2.2749,5.893137 -0.90809,2.310882 -1.28897,3.409205 -1.24416,3.587745 0.0626,0.24928 0.0999,0.25732 1.19579,0.25732 0.94374,0 1.16033,-0.0322 1.30695,-0.1942 0.0967,-0.10681 0.36442,-0.7107 0.59502,-1.341983 l 0.41927,-1.14778 h 2.72157 2.72158 l 0.41504,1.130558 c 0.22827,0.621805 0.49898,1.223315 0.60157,1.336675 0.29282,0.32357 2.27966,0.37659 2.49308,0.0665 z m -7.99326,-4.848392 c -0.0439,-0.11435 1.00006,-3.199253 1.4503,-4.285744 0.30303,-0.731239 0.37856,-0.602432 1.60747,2.741299 0.305,0.829876 0.53516,1.526777 0.51146,1.548669 -0.0237,0.02189 -0.82489,0.06007 -1.78043,0.08484 -1.3038,0.0338 -1.75019,0.01157 -1.7888,-0.08906 z m 3.25393,-0.232409 c 0.003,-0.165455 -1.45561,-3.971173 -1.52238,-3.971173 -0.0379,0 -0.39446,0.912 -0.79233,2.026668 l -0.7234,2.026667 h 1.51822 c 0.83503,0 1.51898,-0.03697 1.51989,-0.08216 z m 8.15979,5.480851 c -0.12051,-0.0294 -0.30537,-0.12988 -0.41082,-0.22337 -0.1783,-0.15811 -0.19171,-0.60172 -0.19171,-6.342569 0,-7.325469 -0.16553,-6.610771 1.53117,-6.610771 1.030991,0 1.102681,0.01482 1.264221,0.261354 0.15108,0.230585 0.1675,0.975373 0.13946,6.326488 -0.0175,3.335825 -0.0727,6.147958 -0.12273,6.249188 -0.05,0.10124 -0.24224,0.2368 -0.42716,0.30127 -0.33581,0.11706 -1.368251,0.13931 -1.782431,0.0384 z m 1.910751,-0.40651 c 0.19011,-0.22907 0.31328,-11.963222 0.12918,-12.307203 -0.11993,-0.224096 -0.20962,-0.243898 -1.104791,-0.243898 -0.73963,0 -1.01573,0.04146 -1.14642,0.17215 -0.15234,0.152343 -0.17215,0.868239 -0.17215,6.222416 0,4.559698 0.0324,6.082655 0.13146,6.181725 0.19757,0.19757 1.995221,0.17662 2.162721,-0.0252 z m -31.386041,0.2203 c -0.2055,-0.15022 -0.21367,-0.36253 -0.24273,-6.314225 -0.0264,-5.408007 -0.009,-6.190321 0.13946,-6.417527 0.16008,-0.244302 0.23267,-0.258748 1.30031,-0.258748 1.57718,0 1.49337,-0.149581 1.49337,2.665204 v 2.264528 h 2.7217 2.7217 l 0.0714,-1.561082 c 0.0393,-0.858595 0.0716,-1.890317 0.0718,-2.292716 5.6e-4,-1.025408 0.0698,-1.075934 1.47373,-1.075934 0.87872,0 1.15981,0.03708 1.26784,0.167253 0.10854,0.130777 0.13797,1.51764 0.13497,6.359373 -0.004,5.759824 -0.0173,6.207034 -0.19715,6.405724 -0.16657,0.18405 -0.34163,0.2136 -1.26561,0.2136 -1.48168,0 -1.41338,0.13883 -1.41338,-2.872664 v -2.385715 h -2.72655 -2.72654 l -0.0806,2.470627 c -0.0629,1.928522 -0.11534,2.505422 -0.23912,2.629192 -0.22155,0.22155 -2.20249,0.22401 -2.50467,0.003 z m 2.33985,-0.19511 c 0.0922,-0.0922 0.13175,-0.7059 0.13241,-2.054053 5.3e-4,-1.057427 0.0321,-2.182198 0.0702,-2.49949 l 0.0693,-0.576896 2.91498,0.02915 2.91498,0.02915 0.0548,2.464866 c 0.0301,1.355676 0.0947,2.526488 0.1434,2.601798 0.12881,0.19902 1.97807,0.18839 2.14464,-0.0123 0.0897,-0.10804 0.11607,-1.855443 0.0956,-6.326486 l -0.0283,-6.17722 -1.02436,-0.03164 c -0.66113,-0.02042 -1.07873,0.01347 -1.17766,0.09558 -0.11282,0.09363 -0.15342,0.420115 -0.15379,1.23669 -2.7e-4,0.610208 -0.0321,1.657156 -0.0706,2.326551 l -0.0701,1.217081 -1.65337,0.0586 c -0.90935,0.03223 -2.23324,0.03189 -2.94198,-7.68e-4 l -1.28861,-0.05937 v -2.325784 c 0,-1.859317 -0.0307,-2.351299 -0.15329,-2.453003 -0.0989,-0.08209 -0.51626,-0.115996 -1.17655,-0.09558 l -1.02326,0.03164 -0.0698,0.492973 c -0.0384,0.271135 -0.0635,3.036454 -0.0559,6.145152 0.0114,4.614109 0.0416,5.685481 0.16429,5.833511 0.11878,0.14327 0.34992,0.18134 1.10097,0.18134 0.59331,0 1.00003,-0.0494 1.08208,-0.13146 z m 32.753931,0.15885 c -0.22544,-0.25908 -0.32402,-4.097531 -0.22977,-8.946346 0.0641,-3.296976 0.0873,-3.623023 0.27113,-3.806849 0.28944,-0.289435 2.26075,-0.296559 2.58256,-0.0093 0.11814,0.105441 0.7503,0.931171 1.40479,1.834956 1.21213,1.673814 4.38183,5.939026 4.55615,6.130863 0.055,0.06053 0.0646,-1.577798 0.0224,-3.836551 -0.0681,-3.648423 -0.0595,-3.956301 0.11581,-4.131584 0.15515,-0.155147 0.39486,-0.189396 1.32563,-0.189396 1.04996,0 1.14918,0.01849 1.30677,0.243475 0.14926,0.213095 0.17054,0.984513 0.17054,6.18242 0,5.864845 -0.0305,6.422645 -0.36289,6.633985 -0.0716,0.0455 -0.63774,0.0835 -1.2582,0.0844 -1.09074,0.002 -1.13739,-0.008 -1.40811,-0.29958 -0.154,-0.16569 -1.51965,-1.967237 -3.03477,-4.003429 l -2.75478,-3.702167 -0.068,1.620725 c -0.0374,0.891398 -0.0744,2.597588 -0.0822,3.791531 -0.008,1.25786 -0.0618,2.25992 -0.12754,2.3827 -0.10029,0.18739 -0.2377,0.2119 -1.18807,0.2119 -0.88691,0 -1.10381,-0.0335 -1.24148,-0.19171 z m 2.1995,-0.17388 c 0.0829,-0.1 0.13072,-1.413946 0.15035,-4.135498 0.022,-3.044625 0.0603,-3.989004 0.16209,-3.989004 0.0733,0 1.39753,1.700757 2.94267,3.77946 1.54514,2.078704 2.96142,3.939682 3.14727,4.135502 0.33342,0.35129 0.35133,0.35603 1.34374,0.35603 0.80168,0 1.03634,-0.0367 1.15617,-0.18105 0.12245,-0.14746 0.15641,-1.285332 0.18299,-6.132176 0.0226,-4.121397 -0.004,-6.019287 -0.086,-6.172824 -0.10612,-0.198281 -0.22677,-0.221701 -1.1421,-0.221701 -0.7815,0 -1.05609,0.03932 -1.16147,0.166302 -0.10876,0.131046 -0.12095,1.025173 -0.0575,4.217659 0.0669,3.365211 0.0555,4.05063 -0.0671,4.047062 -0.14467,-0.0042 -1.53931,-1.828203 -4.67768,-6.117768 -0.86472,-1.181912 -1.62882,-2.185148 -1.69801,-2.229415 -0.0692,-0.04427 -0.55363,-0.08124 -1.07654,-0.08216 -0.71991,-0.0013 -0.99253,0.04012 -1.12288,0.170472 -0.15234,0.152343 -0.17215,0.868239 -0.17215,6.222416 0,4.559698 0.0324,6.082655 0.13146,6.181725 0.18898,0.18898 1.88577,0.17651 2.04473,-0.015 z M 96.911889,29.766471 c -1.35638,-0.23243 -2.55386,-1.06353 -3.07071,-2.131197 -0.31522,-0.651149 -0.41167,-1.653829 -0.18781,-1.952254 0.16998,-0.226584 0.88051,-0.379201 1.81419,-0.389672 0.73241,-0.0082 0.96809,0.117345 1.06562,0.567694 0.31116,1.43682 2.25514,1.547319 2.7815,0.158104 0.0759,-0.200329 0.11685,-1.894712 0.11685,-4.835433 0,-4.148698 0.016,-4.546726 0.19171,-4.762594 0.17904,-0.219986 0.27478,-0.233459 1.448521,-0.203849 1.21454,0.03064 1.26166,0.04092 1.40099,0.305581 0.11463,0.217742 0.1356,1.228124 0.10232,4.929731 -0.0365,4.057078 -0.0665,4.733347 -0.23378,5.258381 -0.47695,1.497398 -1.47232,2.483881 -2.911151,2.885151 -0.81875,0.228338 -1.79464,0.294355 -2.51825,0.170357 z m 2.10343,-0.330394 c 1.637541,-0.34745 2.793871,-1.503778 3.141321,-3.141317 0.17818,-0.839751 0.17076,-9.570957 -0.008,-9.749999 -0.15893,-0.158925 -2.03472,-0.178586 -2.278631,-0.02388 -0.14184,0.08996 -0.16433,0.738255 -0.16433,4.736342 v 4.632122 l -0.29819,0.507236 c -0.75999,1.292799 -2.78876,1.06436 -3.09918,-0.348967 -0.10306,-0.46925 -0.36416,-0.562381 -1.33102,-0.474767 -1.06795,0.09678 -1.29853,0.286092 -1.20243,0.987241 0.11993,0.875011 0.78013,1.866781 1.56596,2.352453 0.94249,0.582492 2.41094,0.791699 3.67478,0.52354 z m -40.28147,0.218474 c -1.04036,-0.127773 -2.400262,-0.795005 -2.993179,-1.468594 -0.530693,-0.6029 -0.801477,-1.151967 -0.870613,-1.765336 -0.08398,-0.745021 0.02728,-0.998108 0.496,-1.128278 0.468484,-0.130107 1.992062,-0.151982 2.175422,-0.03123 0.0672,0.04427 0.22219,0.277674 0.34438,0.518683 0.39203,0.773272 1.02615,1.136574 1.99826,1.144852 1.41488,0.01205 2.23388,-0.793752 1.77293,-1.744325 -0.25328,-0.522295 -0.59061,-0.686942 -2.46604,-1.203642 -1.73031,-0.476715 -2.472293,-0.794597 -3.060787,-1.311302 -0.771728,-0.677586 -1.265846,-2.114718 -1.130952,-3.289349 0.237674,-2.069615 2.136329,-3.400922 4.850259,-3.400922 2.18275,0 3.91854,0.919687 4.65211,2.464866 0.5785,1.218561 0.34173,1.593445 -1.13915,1.803657 -0.51788,0.07351 -1.04179,0.101861 -1.16425,0.06299 -0.12245,-0.03887 -0.33582,-0.275665 -0.47415,-0.52622 -0.3096,-0.560803 -0.82828,-0.923296 -1.45576,-1.017391 -1.10659,-0.165943 -2.02745,0.292112 -2.02745,1.008495 0,0.209488 0.0511,0.476308 0.11348,0.592932 0.17819,0.332953 1.06074,0.720122 2.47467,1.085624 2.26431,0.585329 3.31799,1.233026 3.8941,2.39372 0.21918,0.441569 0.25414,0.677362 0.25456,1.716912 4.1e-4,1.006112 -0.0387,1.289978 -0.23724,1.719529 -0.80305,1.737947 -3.26484,2.711062 -6.0066,2.374329 z m 2.58638,-0.316666 c 1.3958,-0.264708 2.71393,-1.184845 3.17826,-2.218626 0.36812,-0.819572 0.36779,-2.298259 -6.9e-4,-3.118733 -0.47245,-1.051969 -1.49348,-1.714047 -3.40863,-2.210284 -2.28246,-0.591413 -2.99239,-0.976764 -3.12764,-1.697689 -0.17937,-0.95614 0.58964,-1.590929 1.93275,-1.595404 0.94564,-0.0032 1.56856,0.310876 1.96541,0.990801 0.27537,0.471781 0.30059,0.486543 0.87937,0.514632 0.32773,0.01591 0.84236,-0.03339 1.14362,-0.109549 0.48384,-0.122312 0.55198,-0.175477 0.58395,-0.455631 0.0569,-0.498579 -0.28497,-1.230964 -0.84075,-1.80113 -1.56832,-1.608904 -4.76805,-1.908937 -6.784274,-0.636148 -0.533206,0.336598 -1.23539,1.149383 -1.413293,1.635899 -0.190646,0.521365 -0.174433,1.925096 0.02913,2.522535 0.23125,0.678681 1.014829,1.531892 1.720513,1.873409 0.31347,0.151703 1.23546,0.455157 2.04887,0.674341 0.8134,0.219185 1.71052,0.523016 1.99359,0.675179 1.17321,0.630661 1.12306,2.029251 -0.092,2.56675 -0.4045,0.178931 -0.67836,0.214924 -1.40199,0.184259 -1.1104,-0.04706 -1.6272,-0.336888 -2.0479,-1.1485 l -0.2762,-0.532854 -1.006224,0.01512 c -1.245629,0.01872 -1.38089,0.104596 -1.295835,0.822756 0.08402,0.709415 0.392651,1.26677 1.033288,1.866011 0.976911,0.913786 1.988931,1.275841 3.598731,1.287466 0.5491,0.004 1.2637,-0.04311 1.58799,-0.104608 z m 48.163941,0.334576 c -2.48965,-0.454016 -4.23565,-1.941755 -4.98192,-4.245016 -0.36664,-1.131595 -0.46169,-3.099995 -0.20781,-4.303511 0.5131,-2.432334 2.3578,-4.357512 4.77571,-4.984056 0.91375,-0.236776 2.49155,-0.237994 3.39778,-0.0026 2.07193,0.538137 3.77616,2.171907 4.44999,4.266017 0.37588,1.168149 0.47164,3.027447 0.21746,4.222395 -0.64659,3.0398 -2.96746,4.983633 -6.0916,5.101992 -0.57239,0.02169 -1.27422,-0.0032 -1.55961,-0.0552 z m 3.03853,-0.406814 c 2.06174,-0.511406 3.69548,-2.196244 4.29074,-4.424941 0.23215,-0.869168 0.25992,-2.864742 0.0517,-3.716772 -1.15315,-4.71927 -6.56422,-6.483426 -10.33663,-3.37002 -1.65454,1.36551 -2.48091,4.092426 -2.01628,6.653459 0.42222,2.327225 2.09548,4.23748 4.23098,4.830222 1.10388,0.306398 2.61218,0.317593 3.77946,0.02805 z m -3.30703,-2.441356 c -1.03541,-0.523462 -1.61115,-1.289742 -1.95187,-2.597869 -0.57508,-2.207869 0.32939,-4.548885 2.07077,-5.359728 0.78821,-0.367014 1.97612,-0.365517 2.76866,0.0035 1.37937,0.642238 2.22704,2.167233 2.22704,4.006544 0,1.349771 -0.45883,2.54083 -1.29075,3.3506 -0.66084,0.643247 -1.16166,0.845756 -2.21484,0.895591 -0.8698,0.04116 -0.97584,0.02148 -1.60901,-0.298627 z m 2.88394,-0.257069 c 2.3063,-1.170656 2.68953,-5.10992 0.67346,-6.922542 -1.77373,-1.594735 -4.3852,-0.762931 -5.16005,1.643578 -0.7659,2.378715 0.24406,4.896106 2.22501,5.546007 0.52356,0.171766 1.66188,0.03736 2.26158,-0.267043 z m -31.784491,3.027804 c -0.40171,-0.107063 -0.60252,-0.379656 -0.60252,-0.817925 0,-0.267654 0.29263,-1.143962 0.80829,-2.420499 0.44455,-1.100526 1.40774,-3.627767 2.1404,-5.616092 0.73267,-1.988325 1.38648,-3.753029 1.45291,-3.921564 0.19787,-0.501958 0.5875,-0.624938 1.97422,-0.623129 0.75835,9.89e-4 1.34397,0.05404 1.51175,0.136937 0.38495,0.190202 0.53711,0.537312 2.58061,5.886676 2.53149,6.626817 2.49491,6.523234 2.4156,6.839221 -0.10345,0.412181 -0.39145,0.505276 -1.607,0.519455 -1.36983,0.01598 -1.40054,-0.0087 -1.94958,-1.56679 l -0.40032,-1.136029 -2.46416,-0.02921 -2.46416,-0.02921 -0.42035,1.198523 c -0.23119,0.659187 -0.51976,1.288548 -0.64125,1.398579 -0.1736,0.157219 -0.42373,0.204274 -1.16812,0.219753 -0.52097,0.01083 -1.04581,-0.0066 -1.16632,-0.0387 z m 1.99136,-0.316393 c 0.18179,-0.03675 0.31605,-0.250231 0.56419,-0.897137 0.17909,-0.466901 0.3879,-1.059269 0.46402,-1.316372 l 0.1384,-0.46746 2.67988,0.02926 2.67988,0.02926 0.40142,1.124502 c 0.56005,1.568859 0.54912,1.559463 1.81312,1.559463 0.96881,0 1.05065,-0.01738 1.20729,-0.256434 0.15899,-0.242652 0.10379,-0.42368 -1.02717,-3.368649 -0.65736,-1.711719 -1.62529,-4.246055 -2.15096,-5.631857 -1.18261,-3.117624 -1.30914,-3.38936 -1.65069,-3.54498 -0.15081,-0.06871 -0.78675,-0.124932 -1.4132,-0.124932 -1.03023,0 -1.16413,0.02354 -1.40205,0.246487 -0.18175,0.17032 -0.62738,1.245115 -1.44211,3.478199 -0.64849,1.777442 -1.64206,4.399778 -2.20794,5.827413 -0.56587,1.427635 -1.02811,2.684716 -1.02718,2.793514 0.003,0.400704 0.19575,0.525251 0.89807,0.581504 0.665,0.05326 0.96889,0.04053 1.47503,-0.06179 z m 2.05507,-5.011046 c -0.0842,-0.219438 1.62989,-4.732122 1.79745,-4.732122 0.14393,0 1.76924,4.301307 1.76963,4.683245 1.7e-4,0.174618 -0.1564,0.191711 -1.75604,0.191711 -1.3426,0 -1.76914,-0.03364 -1.81104,-0.142834 z m 2.9538,-1.144373 c -0.21473,-0.58746 -0.53884,-1.487136 -0.72024,-1.99928 -0.1814,-0.512145 -0.36401,-0.967469 -0.40581,-1.011832 -0.0626,-0.0665 -0.37598,0.723557 -1.51845,3.828789 -0.0359,0.0975 0.25347,0.142497 1.08416,0.168608 0.6232,0.01959 1.31707,0.04601 1.54193,0.05872 l 0.40885,0.0231 z m -20.5296,6.216939 c -0.21401,-0.214005 -0.2191,-0.365165 -0.2191,-6.501222 0,-5.946891 0.0107,-6.291797 0.20034,-6.463426 0.16112,-0.145813 0.43868,-0.181303 1.41793,-0.181303 1.64808,0 1.55867,-0.161652 1.55867,2.81789 v 2.330941 h 2.62919 2.62919 v -2.393112 c 0,-2.933467 -0.10075,-2.755719 1.56188,-2.755719 0.94826,0 1.19547,0.03426 1.34803,0.186821 0.17292,0.172919 0.18304,0.653716 0.13604,6.461556 -0.0476,5.88019 -0.0633,6.28863 -0.25075,6.495705 -0.17414,0.192427 -0.33612,0.220968 -1.25411,0.220968 -1.63264,0 -1.54109,0.166316 -1.54109,-2.799726 v -2.458654 h -2.68397 -2.68396 v 2.410091 c 0,2.990674 0.0767,2.848289 -1.5337,2.848289 -0.94943,0 -1.12471,-0.02921 -1.31459,-0.219099 z m 2.41009,-0.219099 c 0.20582,-0.205821 0.2191,-0.365166 0.2191,-2.62919 v -2.410091 h 2.90306 2.90307 l 0.002,2.437478 c 9.3e-4,1.343201 0.0483,2.51125 0.10549,2.601803 0.1555,0.246145 1.98294,0.304334 2.2167,0.07058 0.14622,-0.14622 0.17994,-0.995673 0.25048,-6.309423 0.0642,-4.833289 0.0525,-6.175416 -0.0548,-6.304684 -0.19994,-0.240905 -2.10502,-0.234476 -2.34741,0.0079 -0.14604,0.14604 -0.17215,0.536768 -0.17215,2.576234 v 2.404085 l -2.87568,-0.02921 -2.87568,-0.02921 -0.0193,-2.453387 c -0.0149,-1.900009 -0.052,-2.47413 -0.16433,-2.545351 -0.0798,-0.05058 -0.59752,-0.09272 -1.15055,-0.09364 -0.76664,-0.0013 -1.04612,0.03893 -1.17643,0.16924 -0.15081,0.150812 -0.17077,0.891287 -0.16964,6.294647 l 10e-4,6.123729 0.24096,0.168779 c 0.16688,0.116883 0.50295,0.168779 1.09299,0.168779 0.70595,0 0.88958,-0.03756 1.07112,-0.219099 z M 28.808506,25.227088 c -1.502937,-1.175201 -1.895182,-1.536709 -1.953001,-1.799959 -0.116948,-0.53246 -0.5881,0.153964 5.504059,-8.018893 1.512419,-2.028966 2.848919,-3.742048 2.969999,-3.806848 0.589409,-0.315442 0.725554,-0.235569 4.858725,2.850507 2.186508,1.63258 4.037091,3.046976 4.112406,3.143102 0.38698,0.493908 0.26132,0.71189 -2.770628,4.806198 -1.599161,2.159489 -3.009595,4.012613 -3.1343,4.118055 -0.206629,0.174712 -0.558372,0.191121 -3.966672,0.185049 l -3.739937,-0.0067 z m 9.340729,1.180935 c 0.147436,-0.09868 5.76194,-7.649583 5.948118,-7.999581 0.07332,-0.137843 0.102019,-0.349235 0.06377,-0.46976 -0.06681,-0.210505 -7.565348,-5.900957 -8.092326,-6.141064 -0.191909,-0.08744 -0.328078,-0.07962 -0.538745,0.03095 -0.157633,0.08273 -2.071697,2.555057 -4.341588,5.607861 -3.020477,4.062275 -4.059665,5.536621 -4.059665,5.759645 0,0.363542 0.06226,0.422835 2.128012,2.026491 l 1.635039,1.269294 3.568567,-0.0017 c 1.962712,-9.23e-4 3.622682,-0.0379 3.688822,-0.08216 z"
           id="path34" /><path
           style="fill:#000000;fill-opacity:0;stroke-width:0"
           d="m 72.17543,176.21656 -1.696028,-1.81125 V 141.9132 109.4211 l 3.907321,-4.39504 c 2.149027,-2.41727 5.955292,-6.515078 8.458366,-9.106233 l 4.551045,-4.71119 h 5.01476 c 5.012778,0 5.016597,0.0016 9.661096,4.145847 l 4.64634,4.145848 h -7.478688 -7.478684 l -2.896611,3.203608 -2.896611,3.20361 18.450044,0.4266 c 20.8088,0.48113 63.30058,-0.0357 63.30058,-0.76989 0,-0.26479 -1.28632,-1.7375 -2.85849,-3.27268 -2.72122,-2.657191 -3.10116,-2.791248 -7.91085,-2.791248 h -5.05236 l 3.19966,-4.142975 c 3.19324,-4.134656 3.20803,-4.142981 7.36573,-4.145848 4.15653,-0.0029 4.1773,0.0088 9.08113,5.085213 2.70328,2.798447 6.51024,6.854388 8.45992,9.013188 l 3.54486,3.92511 -0.0115,32.63373 c -0.006,17.94855 -0.29594,33.08226 -0.64352,33.63048 -1.00681,1.58792 -5.86097,2.35797 -14.98609,2.37732 l -8.48014,0.018 v -13.99467 c 0,-8.1569 -0.32376,-14.59963 -0.77614,-15.44491 -0.91915,-1.71745 -4.54498,-3.72719 -6.72433,-3.72719 -1.39448,0 -1.54502,-0.46407 -1.54502,-4.76283 0,-9.39779 -4.07459,-16.82353 -11.67545,-21.27793 -12.14723,-7.11875 -28.89771,-0.90776 -33.43241,12.39656 -0.48034,1.40927 -0.87335,5.01135 -0.87335,8.00462 v 5.44232 l -2.74636,0.44567 c -1.51049,0.24512 -3.545728,1.19665 -4.52274,2.1145 -1.734349,1.62934 -1.776658,1.98234 -1.787928,14.91721 -0.0063,7.28661 -0.332936,13.75719 -0.72575,14.37907 -0.562018,0.88975 -2.848439,1.18504 -10.72997,1.38578 -9.75894,0.24854 -10.059253,0.20864 -11.711792,-1.55617 z"
           id="path35"
           transform="scale(0.26458333)" /><path
           style="fill:#000000;fill-opacity:0;stroke-width:0"
           d="m 72.17543,176.21656 -1.696028,-1.81125 V 141.9132 109.4211 l 3.907321,-4.39504 c 2.149027,-2.41727 5.955292,-6.515078 8.458366,-9.106233 l 4.551045,-4.71119 h 5.01476 c 5.012778,0 5.016597,0.0016 9.661096,4.145847 l 4.64634,4.145848 h -7.478688 -7.478684 l -2.896611,3.203608 -2.896611,3.20361 18.450044,0.4266 c 20.8088,0.48113 63.30058,-0.0357 63.30058,-0.76989 0,-0.26479 -1.28632,-1.7375 -2.85849,-3.27268 -2.72122,-2.657191 -3.10116,-2.791248 -7.91085,-2.791248 h -5.05236 l 3.19966,-4.142975 c 3.19324,-4.134656 3.20803,-4.142981 7.36573,-4.145848 4.15653,-0.0029 4.1773,0.0088 9.08113,5.085213 2.70328,2.798447 6.51024,6.854388 8.45992,9.013188 l 3.54486,3.92511 -0.0115,32.63373 c -0.006,17.94855 -0.29594,33.08226 -0.64352,33.63048 -1.00681,1.58792 -5.86097,2.35797 -14.98609,2.37732 l -8.48014,0.018 v -13.99467 c 0,-8.1569 -0.32376,-14.59963 -0.77614,-15.44491 -0.91915,-1.71745 -4.54498,-3.72719 -6.72433,-3.72719 -1.39448,0 -1.54502,-0.46407 -1.54502,-4.76283 0,-9.39779 -4.07459,-16.82353 -11.67545,-21.27793 -12.14723,-7.11875 -28.89771,-0.90776 -33.43241,12.39656 -0.48034,1.40927 -0.87335,5.01135 -0.87335,8.00462 v 5.44232 l -2.74636,0.44567 c -1.51049,0.24512 -3.545728,1.19665 -4.52274,2.1145 -1.734349,1.62934 -1.776658,1.98234 -1.787928,14.91721 -0.0063,7.28661 -0.332936,13.75719 -0.72575,14.37907 -0.562018,0.88975 -2.848439,1.18504 -10.72997,1.38578 -9.75894,0.24854 -10.059253,0.20864 -11.711792,-1.55617 z"
           id="path36"
           transform="scale(0.26458333)" /><path
           style="fill:#00b0b3;fill-opacity:1;stroke-width:0"
           d="m 227.21178,175.08943 c -3.88631,-0.54531 -7.86251,-2.22093 -11.0761,-4.66761 -2.91231,-2.21729 -4.97934,-4.98693 -6.6703,-8.93762 -1.50404,-3.51395 -1.7877,-5.54676 -1.66113,-11.90426 0.10233,-5.1406 0.15951,-5.67071 0.80451,-7.45882 2.60814,-7.23044 7.14376,-11.90195 14.29097,-14.71911 3.63136,-1.43135 9.43688,-1.78975 13.47111,-0.83162 5.76128,1.3683 10.58516,4.90506 13.02633,9.55061 1.0475,1.9934 1.56266,4.3696 1.02003,4.70496 -0.47184,0.29162 -5.54849,1.22128 -6.66908,1.22128 -0.94043,0 -1.1023,-0.12024 -2.12555,-1.57899 -2.98004,-4.24834 -7.86341,-6.40451 -12.8568,-5.67672 -2.95437,0.43061 -4.80306,1.39037 -7.03349,3.65149 -3.25146,3.29622 -4.49752,6.62064 -4.49752,11.99914 0,5.23212 1.25372,8.73026 4.19569,11.70682 3.34275,3.38206 5.31439,4.26283 9.49626,4.24218 2.14772,-0.0106 3.1545,-0.14346 4.33037,-0.57142 2.10387,-0.76572 4.28421,-2.26821 5.61455,-3.86905 2.12155,-2.55295 2.47871,-2.84712 3.45672,-2.84712 1.11198,0 3.29546,0.39711 5.1871,0.94337 1.35199,0.39043 1.39915,0.4362 1.39915,1.3579 0,2.22336 -3.10822,6.89108 -6.19927,9.30966 -2.18071,1.70629 -5.45233,3.35587 -7.88687,3.97663 -2.02986,0.51758 -7.23126,0.73301 -9.61668,0.3983 z"
           id="path38"
           transform="scale(0.26458333)" /><path
           style="fill:#00b0b3;fill-opacity:1;stroke-width:0"
           d="m 227.21178,175.08943 c -3.88631,-0.54531 -7.86251,-2.22093 -11.0761,-4.66761 -2.91231,-2.21729 -4.97934,-4.98693 -6.6703,-8.93762 -1.50404,-3.51395 -1.7877,-5.54676 -1.66113,-11.90426 0.10233,-5.1406 0.15951,-5.67071 0.80451,-7.45882 2.60814,-7.23044 7.14376,-11.90195 14.29097,-14.71911 3.63136,-1.43135 9.43688,-1.78975 13.47111,-0.83162 5.76128,1.3683 10.58516,4.90506 13.02633,9.55061 1.0475,1.9934 1.56266,4.3696 1.02003,4.70496 -0.47184,0.29162 -5.54849,1.22128 -6.66908,1.22128 -0.94043,0 -1.1023,-0.12024 -2.12555,-1.57899 -2.98004,-4.24834 -7.86341,-6.40451 -12.8568,-5.67672 -2.95437,0.43061 -4.80306,1.39037 -7.03349,3.65149 -3.25146,3.29622 -4.49752,6.62064 -4.49752,11.99914 0,5.23212 1.25372,8.73026 4.19569,11.70682 3.34275,3.38206 5.31439,4.26283 9.49626,4.24218 2.14772,-0.0106 3.1545,-0.14346 4.33037,-0.57142 2.10387,-0.76572 4.28421,-2.26821 5.61455,-3.86905 2.12155,-2.55295 2.47871,-2.84712 3.45672,-2.84712 1.11198,0 3.29546,0.39711 5.1871,0.94337 1.35199,0.39043 1.39915,0.4362 1.39915,1.3579 0,2.22336 -3.10822,6.89108 -6.19927,9.30966 -2.18071,1.70629 -5.45233,3.35587 -7.88687,3.97663 -2.02986,0.51758 -7.23126,0.73301 -9.61668,0.3983 z"
           id="path39"
           transform="scale(0.26458333)" /><path
           style="fill:#000000;fill-opacity:0;stroke-width:0"
           d="m 72.002478,176.70883 c -2.095468,-2.31943 -1.915773,1.01381 -1.876936,-34.81617 l 0.03469,-32.00194 0.736546,-1.17795 c 1.065771,-1.70447 3.923862,-4.88204 10.707841,-11.904775 l 5.985586,-6.196244 4.842088,6.51e-4 4.842087,6.51e-4 4.98764,4.437234 c 2.7432,2.440479 4.92479,4.538914 4.84799,4.663189 -0.0768,0.124275 -3.53865,0.225955 -7.692992,0.225955 h -7.553342 l -1.929004,2.065419 c -2.422252,2.59354 -3.315107,3.75865 -3.068997,4.00483 0.269804,0.26987 79.123305,0.38697 80.157305,0.11904 l 0.84405,-0.21872 -2.88416,-2.98528 -2.88416,-2.985289 h -5.32378 c -4.4442,0 -5.30021,-0.06141 -5.18114,-0.371708 0.0784,-0.204439 1.58681,-2.225528 3.3519,-4.49131 l 3.20927,-4.119602 1.80683,-0.170636 c 0.99376,-0.09385 2.84671,-0.171488 4.11766,-0.17253 l 2.31083,-0.0019 6.79056,6.99576 c 6.64979,6.850725 9.1417,9.551405 9.99472,10.832065 0.65422,0.98217 0.886,13.02509 0.79302,41.20306 l -0.08,24.25197 -0.66626,1.32806 c -1.22638,2.44452 -0.94043,2.39013 -13.08264,2.48839 l -10.55085,0.0854 -0.17598,-4.85857 c -0.0968,-2.67221 -0.18126,-8.22729 -0.1877,-12.34462 -0.006,-4.11732 -0.11382,-8.36779 -0.23864,-9.44548 -0.29651,-2.56021 -1.17465,-3.83419 -3.47146,-5.03632 -1.39464,-0.72994 -1.93974,-0.86614 -3.46646,-0.86614 h -1.8116 l -0.13097,-5.39673 c -0.10852,-4.4717 -0.22913,-5.73151 -0.70366,-7.34985 -1.96384,-6.69753 -7.46195,-12.65365 -13.91759,-15.07697 -4.89358,-1.83696 -10.80239,-2.00121 -15.48907,-0.43055 -5.94738,1.99315 -10.83198,6.2736 -13.53856,11.86403 -1.57237,3.24772 -1.87922,4.87535 -2.04323,10.83777 -0.16236,5.90265 -0.007,5.54082 -2.37553,5.54866 -1.31601,0.004 -3.073232,0.58751 -4.024069,1.33544 -0.870637,0.68484 -2.064969,2.32606 -2.327792,3.19878 -0.110355,0.36645 -0.277934,6.6971 -0.372398,14.06811 -0.147314,11.49496 -0.228632,13.43778 -0.57151,13.65431 -0.234234,0.14793 -4.828462,0.25415 -11.095579,0.25654 l -10.69582,0.004 z"
           id="path40"
           transform="scale(0.26458333)" /><path
           style="fill:#000000;fill-opacity:0;stroke-width:0"
           d="m 72.002478,176.70883 c -2.095468,-2.31943 -1.915773,1.01381 -1.876936,-34.81617 l 0.03469,-32.00194 0.736546,-1.17795 c 1.065771,-1.70447 3.923862,-4.88204 10.707841,-11.904775 l 5.985586,-6.196244 4.842088,6.51e-4 4.842087,6.51e-4 4.98764,4.437234 c 2.7432,2.440479 4.92479,4.538914 4.84799,4.663189 -0.0768,0.124275 -3.53865,0.225955 -7.692992,0.225955 h -7.553342 l -1.929004,2.065419 c -2.422252,2.59354 -3.315107,3.75865 -3.068997,4.00483 0.269804,0.26987 79.123305,0.38697 80.157305,0.11904 l 0.84405,-0.21872 -2.88416,-2.98528 -2.88416,-2.985289 h -5.32378 c -4.4442,0 -5.30021,-0.06141 -5.18114,-0.371708 0.0784,-0.204439 1.58681,-2.225528 3.3519,-4.49131 l 3.20927,-4.119602 1.80683,-0.170636 c 0.99376,-0.09385 2.84671,-0.171488 4.11766,-0.17253 l 2.31083,-0.0019 6.79056,6.99576 c 6.64979,6.850725 9.1417,9.551405 9.99472,10.832065 0.65422,0.98217 0.886,13.02509 0.79302,41.20306 l -0.08,24.25197 -0.66626,1.32806 c -1.22638,2.44452 -0.94043,2.39013 -13.08264,2.48839 l -10.55085,0.0854 -0.17598,-4.85857 c -0.0968,-2.67221 -0.18126,-8.22729 -0.1877,-12.34462 -0.006,-4.11732 -0.11382,-8.36779 -0.23864,-9.44548 -0.29651,-2.56021 -1.17465,-3.83419 -3.47146,-5.03632 -1.39464,-0.72994 -1.93974,-0.86614 -3.46646,-0.86614 h -1.8116 l -0.13097,-5.39673 c -0.10852,-4.4717 -0.22913,-5.73151 -0.70366,-7.34985 -1.96384,-6.69753 -7.46195,-12.65365 -13.91759,-15.07697 -4.89358,-1.83696 -10.80239,-2.00121 -15.48907,-0.43055 -5.94738,1.99315 -10.83198,6.2736 -13.53856,11.86403 -1.57237,3.24772 -1.87922,4.87535 -2.04323,10.83777 -0.16236,5.90265 -0.007,5.54082 -2.37553,5.54866 -1.31601,0.004 -3.073232,0.58751 -4.024069,1.33544 -0.870637,0.68484 -2.064969,2.32606 -2.327792,3.19878 -0.110355,0.36645 -0.277934,6.6971 -0.372398,14.06811 -0.147314,11.49496 -0.228632,13.43778 -0.57151,13.65431 -0.234234,0.14793 -4.828462,0.25415 -11.095579,0.25654 l -10.69582,0.004 z"
           id="path41"
           transform="scale(0.26458333)" /><path
           style="fill:#000000;fill-opacity:0;stroke-width:0"
           d="m 72.002478,176.70883 c -2.095468,-2.31943 -1.915773,1.01381 -1.876936,-34.81617 l 0.03469,-32.00194 0.736546,-1.17795 c 1.065771,-1.70447 3.923862,-4.88204 10.707841,-11.904775 l 5.985586,-6.196244 4.842088,6.51e-4 4.842087,6.51e-4 4.98764,4.437234 c 2.7432,2.440479 4.92479,4.538914 4.84799,4.663189 -0.0768,0.124275 -3.53865,0.225955 -7.692992,0.225955 h -7.553342 l -1.929004,2.065419 c -2.422252,2.59354 -3.315107,3.75865 -3.068997,4.00483 0.269804,0.26987 79.123305,0.38697 80.157305,0.11904 l 0.84405,-0.21872 -2.88416,-2.98528 -2.88416,-2.985289 h -5.32378 c -4.4442,0 -5.30021,-0.06141 -5.18114,-0.371708 0.0784,-0.204439 1.58681,-2.225528 3.3519,-4.49131 l 3.20927,-4.119602 1.80683,-0.170636 c 0.99376,-0.09385 2.84671,-0.171488 4.11766,-0.17253 l 2.31083,-0.0019 6.79056,6.99576 c 6.64979,6.850725 9.1417,9.551405 9.99472,10.832065 0.65422,0.98217 0.886,13.02509 0.79302,41.20306 l -0.08,24.25197 -0.66626,1.32806 c -1.22638,2.44452 -0.94043,2.39013 -13.08264,2.48839 l -10.55085,0.0854 -0.17598,-4.85857 c -0.0968,-2.67221 -0.18126,-8.22729 -0.1877,-12.34462 -0.006,-4.11732 -0.11382,-8.36779 -0.23864,-9.44548 -0.29651,-2.56021 -1.17465,-3.83419 -3.47146,-5.03632 -1.39464,-0.72994 -1.93974,-0.86614 -3.46646,-0.86614 h -1.8116 l -0.13097,-5.39673 c -0.10852,-4.4717 -0.22913,-5.73151 -0.70366,-7.34985 -1.96384,-6.69753 -7.46195,-12.65365 -13.91759,-15.07697 -4.89358,-1.83696 -10.80239,-2.00121 -15.48907,-0.43055 -5.94738,1.99315 -10.83198,6.2736 -13.53856,11.86403 -1.57237,3.24772 -1.87922,4.87535 -2.04323,10.83777 -0.16236,5.90265 -0.007,5.54082 -2.37553,5.54866 -1.31601,0.004 -3.073232,0.58751 -4.024069,1.33544 -0.870637,0.68484 -2.064969,2.32606 -2.327792,3.19878 -0.110355,0.36645 -0.277934,6.6971 -0.372398,14.06811 -0.147314,11.49496 -0.228632,13.43778 -0.57151,13.65431 -0.234234,0.14793 -4.828462,0.25415 -11.095579,0.25654 l -10.69582,0.004 z"
           id="path42"
           transform="scale(0.26458333)" /><path
           style="fill:#002255;fill-opacity:0;stroke-width:0"
           d="m 72.002478,176.70883 c -2.095468,-2.31943 -1.915773,1.01381 -1.876936,-34.81617 l 0.03469,-32.00194 0.736546,-1.17795 c 1.065771,-1.70447 3.923862,-4.88204 10.707841,-11.904775 l 5.985586,-6.196244 4.842088,6.51e-4 4.842087,6.51e-4 4.98764,4.437234 c 2.7432,2.440479 4.92479,4.538914 4.84799,4.663189 -0.0768,0.124275 -3.53865,0.225955 -7.692992,0.225955 h -7.553342 l -1.929004,2.065419 c -2.422252,2.59354 -3.315107,3.75865 -3.068997,4.00483 0.269804,0.26987 79.123305,0.38697 80.157305,0.11904 l 0.84405,-0.21872 -2.88416,-2.98528 -2.88416,-2.985289 h -5.32378 c -4.4442,0 -5.30021,-0.06141 -5.18114,-0.371708 0.0784,-0.204439 1.58681,-2.225528 3.3519,-4.49131 l 3.20927,-4.119602 1.80683,-0.170636 c 0.99376,-0.09385 2.84671,-0.171488 4.11766,-0.17253 l 2.31083,-0.0019 6.79056,6.99576 c 6.64979,6.850725 9.1417,9.551405 9.99472,10.832065 0.65422,0.98217 0.886,13.02509 0.79302,41.20306 l -0.08,24.25197 -0.66626,1.32806 c -1.22638,2.44452 -0.94043,2.39013 -13.08264,2.48839 l -10.55085,0.0854 -0.17598,-4.85857 c -0.0968,-2.67221 -0.18126,-8.22729 -0.1877,-12.34462 -0.006,-4.11732 -0.11382,-8.36779 -0.23864,-9.44548 -0.29651,-2.56021 -1.17465,-3.83419 -3.47146,-5.03632 -1.39464,-0.72994 -1.93974,-0.86614 -3.46646,-0.86614 h -1.8116 l -0.13097,-5.39673 c -0.10852,-4.4717 -0.22913,-5.73151 -0.70366,-7.34985 -1.96384,-6.69753 -7.46195,-12.65365 -13.91759,-15.07697 -4.89358,-1.83696 -10.80239,-2.00121 -15.48907,-0.43055 -5.94738,1.99315 -10.83198,6.2736 -13.53856,11.86403 -1.57237,3.24772 -1.87922,4.87535 -2.04323,10.83777 -0.16236,5.90265 -0.007,5.54082 -2.37553,5.54866 -1.31601,0.004 -3.073232,0.58751 -4.024069,1.33544 -0.870637,0.68484 -2.064969,2.32606 -2.327792,3.19878 -0.110355,0.36645 -0.277934,6.6971 -0.372398,14.06811 -0.147314,11.49496 -0.228632,13.43778 -0.57151,13.65431 -0.234234,0.14793 -4.828462,0.25415 -11.095579,0.25654 l -10.69582,0.004 z"
           id="path43"
           transform="scale(0.26458333)" /><path
           style="fill:#000000;fill-opacity:0;stroke-width:0"
           d="m 72.002478,176.70883 c -2.095468,-2.31943 -1.915773,1.01381 -1.876936,-34.81617 l 0.03469,-32.00194 0.736546,-1.17795 c 1.065771,-1.70447 3.923862,-4.88204 10.707841,-11.904775 l 5.985586,-6.196244 4.842088,6.51e-4 4.842087,6.51e-4 4.98764,4.437234 c 2.7432,2.440479 4.92479,4.538914 4.84799,4.663189 -0.0768,0.124275 -3.53865,0.225955 -7.692992,0.225955 h -7.553342 l -1.929004,2.065419 c -2.422252,2.59354 -3.315107,3.75865 -3.068997,4.00483 0.269804,0.26987 79.123305,0.38697 80.157305,0.11904 l 0.84405,-0.21872 -2.88416,-2.98528 -2.88416,-2.985289 h -5.32378 c -4.4442,0 -5.30021,-0.06141 -5.18114,-0.371708 0.0784,-0.204439 1.58681,-2.225528 3.3519,-4.49131 l 3.20927,-4.119602 1.80683,-0.170636 c 0.99376,-0.09385 2.84671,-0.171488 4.11766,-0.17253 l 2.31083,-0.0019 6.79056,6.99576 c 6.64979,6.850725 9.1417,9.551405 9.99472,10.832065 0.65422,0.98217 0.886,13.02509 0.79302,41.20306 l -0.08,24.25197 -0.66626,1.32806 c -1.22638,2.44452 -0.94043,2.39013 -13.08264,2.48839 l -10.55085,0.0854 -0.17598,-4.85857 c -0.0968,-2.67221 -0.18126,-8.22729 -0.1877,-12.34462 -0.006,-4.11732 -0.11382,-8.36779 -0.23864,-9.44548 -0.29651,-2.56021 -1.17465,-3.83419 -3.47146,-5.03632 -1.39464,-0.72994 -1.93974,-0.86614 -3.46646,-0.86614 h -1.8116 l -0.13097,-5.39673 c -0.10852,-4.4717 -0.22913,-5.73151 -0.70366,-7.34985 -1.96384,-6.69753 -7.46195,-12.65365 -13.91759,-15.07697 -4.89358,-1.83696 -10.80239,-2.00121 -15.48907,-0.43055 -5.94738,1.99315 -10.83198,6.2736 -13.53856,11.86403 -1.57237,3.24772 -1.87922,4.87535 -2.04323,10.83777 -0.16236,5.90265 -0.007,5.54082 -2.37553,5.54866 -1.31601,0.004 -3.073232,0.58751 -4.024069,1.33544 -0.870637,0.68484 -2.064969,2.32606 -2.327792,3.19878 -0.110355,0.36645 -0.277934,6.6971 -0.372398,14.06811 -0.147314,11.49496 -0.228632,13.43778 -0.57151,13.65431 -0.234234,0.14793 -4.828462,0.25415 -11.095579,0.25654 l -10.69582,0.004 z"
           id="path44"
           transform="scale(0.26458333)" /><path
           style="fill:#000000;fill-opacity:0;stroke-width:0"
           d="m 111.00094,95.469886 c -6.77731,-5.274819 -8.26321,-6.632966 -8.26321,-7.552804 0,-1.136919 4.74673,-7.86745 18.11822,-25.690409 9.85802,-13.139828 13.29058,-17.432742 14.10245,-17.637163 0.378,-0.09518 0.98064,0.02246 1.47275,0.287477 1.94018,1.044854 18.02936,13.076561 26.47012,19.794713 3.38211,2.691879 3.7977,3.110835 3.7977,3.828451 0,0.931992 -0.65809,1.875754 -11.33009,16.248486 -11.3607,15.300253 -10.97877,14.835862 -12.35944,15.027996 -0.64341,0.08954 -6.81967,0.160285 -13.72501,0.157214 l -12.55517,-0.0056 z"
           id="path45"
           transform="scale(0.26458333)" /><path
           style="fill:#000000;fill-opacity:0;stroke-width:0"
           d="m 111.00094,95.469886 c -6.77731,-5.274819 -8.26321,-6.632966 -8.26321,-7.552804 0,-1.136919 4.74673,-7.86745 18.11822,-25.690409 9.85802,-13.139828 13.29058,-17.432742 14.10245,-17.637163 0.378,-0.09518 0.98064,0.02246 1.47275,0.287477 1.94018,1.044854 18.02936,13.076561 26.47012,19.794713 3.38211,2.691879 3.7977,3.110835 3.7977,3.828451 0,0.931992 -0.65809,1.875754 -11.33009,16.248486 -11.3607,15.300253 -10.97877,14.835862 -12.35944,15.027996 -0.64341,0.08954 -6.81967,0.160285 -13.72501,0.157214 l -12.55517,-0.0056 z"
           id="path46"
           transform="scale(0.26458333)" /><path
           style="fill:#000000;fill-opacity:0;stroke-width:0"
           d="m 221.73228,110.86574 c -3.76773,-0.56668 -6.62029,-1.99242 -9.52324,-4.75983 -2.25173,-2.1466 -3.20629,-3.7506 -3.69902,-6.21562 -0.6007,-3.00524 -0.16921,-3.303915 5.04176,-3.489864 l 3.27921,-0.117017 0.62697,1.228376 c 1.99169,3.902155 3.60846,4.868235 8.4407,5.043635 3.68477,0.13375 5.30556,-0.2809 6.9706,-1.78332 1.85788,-1.676406 2.29777,-3.876512 1.22015,-6.102579 -1.04935,-2.167652 -2.76932,-3.020135 -10.89135,-5.398155 -6.26406,-1.834034 -8.507,-2.929628 -10.61837,-5.186686 -0.90356,-0.965908 -1.94311,-2.348759 -2.31011,-3.073002 -1.38427,-2.73173 -1.53812,-8.344863 -0.30269,-11.043409 0.79766,-1.742312 3.65692,-4.798847 5.54314,-5.925593 3.31506,-1.980265 8.53923,-2.987364 12.9214,-2.490945 4.97106,0.56313 8.75153,2.243394 11.69273,5.196941 2.2785,2.288068 3.17474,3.977656 3.18653,6.007234 0.008,1.441273 -0.009,1.474227 -1.02658,1.971166 -1.09893,0.536553 -5.37169,0.916214 -6.6632,0.592066 -0.43701,-0.109684 -1.01006,-0.680273 -1.58351,-1.576724 -1.91605,-2.995267 -3.44546,-3.749844 -7.64128,-3.770052 -2.83602,-0.01366 -3.17872,0.04118 -4.59078,0.734584 -1.79525,0.881573 -2.62628,1.924646 -2.80637,3.522431 -0.43836,3.889128 1.49874,5.314246 10.86172,7.990925 6.63032,1.895469 9.13546,3.080586 11.48409,5.432822 2.01959,2.022682 2.77249,3.658581 3.18643,6.923405 0.28393,2.239421 0.003,5.310392 -0.65435,7.164741 -1.54503,4.35539 -7.20428,8.30053 -13.0834,9.1206 -2.13527,0.29784 -7.09249,0.29996 -9.06118,0.004 z"
           id="path47"
           transform="scale(0.26458333)" /><path
           style="fill:#000000;fill-opacity:0;stroke-width:0"
           d="m 253.85257,111.39322 c -1.49036,-0.35054 -1.79722,-0.97246 -2.00123,-4.05593 -0.25276,-3.82039 -0.0426,-44.203344 0.23303,-44.78261 0.124,-0.260583 0.48119,-0.614672 0.79374,-0.786865 0.78504,-0.432492 7.43143,-0.615693 8.68721,-0.239454 1.69735,0.508539 1.73205,0.708438 1.8219,10.494655 l 0.0801,8.728044 h 10.1137 10.11369 l 4.1e-4,-8.594791 c 3.7e-4,-7.653226 0.0515,-8.695693 0.46639,-9.515842 0.33812,-0.668338 0.7219,-0.986506 1.39874,-1.159615 1.26066,-0.322427 7.71954,-0.104521 8.42502,0.284238 0.35393,0.19504 0.62509,0.685338 0.72995,1.319876 0.23212,1.404569 0.18481,29.443895 -0.0658,38.988434 -0.20951,7.97972 -0.32254,8.7879 -1.2865,9.19828 -0.86178,0.36687 -6.5389,0.47022 -7.75622,0.14119 -1.87614,-0.50709 -1.912,-0.71214 -1.912,-10.93183 v -8.803229 h -10.2225 -10.22251 l -0.13587,8.728039 c -0.15617,10.03276 -0.23862,10.48875 -1.98414,10.97345 -1.17641,0.32667 -5.90902,0.33574 -7.27714,0.014 z m 4.19104,-0.44428 c -0.25651,-0.067 -0.67626,-0.067 -0.93277,0 -0.25651,0.067 -0.0466,0.12188 0.46639,0.12188 0.51302,0 0.72289,-0.0549 0.46638,-0.12188 z m 34.51242,-0.24798 c 0.40309,-0.079 0.73289,-0.24366 0.73289,-0.36585 0,-0.1222 -0.3298,-0.11514 -0.73289,0.0157 -0.40309,0.13083 -1.45246,0.35356 -2.33192,0.49496 l -1.59903,0.25708 1.59903,-0.1291 c 0.87946,-0.071 1.92883,-0.19376 2.33192,-0.27279 z m -37.37735,-0.0858 c -0.51302,-0.10432 -1.2026,-0.2785 -1.5324,-0.38707 -0.3298,-0.10856 -0.59964,-0.12548 -0.59964,-0.0376 0,0.29239 1.18683,0.64203 2.13204,0.62809 l 0.93277,-0.0138 z m 6.22693,-0.30138 c 0.38621,-0.3038 0.7022,-0.68448 0.7022,-0.84597 0,-0.16149 -0.29198,-0.0193 -0.64885,0.31594 -0.35687,0.33526 -1.04645,0.70368 -1.5324,0.8187 l -0.88356,0.20912 0.83021,0.0273 c 0.47166,0.0155 1.13346,-0.21126 1.5324,-0.52507 z m 26.35332,0.36427 c -0.3298,-0.0635 -0.86947,-0.0635 -1.19927,0 -0.3298,0.0635 -0.06,0.1155 0.59964,0.1155 0.6596,0 0.92943,-0.052 0.59963,-0.1155 z m -2.38422,-0.3973 c -0.36989,-0.17872 -0.62393,-0.58895 -0.69024,-1.11461 -0.10033,-0.79537 -0.10679,-0.789 -0.14757,0.14538 -0.0419,0.96091 0.18899,1.24276 1.02337,1.24903 0.23603,0.002 0.16004,-0.11282 -0.18556,-0.2798 z m -32.86583,-14.205654 -0.138,-13.858268 -0.0619,13.747223 c -0.034,7.560979 0.0181,13.827179 0.11579,13.924899 0.0977,0.0977 0.18767,0.14768 0.19988,0.11104 0.0122,-0.0366 -0.0399,-6.30285 -0.11579,-13.924894 z m 40.96375,12.459114 c -0.067,-0.25651 -0.12188,-0.0466 -0.12188,0.46639 0,0.51302 0.0548,0.72289 0.12188,0.46638 0.067,-0.25651 0.067,-0.67626 0,-0.93277 z m -20.1718,-17.389459 h 10.91942 l 0.0743,8.461538 0.0742,8.461541 0.0628,-8.594793 0.0627,-8.594791 h -11.19322 -11.19322 l 0.063,9.127804 0.063,9.1278 0.0738,-8.99455 0.0738,-8.994549 z m 20.45291,10.739019 c -0.0501,-1.14268 -0.0914,-0.27869 -0.0917,1.91998 -3.8e-4,2.19866 0.0406,3.13358 0.091,2.07759 0.0505,-1.05599 0.0507,-2.8549 6.8e-4,-3.99757 z m 0.26761,-15.735991 c -0.044,-2.455178 -0.08,-0.446396 -0.08,4.463962 0,4.910357 0.036,6.919139 0.08,4.463961 0.044,-2.455179 0.044,-6.472744 0,-8.927923 z m -41.59217,-4.647183 c -0.0851,-0.2126 -0.14823,-0.14945 -0.16102,0.161013 -0.0116,0.280941 0.0514,0.438346 0.13998,0.349788 0.0885,-0.08856 0.098,-0.318418 0.021,-0.510801 z m 26.66834,-0.149576 c -2.89492,-0.04303 -7.63204,-0.04303 -10.52696,0 -2.89491,0.04303 -0.52634,0.07823 5.26348,0.07823 5.78982,0 8.15839,-0.0352 5.26348,-0.07823 z M 262.57359,69.757723 c -0.045,-2.088734 -0.0819,-0.37977 -0.0819,3.797698 0,4.177468 0.0368,5.886433 0.0819,3.797698 0.045,-2.088734 0.045,-5.506662 0,-7.595396 z m 31.71409,-1.082653 c -0.0445,-2.226164 -0.0809,-0.329825 -0.0808,4.214088 1.2e-4,4.543913 0.0365,6.36532 0.081,4.047572 0.0444,-2.317749 0.0443,-6.035496 -2.1e-4,-8.26166 z m -41.84154,3.628936 c -0.0472,-1.583678 -0.086,-0.360941 -0.0862,2.717193 -2.2e-4,3.078135 0.0384,4.373872 0.0858,2.879416 0.0474,-1.494457 0.0476,-4.01293 4e-4,-5.596609 z m 0.72722,-9.542043 c 0.18339,-0.447903 0.15878,-0.47779 -0.15412,-0.187175 -0.2693,0.250117 -0.38205,1.135263 -0.40736,3.198062 l -0.035,2.852226 0.18913,-2.665052 c 0.10402,-1.465778 0.28733,-2.904906 0.40736,-3.198061 z m 9.1276,0.870914 c -0.0593,-0.479003 -0.10907,-0.151351 -0.11056,0.728116 -0.002,0.879467 0.047,1.271379 0.10784,0.870915 0.0608,-0.400464 0.062,-1.120028 0.003,-1.599031 z m 31.56324,-1.068498 c -0.41898,-0.418973 -2.39441,-0.71448 -4.57286,-0.684058 -1.96876,0.02749 -1.95867,0.03076 0.67166,0.217506 3.54401,0.251613 3.8493,0.36241 3.89886,1.414984 l 0.0399,0.848182 0.11415,-0.765355 c 0.0628,-0.420946 -0.005,-0.885012 -0.15174,-1.031259 z m -8.82941,0.330836 c 0.31671,-0.609443 0.30842,-0.63507 -0.0971,-0.300499 -0.24387,0.20117 -0.44339,0.550958 -0.44339,0.777306 0,0.483894 0.0762,0.416637 0.54054,-0.476807 z m -23.0824,-0.528536 c -0.14412,-0.144116 -1.69718,-0.317076 -3.45125,-0.384353 l -3.18921,-0.122324 2.93156,0.245563 c 1.61236,0.135059 3.11145,0.294106 3.33131,0.353438 0.21987,0.05933 0.45373,0.121789 0.51969,0.138792 0.066,0.017 0.002,-0.087 -0.1421,-0.231116 z m -7.23502,-0.179285 c -0.18043,-0.073 -0.54022,-0.07744 -0.79952,-0.0099 -0.2593,0.06757 -0.11167,0.1273 0.32806,0.132731 0.43974,0.0054 0.65189,-0.04985 0.47146,-0.122856 z m 32.1088,-0.0089 c -0.25651,-0.06703 -0.67626,-0.06703 -0.93277,0 -0.25651,0.06703 -0.0466,0.121879 0.46638,0.121879 0.51302,0 0.7229,-0.05485 0.46639,-0.121879 z"
           id="path48"
           transform="scale(0.26458333)" /><path
           style="fill:#002255;fill-opacity:0;stroke-width:0"
           d="m 255.09534,110.58799 c -0.70543,-0.1185 -1.58566,-0.41403 -1.95607,-0.65672 l -0.67347,-0.44128 0.0919,-22.69775 c 0.0791,-19.536817 0.14767,-22.809094 0.49246,-23.497267 0.35432,-0.707175 0.58972,-0.826485 2.03818,-1.033028 2.39967,-0.34218 6.65989,0.02186 6.90507,0.590051 0.10513,0.243637 0.2484,4.480342 0.31837,9.414899 0.12586,8.875744 0.13331,8.973555 0.69452,9.124163 0.31202,0.08373 5.27445,0.153877 11.02763,0.155878 l 10.46033,0.0036 v -8.621648 c 0,-9.343662 0.10179,-10.170365 1.29253,-10.497407 0.92809,-0.254906 6.37111,-0.258231 7.27503,-0.0044 0.65319,0.183389 0.71993,0.34016 0.89747,2.10798 0.38059,3.789796 -0.33366,44.162719 -0.8018,45.321549 -0.10137,0.25093 -0.44307,0.54145 -0.75933,0.64559 -0.92279,0.30388 -5.56397,0.20739 -6.60865,-0.13738 -0.89892,-0.29667 -0.96665,-0.39951 -1.1236,-1.7061 -0.0919,-0.76471 -0.16806,-5.07815 -0.16934,-9.585426 l -0.002,-8.195033 h -11.19322 -11.19322 v 9.046314 c 0,8.997735 -0.003,9.050055 -0.59963,9.741395 -0.94861,1.09959 -3.3233,1.44101 -6.41284,0.92203 z"
           id="path49"
           transform="scale(0.26458333)" /><path
           style="fill:#002255;fill-opacity:0;stroke-width:0"
           d="m 255.09534,110.58799 c -0.70543,-0.1185 -1.58566,-0.41403 -1.95607,-0.65672 l -0.67347,-0.44128 0.0919,-22.69775 c 0.0791,-19.536817 0.14767,-22.809094 0.49246,-23.497267 0.35432,-0.707175 0.58972,-0.826485 2.03818,-1.033028 2.39967,-0.34218 6.65989,0.02186 6.90507,0.590051 0.10513,0.243637 0.2484,4.480342 0.31837,9.414899 0.12586,8.875744 0.13331,8.973555 0.69452,9.124163 0.31202,0.08373 5.27445,0.153877 11.02763,0.155878 l 10.46033,0.0036 v -8.621648 c 0,-9.343662 0.10179,-10.170365 1.29253,-10.497407 0.92809,-0.254906 6.37111,-0.258231 7.27503,-0.0044 0.65319,0.183389 0.71993,0.34016 0.89747,2.10798 0.38059,3.789796 -0.33366,44.162719 -0.8018,45.321549 -0.10137,0.25093 -0.44307,0.54145 -0.75933,0.64559 -0.92279,0.30388 -5.56397,0.20739 -6.60865,-0.13738 -0.89892,-0.29667 -0.96665,-0.39951 -1.1236,-1.7061 -0.0919,-0.76471 -0.16806,-5.07815 -0.16934,-9.585426 l -0.002,-8.195033 h -11.19322 -11.19322 v 9.046314 c 0,8.997735 -0.003,9.050055 -0.59963,9.741395 -0.94861,1.09959 -3.3233,1.44101 -6.41284,0.92203 z"
           id="path50"
           transform="scale(0.26458333)" /><path
           style="fill:#002255;fill-opacity:0;stroke-width:0"
           d="m 255.09534,110.58799 c -0.70543,-0.1185 -1.58566,-0.41403 -1.95607,-0.65672 l -0.67347,-0.44128 0.0919,-22.69775 c 0.0791,-19.536817 0.14767,-22.809094 0.49246,-23.497267 0.35432,-0.707175 0.58972,-0.826485 2.03818,-1.033028 2.39967,-0.34218 6.65989,0.02186 6.90507,0.590051 0.10513,0.243637 0.2484,4.480342 0.31837,9.414899 0.12586,8.875744 0.13331,8.973555 0.69452,9.124163 0.31202,0.08373 5.27445,0.153877 11.02763,0.155878 l 10.46033,0.0036 v -8.621648 c 0,-9.343662 0.10179,-10.170365 1.29253,-10.497407 0.92809,-0.254906 6.37111,-0.258231 7.27503,-0.0044 0.65319,0.183389 0.71993,0.34016 0.89747,2.10798 0.38059,3.789796 -0.33366,44.162719 -0.8018,45.321549 -0.10137,0.25093 -0.44307,0.54145 -0.75933,0.64559 -0.92279,0.30388 -5.56397,0.20739 -6.60865,-0.13738 -0.89892,-0.29667 -0.96665,-0.39951 -1.1236,-1.7061 -0.0919,-0.76471 -0.16806,-5.07815 -0.16934,-9.585426 l -0.002,-8.195033 h -11.19322 -11.19322 v 9.046314 c 0,8.997735 -0.003,9.050055 -0.59963,9.741395 -0.94861,1.09959 -3.3233,1.44101 -6.41284,0.92203 z"
           id="path51"
           transform="scale(0.26458333)" /><path
           style="fill:#002255;fill-opacity:0;stroke-width:0"
           d="m 255.09534,110.58799 c -0.70543,-0.1185 -1.58566,-0.41403 -1.95607,-0.65672 l -0.67347,-0.44128 0.0919,-22.69775 c 0.0791,-19.536817 0.14767,-22.809094 0.49246,-23.497267 0.35432,-0.707175 0.58972,-0.826485 2.03818,-1.033028 2.39967,-0.34218 6.65989,0.02186 6.90507,0.590051 0.10513,0.243637 0.2484,4.480342 0.31837,9.414899 0.12586,8.875744 0.13331,8.973555 0.69452,9.124163 0.31202,0.08373 5.27445,0.153877 11.02763,0.155878 l 10.46033,0.0036 v -8.621648 c 0,-9.343662 0.10179,-10.170365 1.29253,-10.497407 0.92809,-0.254906 6.37111,-0.258231 7.27503,-0.0044 0.65319,0.183389 0.71993,0.34016 0.89747,2.10798 0.38059,3.789796 -0.33366,44.162719 -0.8018,45.321549 -0.10137,0.25093 -0.44307,0.54145 -0.75933,0.64559 -0.92279,0.30388 -5.56397,0.20739 -6.60865,-0.13738 -0.89892,-0.29667 -0.96665,-0.39951 -1.1236,-1.7061 -0.0919,-0.76471 -0.16806,-5.07815 -0.16934,-9.585426 l -0.002,-8.195033 h -11.19322 -11.19322 v 9.046314 c 0,8.997735 -0.003,9.050055 -0.59963,9.741395 -0.94861,1.09959 -3.3233,1.44101 -6.41284,0.92203 z"
           id="path52"
           transform="scale(0.26458333)" /><path
           style="fill:#004c86;fill-opacity:1;stroke-width:0"
           d="m 255.09534,110.58799 c -0.70543,-0.1185 -1.58566,-0.41403 -1.95607,-0.65672 l -0.67347,-0.44128 0.0919,-22.69775 c 0.0791,-19.536817 0.14767,-22.809094 0.49246,-23.497267 0.35432,-0.707175 0.58972,-0.826485 2.03818,-1.033028 2.39967,-0.34218 6.65989,0.02186 6.90507,0.590051 0.10513,0.243637 0.2484,4.480342 0.31837,9.414899 0.12586,8.875744 0.13331,8.973555 0.69452,9.124163 0.31202,0.08373 5.27445,0.153877 11.02763,0.155878 l 10.46033,0.0036 v -8.621648 c 0,-9.343662 0.10179,-10.170365 1.29253,-10.497407 0.92809,-0.254906 6.37111,-0.258231 7.27503,-0.0044 0.65319,0.183389 0.71993,0.34016 0.89747,2.10798 0.38059,3.789796 -0.33366,44.162719 -0.8018,45.321549 -0.10137,0.25093 -0.44307,0.54145 -0.75933,0.64559 -0.92279,0.30388 -5.56397,0.20739 -6.60865,-0.13738 -0.89892,-0.29667 -0.96665,-0.39951 -1.1236,-1.7061 -0.0919,-0.76471 -0.16806,-5.07815 -0.16934,-9.585426 l -0.002,-8.195033 h -11.19322 -11.19322 v 9.046314 c 0,8.997735 -0.003,9.050055 -0.59963,9.741395 -0.94861,1.09959 -3.3233,1.44101 -6.41284,0.92203 z"
           id="path53"
           transform="scale(0.26458333)" /><path
           style="fill:#004c86;fill-opacity:1;stroke-width:0"
           d="m 220.93277,110.70889 c -3.35835,-0.59216 -6.19429,-2.11953 -8.8143,-4.74719 -2.30551,-2.31222 -3.13183,-3.70526 -3.60987,-6.08562 -0.60021,-2.988672 -0.16317,-3.28987 5.04318,-3.475654 l 3.27921,-0.117017 0.62697,1.228376 c 2.00768,3.933485 3.60546,4.876425 8.53841,5.039005 2.77901,0.0916 3.39559,0.0309 4.70559,-0.46331 3.64745,-1.37598 5.02705,-5.030721 3.03519,-8.040622 -1.17573,-1.776662 -2.7178,-2.476011 -10.53909,-4.779663 -6.30754,-1.8578 -8.51705,-2.936195 -10.61837,-5.182515 -0.90356,-0.965908 -1.94311,-2.348759 -2.31011,-3.073002 -1.38161,-2.726475 -1.53805,-8.345018 -0.30722,-11.033517 0.80991,-1.76906 3.52882,-4.681962 5.47195,-5.862349 3.37046,-2.047449 8.54545,-3.068373 12.99712,-2.564081 4.97106,0.56313 8.75153,2.243394 11.69273,5.196941 2.2785,2.288068 3.17474,3.977656 3.18653,6.007234 0.008,1.43193 -0.0145,1.477039 -0.98947,1.953437 -1.0722,0.523924 -5.44806,0.924088 -6.69174,0.611946 -0.44683,-0.112146 -1.013,-0.673624 -1.59208,-1.578875 -1.91605,-2.995267 -3.44546,-3.749844 -7.64128,-3.770052 -2.83602,-0.01366 -3.17872,0.04118 -4.59078,0.734584 -1.79525,0.881573 -2.62628,1.924646 -2.80637,3.522431 -0.43836,3.889128 1.49874,5.314246 10.86172,7.990925 5.99654,1.714283 8.93159,3.028036 11.01124,4.92872 2.70843,2.475354 3.73312,5.083759 3.72163,9.473686 -0.0116,4.430662 -1.08683,7.071352 -3.92644,9.642952 -2.69252,2.43839 -6.17198,4.05171 -9.90086,4.5907 -2.56371,0.37058 -7.29811,0.29957 -9.83349,-0.14747 z"
           id="path54"
           transform="scale(0.26458333)" /><path
           style="fill:#004c86;fill-opacity:1;stroke-width:0"
           d="m 304.25383,110.59565 c -2.77824,-0.58488 -2.82339,-0.3313 2.49045,-13.987534 1.42589,-3.664445 4.08598,-10.680193 5.9113,-15.590551 4.4208,-11.892528 6.38801,-16.793768 7.09658,-17.680943 0.72166,-0.903546 2.00957,-1.228992 4.85111,-1.225845 3.52114,0.0039 5.71481,0.381744 6.44279,1.109719 0.89476,0.894767 1.8575,3.244239 9.14916,22.327657 9.37999,24.548927 9.0923,23.657687 7.96564,24.677047 -0.49088,0.44413 -0.98298,0.50649 -3.93095,0.49811 -3.56909,-0.0101 -4.24982,-0.18816 -4.97982,-1.30227 -0.22589,-0.34477 -1.05818,-2.3921 -1.84953,-4.54963 -0.79135,-2.15753 -1.51584,-3.99994 -1.60999,-4.09425 -0.0942,-0.0943 -4.72639,-0.17147 -10.29386,-0.17147 h -10.12268 l -1.1381,3.33132 c -1.38236,4.04629 -2.41847,6.28021 -3.03171,6.53656 -0.72809,0.30435 -5.67207,0.39119 -6.95039,0.12208 z m 28.00658,-18.606518 c 0.39623,-0.396227 -0.26874,-2.716405 -2.47334,-8.629849 -2.25486,-6.048242 -3.76607,-9.537357 -4.13083,-9.537357 -0.80447,0 -7.5116,17.481813 -6.93044,18.063868 0.604,0.604935 12.93884,0.69911 13.53461,0.103338 z"
           id="path55"
           transform="scale(0.26458333)" /><path
           style="fill:#004c86;fill-opacity:1;stroke-width:0"
           d="m 367.24409,111.3755 c -2.13293,-0.27322 -5.3634,-1.33736 -6.78587,-2.23533 -2.935,-1.85278 -5.60651,-5.96178 -5.82313,-8.95645 -0.0787,-1.088652 -8.7e-4,-1.714737 0.25106,-2.018521 0.65087,-0.784817 2.16226,-1.211202 4.81063,-1.357134 3.12061,-0.171955 3.69955,0.08753 4.2024,1.883501 1.20367,4.299104 6.84001,5.827744 10.46636,2.838594 0.53622,-0.442 1.33472,-1.43244 1.77443,-2.200989 l 0.79949,-1.397356 0.0827,-17.344319 c 0.0657,-13.78459 0.1541,-17.430344 0.43072,-17.763465 0.64757,-0.779844 7.12377,-0.930532 8.3163,-0.193503 0.56068,0.346517 0.8897,15.881264 0.57852,27.31496 -0.23188,8.520225 -0.30467,9.477634 -0.84085,11.059962 -1.18276,3.49044 -3.50918,6.38634 -6.66708,8.2991 -2.85689,1.73044 -7.61699,2.58058 -11.59564,2.07095 z"
           id="path56"
           transform="scale(0.26458333)" /><path
           style="fill:#004c86;fill-opacity:1;stroke-width:0"
           d="m 415.58511,111.09812 c -3.17223,-0.25188 -5.2932,-0.83159 -8.09874,-2.21353 -8.76776,-4.31881 -13.81047,-14.221588 -12.66405,-24.869448 0.73004,-6.780598 2.98009,-11.903488 6.93511,-15.789824 6.97926,-6.858044 17.90692,-8.783103 26.56727,-4.680195 5.31496,2.518001 9.00891,6.262107 11.55403,11.710912 1.79735,3.847914 1.9875,4.925241 1.98124,11.224886 -0.006,6.001432 -0.18884,7.189706 -1.63546,10.626738 -4.15413,9.869771 -13.03422,14.911961 -24.6394,13.990461 z m 6.2128,-8.79329 c 4.49703,-0.95417 8.3952,-5.239527 9.81464,-10.789488 0.71959,-2.813567 0.71834,-7.260152 -0.003,-10.079894 -1.98304,-7.753616 -8.05291,-12.219117 -15.11652,-11.120962 -5.11916,0.795857 -8.80862,4.154206 -10.84553,9.872183 -0.77535,2.176524 -0.81803,2.505807 -0.81592,6.294252 0.002,3.809395 0.0426,4.114104 0.86038,6.472954 1.50857,4.351533 3.58302,6.81431 7.30413,8.671445 1.86214,0.92935 2.07775,0.97444 4.67082,0.97675 1.4952,0.001 3.35408,-0.13243 4.13083,-0.29724 z"
           id="path57"
           transform="scale(0.26458333)" /><path
           style="fill:#004c86;fill-opacity:1;stroke-width:0"
           d="m 71.961505,176.66348 c -2.026651,-2.24326 -1.874846,0.64623 -1.834327,-34.9148 l 0.03632,-31.87942 0.936944,-1.43372 c 1.190727,-1.82206 3.353159,-4.21262 10.638516,-11.760797 l 5.851881,-6.062992 4.841768,0.0011 4.841769,0.0011 4.985274,4.440648 c 2.7419,2.442357 4.9235,4.540607 4.84799,4.662778 -0.0755,0.122171 -3.53288,0.22213 -7.683071,0.22213 H 91.878785 L 90.0436,101.87159 c -2.29926,2.42076 -3.426877,3.88907 -3.177926,4.13809 0.269804,0.26987 79.123306,0.38697 80.157306,0.11904 l 0.84405,-0.21872 -2.88416,-2.98528 -2.88416,-2.985289 h -5.32378 c -4.53491,0 -5.30186,-0.05711 -5.17587,-0.385447 0.0813,-0.211996 1.59638,-2.233709 3.36673,-4.492694 l 3.21881,-4.107247 1.79201,-0.169252 c 0.98561,-0.09309 2.83183,-0.170104 4.10272,-0.171146 l 2.3107,-0.0019 6.65383,6.862507 c 6.66477,6.873788 9.35192,9.780288 10.12845,10.955228 0.64646,0.97813 0.89385,13.82553 0.79874,41.47966 l -0.0825,23.98546 -0.66626,1.33253 c -0.48859,0.97718 -0.95054,1.47466 -1.73228,1.86553 -1.00195,0.50097 -1.69221,0.53801 -11.48364,0.61619 l -10.41761,0.0832 -0.17521,-5.01352 c -0.0964,-2.75744 -0.18082,-8.31153 -0.18767,-12.34242 -0.0197,-11.5716 -0.2727,-12.5543 -3.68768,-14.32212 -1.4117,-0.73079 -1.96559,-0.86867 -3.48964,-0.86867 h -1.8116 l -0.13097,-5.39673 c -0.10852,-4.4717 -0.22913,-5.73151 -0.70366,-7.34985 -1.96384,-6.69753 -7.46195,-12.65365 -13.91759,-15.07697 -4.89358,-1.83696 -10.80239,-2.00121 -15.48907,-0.43055 -5.97492,2.00238 -10.84135,6.26914 -13.53146,11.86403 -1.63664,3.40389 -1.88149,4.68309 -2.04903,10.70505 -0.16841,6.05317 -0.01,5.67354 -2.37683,5.68138 -1.31601,0.004 -3.073233,0.58751 -4.02407,1.33544 -0.870637,0.68484 -2.064969,2.32606 -2.327792,3.19878 -0.110355,0.36645 -0.277934,6.6971 -0.372398,14.06811 -0.147314,11.49496 -0.228632,13.43778 -0.57151,13.65431 -0.234234,0.14793 -4.828462,0.25415 -11.095579,0.25654 l -10.69582,0.004 z"
           id="path58"
           transform="scale(0.26458333)" /><path
           style="fill:#004c86;fill-opacity:1;stroke-width:0"
           d="m 113.05087,141.04785 c 0.14961,-5.20911 0.3926,-6.69467 1.43211,-8.75544 1.52535,-3.02392 4.66702,-5.8454 7.97614,-7.16322 1.51401,-0.60294 6.03325,-0.85043 7.96484,-0.43618 3.28056,0.70356 6.39767,2.86931 8.55877,5.94661 1.80715,2.57329 2.38935,4.26082 2.54567,7.37869 0.0707,1.40974 0.18504,3.61252 0.25414,4.89508 l 0.12564,2.33192 h -14.48894 -14.48893 z"
           id="path59"
           transform="scale(0.26458333)" /><path
           style="fill:#004c86;fill-opacity:1;stroke-width:0"
           d="m 111.2659,95.677488 c -6.89815,-5.372178 -8.52817,-6.852593 -8.52817,-7.745465 0,-1.154706 4.92932,-8.137469 18.52074,-26.236081 9.56243,-12.733529 12.90355,-16.905358 13.69993,-17.106185 0.37834,-0.09541 0.98031,0.02203 1.47303,0.287379 1.91081,1.029042 18.15635,13.177709 26.46984,19.794564 3.38211,2.691879 3.7977,3.110835 3.7977,3.828451 0,0.938868 -0.73935,1.996985 -11.44772,16.383229 -11.65377,15.65635 -10.87465,14.708315 -12.2417,14.895692 -0.64347,0.0882 -6.81978,0.158746 -13.72512,0.156777 l -12.55517,-0.0036 z"
           id="path60"
           transform="scale(0.26458333)" /><path
           style="fill:#00b0b3;fill-opacity:1;stroke-width:0"
           d="m 111.13265,192.94973 -5.0636,-0.13325 -2.03314,-0.97094 c -1.11823,-0.53401 -2.52755,-1.41759 -3.13181,-1.96351 -1.325213,-1.19725 -3.34936,-4.17699 -3.902575,-5.74497 -0.515252,-1.46038 -1.006391,-16.01085 -0.880967,-26.09951 0.08305,-6.68049 0.120069,-7.12786 0.684547,-8.2732 0.918797,-1.86427 2.107594,-2.86545 3.778755,-3.18238 0.90545,-0.17171 10.985,-0.27015 27.57487,-0.2693 l 26.14775,0.001 1.33253,1.00157 c 2.4905,1.87193 2.3871,1.16941 2.47876,16.84114 0.0928,15.872 -0.0815,19.04523 -1.16841,21.26679 -1.02331,2.09158 -4.24667,5.24927 -6.6505,6.51503 l -1.87557,0.9876 -16.11353,0.0784 c -8.86243,0.0431 -18.39213,0.0185 -21.17711,-0.0548 z m 19.03874,-10.06057 c 0.84166,-0.68186 1.06892,-2.10526 1.07604,-6.73945 l 0.006,-4.14102 1.17493,-0.98212 c 0.70979,-0.59331 1.50109,-1.63482 1.99879,-2.6308 1.90154,-3.80533 0.42686,-7.94596 -3.57348,-10.03367 -1.10343,-0.57586 -1.69908,-0.69745 -3.46457,-0.7072 -2.68869,-0.0149 -3.8979,0.40992 -5.54037,1.94626 -1.92511,1.80071 -2.42464,2.92727 -2.43821,5.49878 -0.0138,2.60778 0.4042,3.87641 1.76264,5.35015 0.57334,0.622 1.15712,1.53076 1.29727,2.01945 0.14016,0.4887 0.2555,2.56832 0.25632,4.62137 0.002,4.19432 0.25369,5.51605 1.13262,5.94002 0.329,0.15869 1.75418,0.29666 3.16708,0.30658 2.06822,0.0145 2.6811,-0.0729 3.14458,-0.44835 z"
           id="path61"
           transform="scale(0.26458333)" /><path
           style="fill:#00b0b3;fill-opacity:1;stroke-width:0"
           d="m 263.12671,174.38918 c -1.36083,-0.24121 -1.38362,-0.37249 -1.62925,-9.38525 -0.23298,-8.5487 -0.0536,-36.07 0.24385,-37.41459 l 0.16214,-0.73289 3.50012,0.004 c 4.0535,0.004 4.6042,0.1062 4.79316,0.88768 0.0764,0.31595 0.22377,4.36642 0.3275,9.00105 l 0.18861,8.42659 1.76048,0.1663 c 2.31335,0.21854 15.00182,0.21754 18.08656,-0.001 l 2.41646,-0.17153 0.1795,-2.6934 c 0.0987,-1.48138 0.25918,-5.43156 0.35657,-8.77818 0.16296,-5.59968 0.21829,-6.11491 0.69399,-6.46275 0.38647,-0.28259 1.43491,-0.37798 4.15454,-0.37798 h 3.63762 l 0.17577,6.03944 c 0.2262,7.77247 0.22818,34.59578 0.003,38.27893 -0.13658,2.23222 -0.26265,2.86275 -0.59964,2.99899 -0.71806,0.2903 -4.68046,0.46911 -6.00247,0.27086 -0.98889,-0.14829 -1.29866,-0.32223 -1.49539,-0.83967 -0.13647,-0.35895 -0.37315,-4.69099 -0.52595,-9.62675 -0.1528,-4.93577 -0.30487,-8.99469 -0.33793,-9.01982 -0.0331,-0.0251 -5.00338,-0.11672 -11.04516,-0.20353 -7.79972,-0.11206 -11.03713,-0.0736 -11.16463,0.13275 -0.16179,0.26176 -0.58353,11.45482 -0.62137,16.49085 -0.0217,2.89338 -0.0987,2.95817 -3.63113,3.05624 -1.60236,0.0445 -3.23441,0.024 -3.62677,-0.0456 z"
           id="path62"
           transform="scale(0.26458333)" /><path
           style="fill:#00b1b4;fill-opacity:1;stroke-width:0"
           d="m 353.78558,174.66304 c -0.51302,-0.0601 -1.4493,-0.24517 -2.08063,-0.41117 -1.00252,-0.26358 -1.23547,-0.47405 -1.83965,-1.66206 -0.38048,-0.74814 -1.25799,-2.85934 -1.95003,-4.69157 l -1.25826,-3.33131 h -10.44145 -10.44145 l -1.40775,3.73107 c -1.57969,4.18675 -2.05891,5.20225 -2.70999,5.74259 -0.32046,0.26596 -1.45859,0.40177 -3.94852,0.47115 -3.66059,0.10199 -4.96406,-0.13693 -4.96406,-0.90991 0,-0.8136 1.80453,-5.84096 5.74105,-15.99436 2.15303,-5.55328 5.08873,-13.15502 6.52377,-16.89275 3.62549,-9.44301 4.97909,-12.56234 5.75342,-13.25863 0.63597,-0.57188 0.87531,-0.59964 5.17003,-0.59964 2.88882,0 4.75027,0.11258 5.1924,0.31403 0.46734,0.21293 0.98525,0.93786 1.60881,2.2519 1.04041,2.19245 13.62981,33.83173 15.57482,39.14213 1.66532,4.54677 1.76165,5.084 1.0005,5.5796 -0.61564,0.40085 -3.89894,0.70935 -5.52301,0.51893 z m -10.75407,-18.84102 c 0.23657,-0.23691 -0.39429,-2.17544 -2.98886,-9.18413 -2.86255,-7.73257 -3.73441,-9.30247 -4.58455,-8.25509 -0.72321,0.89101 -5.92448,15.9743 -5.92448,17.18055 v 0.6564 l 6.64073,-0.0905 c 3.6524,-0.0498 6.73812,-0.18802 6.85716,-0.30723 z"
           id="path63"
           transform="scale(0.26458333)" /><path
           style="fill:#00b0b3;fill-opacity:1;stroke-width:0"
           d="m 372.79343,174.3927 c -1.31945,-0.29636 -1.27916,0.30196 -1.37791,-20.46017 -0.051,-10.71438 -0.008,-20.96261 0.0951,-22.77385 0.25141,-4.40944 0.13628,-4.30223 4.62009,-4.30223 2.92202,0 3.48498,0.0683 3.84474,0.46638 0.64576,0.71458 0.84036,12.41464 0.4872,29.29276 -0.3297,15.7572 -0.42294,17.29814 -1.06239,17.55781 -0.54015,0.21934 -5.82556,0.39479 -6.60683,0.2193 z"
           id="path64"
           transform="scale(0.26458333)" /><path
           style="fill:#00b0b3;fill-opacity:1;stroke-width:0"
           d="m 395.51269,174.34586 c -0.56578,-0.13393 -0.84315,-0.40467 -1.00835,-0.98426 -0.27777,-0.97451 -0.34497,-42.91933 -0.0717,-44.72543 0.15503,-1.02448 0.32639,-1.33526 0.84494,-1.53241 0.71399,-0.27146 6.71844,-0.34319 7.38293,-0.0882 0.22804,0.0875 2.4786,2.93579 5.00125,6.3295 18.01647,24.23755 19.16312,25.69177 19.67995,24.95901 0.19244,-0.27284 0.25823,-5.20797 0.20723,-15.54383 -0.0727,-14.72831 -0.0605,-15.15451 0.4426,-15.52393 0.38602,-0.28344 1.40929,-0.37985 4.03157,-0.37985 2.94528,0 3.57347,0.0714 3.88002,0.44113 0.30346,0.36599 0.36576,4.16778 0.36576,22.31981 0,12.03327 -0.0969,22.44557 -0.21529,23.13845 -0.20451,1.19669 -0.27108,1.2748 -1.32919,1.55972 -0.63465,0.17089 -2.36256,0.2572 -4.01604,0.20061 l -2.90213,-0.0993 -1.29296,-1.40616 c -0.71113,-0.77338 -4.73384,-5.98779 -8.93935,-11.58758 -9.5117,-12.66514 -13.72303,-18.04333 -14.1286,-18.04333 -0.47714,0 -0.59659,2.25606 -0.75493,14.25803 -0.18254,13.83572 -0.31611,16.29574 -0.898,16.53796 -0.62633,0.26072 -5.3557,0.38883 -6.27975,0.1701 z"
           id="path65"
           transform="scale(0.26458333)" /><path
           style="fill:#00b0b3;fill-opacity:1;stroke-width:0"
           d="m 108.4676,192.71242 c -2.31052,-0.14084 -2.90273,-0.28174 -4.45166,-1.05912 -0.98263,-0.49317 -2.26617,-1.30717 -2.85232,-1.80889 -1.303618,-1.11584 -3.634395,-4.54231 -4.010184,-5.89536 -0.504831,-1.81766 -0.849011,-12.05964 -0.763281,-22.71344 0.08195,-10.1842 0.103388,-10.56166 0.65841,-11.59297 0.315535,-0.58631 0.856845,-1.33013 1.20291,-1.65294 1.518093,-1.41605 0.501567,-1.36147 29.152905,-1.56539 l 26.6356,-0.18957 1.39299,1.10564 c 2.50663,1.98956 2.33808,0.6228 2.33808,18.95883 0,18.29564 0.0477,17.8312 -2.13047,20.72885 -1.34354,1.7873 -3.79799,3.90396 -5.83916,5.03554 l -1.35805,0.75288 -18.65536,0.0292 c -10.26045,0.0161 -19.85464,-0.0439 -21.32041,-0.13325 z m 21.94667,-9.90835 c 0.72681,-0.78014 0.83952,-1.63277 0.83952,-6.35116 v -4.17095 l 1.31875,-1.2793 c 1.9107,-1.85352 2.67882,-3.54606 2.67882,-5.90272 0,-3.07759 -1.44768,-5.35824 -4.33811,-6.83418 -1.40214,-0.71597 -4.17823,-0.94508 -6.03988,-0.49848 -1.73071,0.41519 -3.73467,1.96653 -4.73201,3.66322 -0.68529,1.16582 -0.74661,1.49122 -0.74169,3.93594 0.006,2.90702 0.071,3.10008 1.83707,5.44163 l 1.08912,1.44405 0.27769,5.0513 c 0.34644,6.30191 0.16462,6.05212 4.4053,6.05212 2.58071,0 2.94689,-0.0593 3.40542,-0.55147 z"
           id="path67"
           transform="scale(0.26458333)" /><path
           style="fill:#00b1b4;fill-opacity:1;stroke-width:0"
           d="m 314.23637,174.24726 c -0.6737,-0.0932 -1.22491,-0.38128 -1.22491,-0.6402 0,-0.25892 0.48499,-1.9018 1.07776,-3.65085 1.64051,-4.84057 14.33956,-37.59467 15.40712,-39.73892 1.60774,-3.22921 1.55886,-3.20433 6.28147,-3.19805 2.60065,0.003 4.53592,0.1848 5.11866,0.47964 1.16074,0.58728 2.1096,2.75257 10.41909,23.77622 7.11013,17.9892 8.47412,21.79382 8.05588,22.47055 -0.41386,0.66964 -5.12366,0.9336 -7.10308,0.3981 -1.51177,-0.40899 -1.71605,-0.62004 -2.68546,-2.77446 -0.57708,-1.28248 -1.43233,-3.39181 -1.90055,-4.68739 l -0.85132,-2.35559 -10.59679,1.3e-4 -10.59679,1.3e-4 -1.63793,4.30844 c -0.90085,2.36964 -1.91847,4.55824 -2.26137,4.86356 -0.6592,0.58696 -5.31322,1.05144 -7.50178,0.74869 z m 26.0742,-18.08213 2.91466,-0.24638 -0.24459,-1.30377 c -0.32018,-1.7067 -4.84389,-13.72346 -5.7507,-15.27614 -1.20129,-2.0569 -1.78293,-1.76922 -3.0427,1.50493 -1.50635,3.91498 -4.47094,12.80786 -4.78142,14.34283 l -0.24776,1.22491 h 4.11893 c 2.26541,0 5.43052,-0.11087 7.03358,-0.24638 z"
           id="path72"
           transform="scale(0.26458333)" /><path
           style="fill:#00b1b4;fill-opacity:1;stroke-width:0"
           d="m 314.04792,174.25255 c -0.57005,-0.0974 -1.03646,-0.38836 -1.03646,-0.64664 0,-0.83181 2.05869,-6.56394 6.51376,-18.13664 9.24154,-24.00629 10.2021,-26.32981 11.49109,-27.79602 0.49114,-0.55867 1.2654,-0.65957 5.0613,-0.65957 4.14576,0 4.54477,0.0635 5.32661,0.84802 0.89282,0.89583 3.41814,6.89441 11.06706,26.28844 5.79031,14.68145 7.29696,18.95348 6.907,19.58445 -0.42072,0.68074 -5.10881,0.95053 -7.10992,0.40916 -1.51177,-0.40899 -1.71605,-0.62004 -2.68546,-2.77446 -0.57708,-1.28248 -1.43233,-3.39181 -1.90055,-4.68739 l -0.85132,-2.35559 -10.59679,1.3e-4 -10.59679,1.3e-4 -1.63793,4.30844 c -0.90085,2.36964 -1.91847,4.56022 -2.26137,4.86797 -0.65163,0.58484 -5.74703,1.08149 -7.69023,0.74957 z m 26.26265,-18.08742 2.91466,-0.24638 -0.24231,-1.29164 c -0.28388,-1.51317 -4.48457,-12.84431 -5.51175,-14.86764 -1.44551,-2.84733 -2.01016,-2.40247 -4.04047,3.18326 -1.6193,4.45501 -4.21275,12.53352 -4.21275,13.12262 0,0.39998 6.81593,0.46129 11.09262,0.0998 z"
           id="path73"
           transform="scale(0.26458333)" /><path
           style="fill:#004c86;fill-opacity:1;stroke-width:0"
           d="m 313.38836,175.38862 c -0.87223,-0.33798 -1.50759,-1.31368 -1.50759,-2.31515 0,-0.77816 4.69015,-13.14827 14.9076,-39.31828 1.34453,-3.44376 2.74496,-6.5332 3.11205,-6.86541 1.56241,-1.41396 8.09283,-1.76164 11.32775,-0.60309 1.00781,0.36093 1.45347,0.87214 2.16715,2.4859 1.29134,2.91995 1.07027,3.39209 -0.27956,0.59708 -0.75823,-1.56999 -1.41115,-2.42299 -1.95842,-2.55855 -0.45154,-0.11184 -3.02073,-0.15442 -5.70931,-0.0946 l -4.88833,0.10873 -0.83492,1.48966 c -0.89167,1.59092 -2.16475,4.7748 -9.95349,24.89301 -7.70389,19.89902 -8.03596,21.05452 -6.18426,21.51927 0.52385,0.13148 2.6413,0.17122 4.70543,0.0883 2.58565,-0.10385 3.63191,-0.0294 3.36376,0.23925 -0.41787,0.4187 -7.32874,0.69779 -8.26786,0.33389 z"
           id="path74"
           transform="scale(0.26458333)" /></g></g></g></svg>
