<?xml version="1.0" encoding="UTF-8" standalone="no"?>
<!-- Created with Inkscape (http://www.inkscape.org/) -->

<svg
   width="31.282646mm"
   height="15.265914mm"
   viewBox="0 0 31.282646 15.265914"
   version="1.1"
   id="svg1"
   xml:space="preserve"
   xmlns="http://www.w3.org/2000/svg"
   xmlns:svg="http://www.w3.org/2000/svg"><defs
     id="defs1" /><g
     id="layer1"
     transform="translate(-15.940534,-98.334445)"><path
       style="fill:#00b0b3;fill-opacity:1;stroke-width:0"
       d="m 18.537729,113.53787 c -0.519364,-0.0729 -1.05074,-0.29681 -1.480202,-0.62378 -0.389199,-0.29632 -0.665436,-0.66645 -0.891414,-1.19442 -0.200999,-0.4696 -0.238907,-0.74126 -0.221992,-1.59087 0.01368,-0.68699 0.02131,-0.75783 0.107514,-0.99679 0.348549,-0.96628 0.954687,-1.59057 1.909835,-1.96706 0.485292,-0.19128 1.261138,-0.23918 1.800269,-0.11113 0.769933,0.18286 1.414593,0.65551 1.740829,1.27633 0.139987,0.2664 0.208833,0.58395 0.136316,0.62877 -0.06306,0.039 -0.741496,0.16321 -0.891251,0.16321 -0.125678,0 -0.14731,-0.0161 -0.284056,-0.21101 -0.398251,-0.56775 -1.050861,-0.8559 -1.718174,-0.75864 -0.39482,0.0576 -0.641878,0.18581 -0.93995,0.48799 -0.434523,0.4405 -0.601046,0.88477 -0.601046,1.60355 0,0.69922 0.167546,1.16671 0.560709,1.56449 0.446723,0.45198 0.710212,0.56969 1.269074,0.56693 0.287019,-10e-4 0.421565,-0.0192 0.578707,-0.0764 0.28116,-0.10233 0.572539,-0.30313 0.750325,-0.51706 0.283522,-0.34118 0.331252,-0.38049 0.461953,-0.38049 0.148604,0 0.440403,0.0531 0.6932,0.12607 0.180679,0.0522 0.186982,0.0583 0.186982,0.18147 0,0.29713 -0.415381,0.92092 -0.828466,1.24414 -0.291429,0.22803 -0.728646,0.44847 -1.053996,0.53143 -0.271269,0.0692 -0.96638,0.098 -1.285166,0.0532 z"
       id="path38-5" /><path
       style="fill:#00b0b3;fill-opacity:1;stroke-width:0"
       d="m 18.537729,113.53787 c -0.519364,-0.0729 -1.05074,-0.29681 -1.480202,-0.62378 -0.389199,-0.29632 -0.665436,-0.66645 -0.891414,-1.19442 -0.200999,-0.4696 -0.238907,-0.74126 -0.221992,-1.59087 0.01368,-0.68699 0.02131,-0.75783 0.107514,-0.99679 0.348549,-0.96628 0.954687,-1.59057 1.909835,-1.96706 0.485292,-0.19128 1.261138,-0.23918 1.800269,-0.11113 0.769933,0.18286 1.414593,0.65551 1.740829,1.27633 0.139987,0.2664 0.208833,0.58395 0.136316,0.62877 -0.06306,0.039 -0.741496,0.16321 -0.891251,0.16321 -0.125678,0 -0.14731,-0.0161 -0.284056,-0.21101 -0.398251,-0.56775 -1.050861,-0.8559 -1.718174,-0.75864 -0.39482,0.0576 -0.641878,0.18581 -0.93995,0.48799 -0.434523,0.4405 -0.601046,0.88477 -0.601046,1.60355 0,0.69922 0.167546,1.16671 0.560709,1.56449 0.446723,0.45198 0.710212,0.56969 1.269074,0.56693 0.287019,-10e-4 0.421565,-0.0192 0.578707,-0.0764 0.28116,-0.10233 0.572539,-0.30313 0.750325,-0.51706 0.283522,-0.34118 0.331252,-0.38049 0.461953,-0.38049 0.148604,0 0.440403,0.0531 0.6932,0.12607 0.180679,0.0522 0.186982,0.0583 0.186982,0.18147 0,0.29713 -0.415381,0.92092 -0.828466,1.24414 -0.291429,0.22803 -0.728646,0.44847 -1.053996,0.53143 -0.271269,0.0692 -0.96638,0.098 -1.285166,0.0532 z"
       id="path39-7" /><path
       style="fill:#000000;fill-opacity:0;stroke-width:0"
       d="m 17.805453,104.95506 c -0.503517,-0.0757 -0.884731,-0.26627 -1.272679,-0.6361 -0.30092,-0.28687 -0.428487,-0.50123 -0.494335,-0.83065 -0.08028,-0.40162 -0.02261,-0.44154 0.673777,-0.46639 l 0.438232,-0.0156 0.08379,0.16416 c 0.266168,0.52148 0.482231,0.65059 1.128008,0.67403 0.49243,0.0179 0.709032,-0.0375 0.931546,-0.23832 0.248286,-0.22403 0.307073,-0.51806 0.16306,-0.81554 -0.140234,-0.28969 -0.37009,-0.40361 -1.455512,-0.72141 -0.837124,-0.2451 -1.136869,-0.39151 -1.419031,-0.69315 -0.120751,-0.12908 -0.259676,-0.31388 -0.308722,-0.41067 -0.184992,-0.36507 -0.205553,-1.115201 -0.04045,-1.475833 0.106599,-0.232841 0.488709,-0.641314 0.740781,-0.791892 0.443023,-0.264641 1.141177,-0.399229 1.726807,-0.332888 0.664329,0.07526 1.169548,0.299806 1.562608,0.694516 0.304497,0.305776 0.42427,0.53157 0.425845,0.802802 0.0011,0.192615 -0.0012,0.197015 -0.137191,0.263425 -0.14686,0.0717 -0.717868,0.12244 -0.890465,0.0791 -0.0584,-0.0147 -0.134984,-0.0909 -0.211619,-0.210712 -0.25606,-0.400285 -0.460449,-0.501126 -1.021175,-0.503827 -0.379004,-0.0018 -0.424802,0.0055 -0.613509,0.09817 -0.239916,0.117813 -0.350974,0.257208 -0.375041,0.470739 -0.05858,0.51974 0.20029,0.71019 1.451552,1.0679 0.886072,0.25331 1.220857,0.41169 1.534726,0.72604 0.269896,0.27031 0.370513,0.48893 0.425832,0.92524 0.03794,0.29927 4.01e-4,0.70967 -0.08745,0.95749 -0.206477,0.58205 -0.962775,1.10927 -1.748456,1.21887 -0.285356,0.0398 -0.947835,0.0401 -1.210929,5.5e-4 z"
       id="path47-6" /><path
       style="fill:#000000;fill-opacity:0;stroke-width:0"
       d="m 22.097985,105.02555 c -0.199171,-0.0468 -0.240179,-0.12996 -0.267443,-0.54203 -0.03378,-0.51056 -0.0057,-5.907304 0.03114,-5.984717 0.01657,-0.03483 0.06431,-0.08214 0.106075,-0.105156 0.104912,-0.0578 0.993131,-0.08228 1.160952,-0.032 0.226833,0.06796 0.23147,0.09467 0.243477,1.402498 l 0.0107,1.166405 h 1.351588 1.351586 l 5.5e-5,-1.148597 c 4.9e-5,-1.022772 0.0069,-1.162086 0.06233,-1.27169 0.04519,-0.08932 0.09647,-0.131836 0.186927,-0.15497 0.168473,-0.04309 1.031633,-0.01397 1.125913,0.03798 0.0473,0.02606 0.08354,0.09159 0.09755,0.176387 0.03102,0.187705 0.0247,3.93486 -0.0088,5.21039 -0.028,1.0664 -0.0431,1.1744 -0.171926,1.22925 -0.115168,0.049 -0.873854,0.0628 -1.036536,0.0189 -0.250726,-0.0678 -0.255518,-0.0952 -0.255518,-1.46092 v -1.17646 h -1.366128 -1.366129 l -0.01816,1.16641 c -0.02087,1.34077 -0.03189,1.40171 -0.265159,1.46648 -0.157214,0.0437 -0.789677,0.0449 -0.972512,0.002 z m 0.560087,-0.0594 c -0.03428,-0.009 -0.09038,-0.009 -0.124654,0 -0.03428,0.009 -0.0062,0.0163 0.06233,0.0163 0.06856,0 0.09661,-0.007 0.06233,-0.0163 z m 4.612215,-0.0331 c 0.05387,-0.0106 0.09794,-0.0326 0.09794,-0.0489 0,-0.0163 -0.04407,-0.0154 -0.09794,0.002 -0.05387,0.0175 -0.194105,0.0472 -0.311636,0.0661 l -0.213693,0.0344 0.213693,-0.0173 c 0.117531,-0.01 0.257767,-0.0259 0.311636,-0.0365 z m -4.995082,-0.0115 c -0.06856,-0.0139 -0.160714,-0.0372 -0.204789,-0.0517 -0.04407,-0.0145 -0.08013,-0.0168 -0.08013,-0.005 0,0.0391 0.158607,0.0858 0.284924,0.0839 l 0.124655,-0.002 z m 0.832162,-0.0403 c 0.05161,-0.0406 0.09384,-0.0915 0.09384,-0.11305 0,-0.0216 -0.03902,-0.003 -0.08671,0.0422 -0.04769,0.0448 -0.139846,0.094 -0.204788,0.10941 l -0.118079,0.0279 0.110949,0.004 c 0.06303,0.002 0.151475,-0.0282 0.204788,-0.0702 z m 3.52184,0.0487 c -0.04407,-0.008 -0.116196,-0.008 -0.16027,0 -0.04408,0.008 -0.008,0.0154 0.08013,0.0154 0.08815,0 0.124209,-0.007 0.08013,-0.0154 z m -0.318626,-0.0531 c -0.04943,-0.0239 -0.08338,-0.0787 -0.09224,-0.14896 -0.01341,-0.10629 -0.01427,-0.10544 -0.01972,0.0194 -0.0056,0.12842 0.02526,0.16609 0.136763,0.16692 0.03154,2.7e-4 0.02139,-0.0151 -0.0248,-0.0374 z m -4.392166,-1.89843 -0.01844,-1.85201 -0.0083,1.83717 c -0.0045,1.01044 0.0024,1.84785 0.01548,1.86091 0.01306,0.0131 0.02508,0.0197 0.02671,0.0148 0.0016,-0.005 -0.0053,-0.84231 -0.01548,-1.86091 z m 5.474366,1.66502 c -0.009,-0.0343 -0.01629,-0.006 -0.01629,0.0623 0,0.0686 0.0073,0.0966 0.01629,0.0623 0.009,-0.0343 0.009,-0.0904 0,-0.12465 z m -2.695745,-2.32391 H 26.1563 l 0.0099,1.13079 0.0099,1.1308 0.0084,-1.14861 0.0084,-1.1486 h -1.495854 -1.495854 l 0.0084,1.21984 0.0084,1.21983 0.0099,-1.20203 0.0099,-1.20202 z m 2.733312,1.43515 c -0.0067,-0.1527 -0.01221,-0.0372 -0.01225,0.25659 -5.1e-5,0.29382 0.0054,0.41877 0.01216,0.27765 0.0067,-0.14113 0.0068,-0.38153 9.1e-5,-0.53424 z m 0.03577,-2.10294 c -0.0059,-0.32811 -0.01069,-0.0597 -0.01069,0.59656 0,0.65621 0.0048,0.92467 0.01069,0.59656 0.0059,-0.32811 0.0059,-0.86502 0,-1.19312 z m -5.55835,-0.62105 c -0.01137,-0.0284 -0.01981,-0.02 -0.02152,0.0215 -0.0016,0.0375 0.0069,0.0586 0.01871,0.0468 0.01183,-0.0118 0.0131,-0.0426 0.0028,-0.0683 z m 3.563938,-0.02 c -0.386875,-0.006 -1.019941,-0.006 -1.406815,0 -0.386874,0.006 -0.07034,0.0105 0.703407,0.0105 0.773748,0 1.090282,-0.005 0.703408,-0.0105 z M 23.26346,99.461409 c -0.006,-0.279137 -0.01094,-0.05075 -0.01094,0.507521 0,0.55828 0.0049,0.78666 0.01094,0.50752 0.006,-0.27913 0.006,-0.735904 0,-1.015041 z m 4.238248,-0.144685 c -0.0059,-0.297503 -0.01081,-0.04408 -0.0108,0.563168 1.6e-5,0.607248 0.0049,0.850658 0.01082,0.540918 0.0059,-0.30975 0.0059,-0.806583 -2.8e-5,-1.104086 z m -5.591673,0.484969 c -0.0063,-0.211642 -0.01149,-0.04824 -0.01152,0.363127 -2.9e-5,0.41136 0.0051,0.58452 0.01147,0.3848 0.0063,-0.19972 0.0064,-0.53629 5.4e-5,-0.747927 z m 0.09718,-1.275192 c 0.02451,-0.05986 0.02122,-0.06385 -0.0206,-0.02501 -0.03599,0.03343 -0.05106,0.151716 -0.05444,0.427387 l -0.0047,0.381169 0.02528,-0.356155 c 0.0139,-0.195886 0.0384,-0.38821 0.05444,-0.427387 z m 1.219806,0.116388 c -0.0079,-0.06401 -0.01458,-0.02022 -0.01477,0.09731 -2.68e-4,0.117531 0.0063,0.169906 0.01441,0.116388 0.0081,-0.05352 0.0083,-0.149679 4.01e-4,-0.213693 z m 4.218088,-0.142793 c -0.05599,-0.05599 -0.319987,-0.09548 -0.611113,-0.09142 -0.263104,0.0037 -0.261756,0.0041 0.08976,0.02907 0.473619,0.03362 0.514417,0.04843 0.52104,0.189097 l 0.0053,0.11335 0.01525,-0.102281 c 0.0084,-0.05626 -6.57e-4,-0.118273 -0.02028,-0.137817 z m -1.179956,0.04421 c 0.04233,-0.08145 0.04122,-0.08487 -0.01298,-0.04016 -0.03259,0.02689 -0.05926,0.07363 -0.05926,0.103879 0,0.06467 0.01018,0.05568 0.07224,-0.06372 z m -3.084715,-0.07063 c -0.01926,-0.01926 -0.22681,-0.04237 -0.461223,-0.05137 l -0.426203,-0.01635 0.391771,0.03282 c 0.215475,0.01805 0.415812,0.03931 0.445194,0.04723 0.02938,0.0079 0.06064,0.01627 0.06945,0.01855 0.0088,0.0023 2.68e-4,-0.01163 -0.01899,-0.03089 z m -0.966883,-0.02396 c -0.02411,-0.0098 -0.0722,-0.01035 -0.106847,-0.0013 -0.03466,0.009 -0.01493,0.01701 0.04384,0.01774 0.05877,7.07e-4 0.08712,-0.0067 0.06301,-0.01642 z m 4.290997,-0.0012 c -0.03428,-0.009 -0.09037,-0.009 -0.124655,0 -0.03428,0.009 -0.0062,0.01629 0.06233,0.01629 0.06856,0 0.09661,-0.0073 0.06233,-0.01629 z"
       id="path48-1" /><path
       style="fill:#002255;fill-opacity:0;stroke-width:0"
       d="m 22.264068,104.91794 c -0.09427,-0.0158 -0.211907,-0.0553 -0.261408,-0.0878 l -0.09,-0.059 0.01228,-3.03331 c 0.01057,-2.610887 0.01973,-3.048192 0.06581,-3.140159 0.04735,-0.09451 0.07881,-0.11045 0.272381,-0.138053 0.32069,-0.04573 0.890023,0.0029 0.922789,0.07885 0.01405,0.03256 0.03319,0.59875 0.04254,1.258201 0.01682,1.186151 0.01781,1.199221 0.09281,1.219351 0.0417,0.0112 0.704873,0.0206 1.473724,0.0208 l 1.397911,4.8e-4 v -1.152195 c 0,-1.24868 0.0136,-1.35916 0.172733,-1.402866 0.124029,-0.03406 0.851431,-0.03451 0.97223,-6.06e-4 0.08729,0.02451 0.09621,0.04546 0.119937,0.281709 0.05086,0.506465 -0.04459,5.901878 -0.107152,6.056738 -0.01355,0.0335 -0.05921,0.0724 -0.101476,0.0863 -0.123321,0.0406 -0.743565,0.0277 -0.883175,-0.0184 -0.120131,-0.0396 -0.129183,-0.0534 -0.150158,-0.228 -0.01228,-0.1022 -0.02246,-0.67864 -0.02263,-1.28099 l -2.68e-4,-1.09518 h -1.495838 -1.495854 v 1.20894 c 0,1.20246 -4.01e-4,1.20945 -0.08013,1.30184 -0.126772,0.14695 -0.444123,0.19257 -0.857007,0.12322 z"
       id="path49-8" /><path
       style="fill:#002255;fill-opacity:0;stroke-width:0"
       d="m 22.264068,104.91794 c -0.09427,-0.0158 -0.211907,-0.0553 -0.261408,-0.0878 l -0.09,-0.059 0.01228,-3.03331 c 0.01057,-2.610887 0.01973,-3.048192 0.06581,-3.140159 0.04735,-0.09451 0.07881,-0.11045 0.272381,-0.138053 0.32069,-0.04573 0.890023,0.0029 0.922789,0.07885 0.01405,0.03256 0.03319,0.59875 0.04254,1.258201 0.01682,1.186151 0.01781,1.199221 0.09281,1.219351 0.0417,0.0112 0.704873,0.0206 1.473724,0.0208 l 1.397911,4.8e-4 v -1.152195 c 0,-1.24868 0.0136,-1.35916 0.172733,-1.402866 0.124029,-0.03406 0.851431,-0.03451 0.97223,-6.06e-4 0.08729,0.02451 0.09621,0.04546 0.119937,0.281709 0.05086,0.506465 -0.04459,5.901878 -0.107152,6.056738 -0.01355,0.0335 -0.05921,0.0724 -0.101476,0.0863 -0.123321,0.0406 -0.743565,0.0277 -0.883175,-0.0184 -0.120131,-0.0396 -0.129183,-0.0534 -0.150158,-0.228 -0.01228,-0.1022 -0.02246,-0.67864 -0.02263,-1.28099 l -2.68e-4,-1.09518 h -1.495838 -1.495854 v 1.20894 c 0,1.20246 -4.01e-4,1.20945 -0.08013,1.30184 -0.126772,0.14695 -0.444123,0.19257 -0.857007,0.12322 z"
       id="path50-9" /><path
       style="fill:#002255;fill-opacity:0;stroke-width:0"
       d="m 22.264068,104.91794 c -0.09427,-0.0158 -0.211907,-0.0553 -0.261408,-0.0878 l -0.09,-0.059 0.01228,-3.03331 c 0.01057,-2.610887 0.01973,-3.048192 0.06581,-3.140159 0.04735,-0.09451 0.07881,-0.11045 0.272381,-0.138053 0.32069,-0.04573 0.890023,0.0029 0.922789,0.07885 0.01405,0.03256 0.03319,0.59875 0.04254,1.258201 0.01682,1.186151 0.01781,1.199221 0.09281,1.219351 0.0417,0.0112 0.704873,0.0206 1.473724,0.0208 l 1.397911,4.8e-4 v -1.152195 c 0,-1.24868 0.0136,-1.35916 0.172733,-1.402866 0.124029,-0.03406 0.851431,-0.03451 0.97223,-6.06e-4 0.08729,0.02451 0.09621,0.04546 0.119937,0.281709 0.05086,0.506465 -0.04459,5.901878 -0.107152,6.056738 -0.01355,0.0335 -0.05921,0.0724 -0.101476,0.0863 -0.123321,0.0406 -0.743565,0.0277 -0.883175,-0.0184 -0.120131,-0.0396 -0.129183,-0.0534 -0.150158,-0.228 -0.01228,-0.1022 -0.02246,-0.67864 -0.02263,-1.28099 l -2.68e-4,-1.09518 h -1.495838 -1.495854 v 1.20894 c 0,1.20246 -4.01e-4,1.20945 -0.08013,1.30184 -0.126772,0.14695 -0.444123,0.19257 -0.857007,0.12322 z"
       id="path51-2" /><path
       style="fill:#002255;fill-opacity:0;stroke-width:0"
       d="m 22.264068,104.91794 c -0.09427,-0.0158 -0.211907,-0.0553 -0.261408,-0.0878 l -0.09,-0.059 0.01228,-3.03331 c 0.01057,-2.610887 0.01973,-3.048192 0.06581,-3.140159 0.04735,-0.09451 0.07881,-0.11045 0.272381,-0.138053 0.32069,-0.04573 0.890023,0.0029 0.922789,0.07885 0.01405,0.03256 0.03319,0.59875 0.04254,1.258201 0.01682,1.186151 0.01781,1.199221 0.09281,1.219351 0.0417,0.0112 0.704873,0.0206 1.473724,0.0208 l 1.397911,4.8e-4 v -1.152195 c 0,-1.24868 0.0136,-1.35916 0.172733,-1.402866 0.124029,-0.03406 0.851431,-0.03451 0.97223,-6.06e-4 0.08729,0.02451 0.09621,0.04546 0.119937,0.281709 0.05086,0.506465 -0.04459,5.901878 -0.107152,6.056738 -0.01355,0.0335 -0.05921,0.0724 -0.101476,0.0863 -0.123321,0.0406 -0.743565,0.0277 -0.883175,-0.0184 -0.120131,-0.0396 -0.129183,-0.0534 -0.150158,-0.228 -0.01228,-0.1022 -0.02246,-0.67864 -0.02263,-1.28099 l -2.68e-4,-1.09518 h -1.495838 -1.495854 v 1.20894 c 0,1.20246 -4.01e-4,1.20945 -0.08013,1.30184 -0.126772,0.14695 -0.444123,0.19257 -0.857007,0.12322 z"
       id="path52-7" /><path
       style="fill:#004c86;fill-opacity:1;stroke-width:0"
       d="m 22.264068,104.91794 c -0.09427,-0.0158 -0.211907,-0.0553 -0.261408,-0.0878 l -0.09,-0.059 0.01228,-3.03331 c 0.01057,-2.610887 0.01973,-3.048192 0.06581,-3.140159 0.04735,-0.09451 0.07881,-0.11045 0.272381,-0.138053 0.32069,-0.04573 0.890023,0.0029 0.922789,0.07885 0.01405,0.03256 0.03319,0.59875 0.04254,1.258201 0.01682,1.186151 0.01781,1.199221 0.09281,1.219351 0.0417,0.0112 0.704873,0.0206 1.473724,0.0208 l 1.397911,4.8e-4 v -1.152195 c 0,-1.24868 0.0136,-1.35916 0.172733,-1.402866 0.124029,-0.03406 0.851431,-0.03451 0.97223,-6.06e-4 0.08729,0.02451 0.09621,0.04546 0.119937,0.281709 0.05086,0.506465 -0.04459,5.901878 -0.107152,6.056738 -0.01355,0.0335 -0.05921,0.0724 -0.101476,0.0863 -0.123321,0.0406 -0.743565,0.0277 -0.883175,-0.0184 -0.120131,-0.0396 -0.129183,-0.0534 -0.150158,-0.228 -0.01228,-0.1022 -0.02246,-0.67864 -0.02263,-1.28099 l -2.68e-4,-1.09518 h -1.495838 -1.495854 v 1.20894 c 0,1.20246 -4.01e-4,1.20945 -0.08013,1.30184 -0.126772,0.14695 -0.444123,0.19257 -0.857007,0.12322 z"
       id="path53-9" /><path
       style="fill:#004c86;fill-opacity:1;stroke-width:0"
       d="m 17.698607,104.9341 c -0.448808,-0.0791 -0.827801,-0.28326 -1.177937,-0.63441 -0.308107,-0.30901 -0.418536,-0.49517 -0.482421,-0.81328 -0.08021,-0.39941 -0.02181,-0.43966 0.673967,-0.46449 l 0.438232,-0.0156 0.08379,0.16416 c 0.268305,0.52567 0.481831,0.65169 1.141066,0.67341 0.371386,0.0122 0.453784,0.004 0.628852,-0.0619 0.487443,-0.18388 0.671811,-0.6723 0.405621,-1.07454 -0.157124,-0.23743 -0.363205,-0.33089 -1.408437,-0.63875 -0.842935,-0.24828 -1.138212,-0.39239 -1.419031,-0.69259 -0.120751,-0.12908 -0.259676,-0.31388 -0.308722,-0.41067 -0.184637,-0.36437 -0.205543,-1.115225 -0.04105,-1.474514 0.108236,-0.236416 0.471589,-0.625694 0.731268,-0.78344 0.450426,-0.27362 1.142007,-0.410055 1.736926,-0.342662 0.664329,0.07526 1.169548,0.299806 1.562608,0.694516 0.304497,0.305776 0.42427,0.53157 0.425845,0.802802 0.0011,0.191358 -0.0019,0.197388 -0.132232,0.261058 -0.143288,0.07 -0.728075,0.12349 -0.894279,0.0818 -0.05971,-0.015 -0.135377,-0.09 -0.212765,-0.211002 -0.256059,-0.400285 -0.460448,-0.501126 -1.021175,-0.503827 -0.379004,-0.0018 -0.424801,0.0055 -0.613508,0.09817 -0.239916,0.117813 -0.350975,0.257208 -0.375042,0.470739 -0.05858,0.51974 0.200291,0.71019 1.451553,1.0679 0.801373,0.22909 1.193611,0.40466 1.471534,0.65867 0.361952,0.3308 0.498891,0.67939 0.497356,1.26606 -0.0016,0.59211 -0.145243,0.94501 -0.524726,1.28867 -0.359827,0.32587 -0.824819,0.54147 -1.323145,0.6135 -0.342612,0.0495 -0.975314,0.04 -1.31414,-0.0197 z"
       id="path54-5" /><path
       style="fill:#004c86;fill-opacity:1;stroke-width:0"
       d="m 28.833573,104.91896 c -0.371282,-0.0782 -0.377316,-0.0443 0.332822,-1.86928 0.190555,-0.48971 0.546047,-1.42729 0.789982,-2.08351 0.590792,-1.589309 0.853689,-2.244307 0.948382,-2.362869 0.09644,-0.120749 0.268557,-0.164241 0.648298,-0.163821 0.470563,5.05e-4 0.763723,0.05102 0.86101,0.148302 0.119575,0.119576 0.248235,0.433558 1.222687,2.983848 1.253536,3.28071 1.215089,3.1616 1.064523,3.29783 -0.0656,0.0593 -0.131365,0.0677 -0.525329,0.0666 -0.476971,-0.001 -0.567943,-0.0251 -0.6655,-0.17404 -0.03019,-0.0461 -0.141415,-0.31968 -0.24717,-0.60801 -0.105756,-0.28833 -0.202576,-0.53455 -0.215158,-0.54715 -0.01259,-0.0126 -0.631631,-0.0229 -1.375664,-0.0229 h -1.352787 l -0.152096,0.4452 c -0.184737,0.54074 -0.323202,0.83928 -0.405155,0.87354 -0.0973,0.0407 -0.758012,0.0523 -0.928845,0.0163 z m 3.742779,-2.48656 c 0.05295,-0.0529 -0.03591,-0.36302 -0.330535,-1.15328 -0.301338,-0.80829 -0.503295,-1.27457 -0.552042,-1.27457 -0.107508,0 -1.003844,2.33626 -0.926179,2.41404 0.08072,0.0808 1.729138,0.0934 1.808756,0.0138 z"
       id="path55-4" /><path
       style="fill:#004c86;fill-opacity:1;stroke-width:0"
       d="m 37.251546,105.02318 c -0.285044,-0.0365 -0.716761,-0.17872 -0.906859,-0.29873 -0.392231,-0.2476 -0.74925,-0.79672 -0.778199,-1.19693 -0.01052,-0.14549 -1.16e-4,-0.22916 0.03355,-0.26975 0.08698,-0.10488 0.288963,-0.16187 0.642889,-0.18137 0.417036,-0.023 0.494405,0.0117 0.561606,0.25171 0.160857,0.57453 0.914093,0.77882 1.398716,0.37935 0.07166,-0.0591 0.178372,-0.19143 0.237134,-0.29414 l 0.106843,-0.18674 0.01105,-2.31788 c 0.0088,-1.842167 0.02059,-2.329383 0.05756,-2.373901 0.08654,-0.104218 0.952015,-0.124356 1.111384,-0.02586 0.07493,0.04631 0.118899,2.122361 0.07731,3.650351 -0.03099,1.13864 -0.04071,1.26659 -0.112371,1.47805 -0.158063,0.46646 -0.468964,0.85346 -0.890983,1.10908 -0.381793,0.23126 -1.017929,0.34487 -1.549633,0.27676 z"
       id="path56-3" /><path
       style="fill:#004c86;fill-opacity:1;stroke-width:0"
       d="m 43.711805,104.98611 c -0.423935,-0.0337 -0.707378,-0.11113 -1.082309,-0.29581 -1.171718,-0.57716 -1.845622,-1.90056 -1.692415,-3.32354 0.09756,-0.90615 0.398257,-1.59077 0.926805,-2.110137 0.9327,-0.916504 2.393067,-1.173768 3.550427,-0.625458 0.710288,0.336504 1.203946,0.836863 1.544076,1.565035 0.240192,0.51424 0.265608,0.65821 0.26477,1.50009 -0.001,0.80203 -0.02526,0.96083 -0.218564,1.42015 -0.555153,1.31899 -1.74188,1.99282 -3.29279,1.86967 z m 0.830273,-1.17512 c 0.60098,-0.12752 1.121928,-0.70021 1.311621,-1.4419 0.09616,-0.37601 0.096,-0.97025 -3.99e-4,-1.34707 -0.265012,-1.036193 -1.076187,-1.632959 -2.020161,-1.486202 -0.684119,0.106357 -1.177176,0.555162 -1.449391,1.319312 -0.103615,0.29087 -0.109317,0.33487 -0.109039,0.84116 2.67e-4,0.50908 0.0057,0.5498 0.114984,0.86504 0.201603,0.58154 0.478829,0.91066 0.976118,1.15885 0.248855,0.12419 0.27767,0.13022 0.624205,0.13053 0.199815,1.3e-4 0.448235,-0.0177 0.552042,-0.0397 z"
       id="path57-1" /><path
       style="fill:#00b0b3;fill-opacity:1;stroke-width:0"
       d="m 23.337374,113.44429 c -0.18186,-0.0322 -0.184906,-0.0498 -0.217732,-1.25424 -0.03113,-1.14244 -0.0072,-4.82037 0.03259,-5.00006 l 0.02167,-0.0979 0.467754,5.5e-4 c 0.541707,5.6e-4 0.615302,0.0142 0.640554,0.11863 0.01021,0.0422 0.02991,0.58353 0.04377,1.2029 l 0.0252,1.12612 0.23527,0.0222 c 0.309154,0.0292 2.004833,0.0291 2.417075,-1.3e-4 l 0.322934,-0.0229 0.02399,-0.35995 c 0.01319,-0.19797 0.03464,-0.72587 0.04765,-1.17311 0.02178,-0.74833 0.02917,-0.81719 0.09274,-0.86367 0.05165,-0.0378 0.19176,-0.0505 0.55521,-0.0505 h 0.486129 l 0.02349,0.8071 c 0.03023,1.03871 0.03049,4.62336 4.01e-4,5.11557 -0.01825,0.29831 -0.0351,0.38258 -0.08014,0.40078 -0.09596,0.0388 -0.625494,0.0627 -0.802166,0.0362 -0.132154,-0.0198 -0.173552,-0.0431 -0.199843,-0.11221 -0.01824,-0.048 -0.04987,-0.6269 -0.07029,-1.28651 -0.02042,-0.65961 -0.04074,-1.20204 -0.04516,-1.2054 -0.0044,-0.003 -0.668648,-0.0156 -1.476067,-0.0272 -1.042349,-0.015 -1.474994,-0.01 -1.492033,0.0177 -0.02162,0.035 -0.07798,1.53081 -0.08304,2.20382 -0.0029,0.38667 -0.01319,0.39533 -0.485262,0.40844 -0.214138,0.006 -0.432244,0.003 -0.484679,-0.006 z"
       id="path62-2" /><path
       style="fill:#00b1b4;fill-opacity:1;stroke-width:0"
       d="m 35.45296,113.48088 c -0.06856,-0.008 -0.193683,-0.0328 -0.278053,-0.055 -0.133977,-0.0352 -0.165108,-0.0633 -0.24585,-0.22211 -0.05085,-0.1 -0.168117,-0.38212 -0.260601,-0.62698 l -0.168153,-0.4452 h -1.395388 -1.395387 l -0.188131,0.49862 c -0.211109,0.55952 -0.275151,0.69523 -0.362161,0.76744 -0.04283,0.0355 -0.194925,0.0537 -0.527677,0.063 -0.489199,0.0136 -0.663394,-0.0183 -0.663394,-0.1216 0,-0.10873 0.241156,-0.78058 0.76723,-2.13748 0.287729,-0.74213 0.680054,-1.75802 0.871832,-2.25753 0.484507,-1.26196 0.665402,-1.67882 0.768883,-1.77187 0.08499,-0.0764 0.116975,-0.0801 0.690919,-0.0801 0.386059,0 0.634822,0.0151 0.693908,0.042 0.06245,0.0285 0.131668,0.12533 0.215001,0.30094 0.139039,0.293 1.821477,4.52125 2.081407,5.23092 0.222552,0.60763 0.235426,0.67943 0.133706,0.74566 -0.08227,0.0536 -0.521051,0.0948 -0.738091,0.0694 z m -1.437166,-2.5179 c 0.03161,-0.0317 -0.05269,-0.29072 -0.399429,-1.22736 -0.382549,-1.03337 -0.499064,-1.24317 -0.612676,-1.1032 -0.09665,0.11907 -0.791743,2.13479 -0.791743,2.29599 v 0.0877 l 0.887462,-0.0121 c 0.488104,-0.007 0.900478,-0.0251 0.916386,-0.0411 z"
       id="path63-3" /><path
       style="fill:#00b0b3;fill-opacity:1;stroke-width:0"
       d="m 37.993156,113.44476 c -0.176331,-0.0396 -0.170947,0.0404 -0.184143,-2.73429 -0.0068,-1.43186 -0.0011,-2.80142 0.01271,-3.04348 0.0336,-0.58927 0.01821,-0.57494 0.617425,-0.57494 0.390497,0 0.46573,0.009 0.513809,0.0623 0.0863,0.0955 0.112305,1.65908 0.06511,3.91466 -0.04406,2.10578 -0.05652,2.31171 -0.141977,2.34641 -0.07219,0.0293 -0.778524,0.0528 -0.882932,0.0293 z"
       id="path64-3" /><path
       style="fill:#00b0b3;fill-opacity:1;stroke-width:0"
       d="m 41.029341,113.4385 c -0.07561,-0.0179 -0.112678,-0.0541 -0.134755,-0.13154 -0.03712,-0.13023 -0.0461,-5.73571 -0.0096,-5.97707 0.02072,-0.13691 0.04362,-0.17845 0.112917,-0.20479 0.09542,-0.0363 0.897845,-0.0459 0.986651,-0.0118 0.03046,0.0117 0.331235,0.39233 0.66836,0.84586 2.407709,3.23909 2.560944,3.43343 2.630016,3.33551 0.02571,-0.0365 0.0345,-0.69599 0.02768,-2.07727 -0.0097,-1.96828 -0.0081,-2.02524 0.05915,-2.0746 0.05159,-0.0379 0.188339,-0.0508 0.538778,-0.0508 0.393604,0 0.477556,0.01 0.518524,0.0589 0.04056,0.0489 0.04889,0.55698 0.04889,2.9828 0,1.60812 -0.01293,2.99961 -0.02879,3.09221 -0.02733,0.15992 -0.03622,0.17036 -0.177631,0.20844 -0.08482,0.0228 -0.315734,0.0344 -0.536703,0.0268 l -0.387835,-0.0133 -0.172793,-0.18792 c -0.09503,-0.10336 -0.632624,-0.80021 -1.194647,-1.54856 -1.271138,-1.69256 -1.833938,-2.4113 -1.888135,-2.4113 -0.06377,0 -0.07973,0.3015 -0.100892,1.90544 -0.0244,1.84899 -0.04223,2.17775 -0.120005,2.21012 -0.0837,0.0348 -0.715733,0.052 -0.839222,0.0227 z"
       id="path65-4" /><path
       style="fill:#00b1b4;fill-opacity:1;stroke-width:0"
       d="m 30.167632,113.42532 c -0.09003,-0.0125 -0.163696,-0.051 -0.163696,-0.0856 0,-0.0346 0.06481,-0.25416 0.144031,-0.4879 0.219237,-0.64689 1.916329,-5.02412 2.058997,-5.31068 0.214857,-0.43155 0.208325,-0.42822 0.839451,-0.42738 0.347549,4e-4 0.606177,0.0247 0.684054,0.0641 0.15512,0.0785 0.281925,0.36785 1.392399,3.17743 0.950193,2.40407 1.132476,2.91251 1.076583,3.00295 -0.05531,0.0895 -0.684723,0.12477 -0.949251,0.0532 -0.202032,-0.0547 -0.229332,-0.0829 -0.358883,-0.37078 -0.07712,-0.17139 -0.191415,-0.45327 -0.253988,-0.62642 l -0.11377,-0.31479 -1.416147,10e-6 -1.416147,2e-5 -0.218892,0.57578 c -0.120389,0.31667 -0.256383,0.60916 -0.302208,0.64996 -0.0881,0.0784 -0.710055,0.14051 -1.002533,0.10005 z m 3.484538,-2.41648 0.389513,-0.0329 -0.03269,-0.17424 c -0.04279,-0.22808 -0.647334,-1.83399 -0.76852,-2.04149 -0.160539,-0.27488 -0.238269,-0.23644 -0.406623,0.20112 -0.201308,0.52319 -0.597494,1.71163 -0.638987,1.91676 l -0.03311,0.1637 h 0.550451 c 0.302747,0 0.725731,-0.0148 0.939962,-0.0329 z"
       id="path72-1" /><path
       style="fill:#00b1b4;fill-opacity:1;stroke-width:0"
       d="m 30.142448,113.42603 c -0.07618,-0.013 -0.138512,-0.0519 -0.138512,-0.0864 0,-0.11117 0.275122,-0.8772 0.870494,-2.42377 1.235033,-3.20818 1.363402,-3.5187 1.535661,-3.71464 0.06564,-0.0747 0.169108,-0.0881 0.676389,-0.0881 0.554036,0 0.60736,0.008 0.711844,0.11333 0.119316,0.11972 0.456798,0.92136 1.478994,3.51317 0.773813,1.96201 0.975161,2.53293 0.923047,2.61725 -0.05623,0.091 -0.682738,0.12703 -0.950165,0.0547 -0.202032,-0.0547 -0.229332,-0.0829 -0.358883,-0.37078 -0.07712,-0.17139 -0.191415,-0.45328 -0.253988,-0.62642 l -0.11377,-0.3148 -1.416147,2e-5 -1.416147,2e-5 -0.218892,0.57577 c -0.120389,0.31668 -0.256383,0.60943 -0.302208,0.65056 -0.08708,0.0782 -0.768029,0.14453 -1.027717,0.10017 z m 3.509722,-2.41719 0.389513,-0.0329 -0.03238,-0.17262 c -0.03794,-0.20222 -0.599315,-1.7165 -0.736586,-1.9869 -0.193177,-0.38051 -0.268636,-0.32106 -0.539966,0.42541 -0.216402,0.59536 -0.562989,1.67497 -0.562989,1.7537 0,0.0534 0.910877,0.0616 1.48241,0.0133 z"
       id="path73-1" /><path
       style="fill:#004c86;fill-opacity:1;stroke-width:0"
       d="m 30.054305,113.57785 c -0.116564,-0.0452 -0.201474,-0.17556 -0.201474,-0.3094 0,-0.10399 0.626789,-1.75712 1.992242,-5.25446 0.179682,-0.46022 0.366834,-0.87309 0.415892,-0.91749 0.208799,-0.18896 1.08152,-0.23542 1.513832,-0.0806 0.134683,0.0482 0.194241,0.11655 0.289616,0.33221 0.172574,0.39022 0.143031,0.45332 -0.03736,0.0798 -0.10133,-0.20981 -0.188586,-0.3238 -0.261722,-0.34192 -0.06034,-0.015 -0.403688,-0.0206 -0.762988,-0.0126 l -0.653273,0.0145 -0.111578,0.19908 c -0.119162,0.21261 -0.289296,0.6381 -1.330178,3.32668 -1.029542,2.65929 -1.07392,2.81371 -0.82646,2.87582 0.07001,0.0176 0.352982,0.0229 0.628831,0.0118 0.345544,-0.0139 0.485366,-0.004 0.44953,0.032 -0.05584,0.0559 -0.979407,0.0932 -1.10491,0.0446 z"
       id="path74-3" /></g></svg>
